<?xml version="1.0" encoding="UTF-8" standalone="no"?>
<!DOCTYPE svg PUBLIC "-//W3C//DTD SVG 1.1//EN"
 "http://www.w3.org/Graphics/SVG/1.1/DTD/svg11.dtd">
<!-- Generated by graphviz version 12.2.1 (20241206.2353)
 -->
<!-- Title: Util.h Pages: 1 -->
<svg width="1096pt" height="193pt"
 viewBox="0.00 0.00 1095.88 193.00" xmlns="http://www.w3.org/2000/svg" xmlns:xlink="http://www.w3.org/1999/xlink">
<g id="graph0" class="graph" transform="scale(1 1) rotate(0) translate(4 189)">
<title>Util.h</title>
<!-- Node1 -->
<g id="Node000001" class="node">
<title>Node1</title>
<g id="a_Node000001"><a xlink:title="Various helper functions needed by MoDD.">
<polygon fill="#999999" stroke="#666666" points="459,-185 419.75,-185 419.75,-165.75 459,-165.75 459,-185"/>
<text text-anchor="middle" x="439.38" y="-171.5" font-family="Helvetica,sans-Serif" font-size="10.00">Util.h</text>
</a>
</g>
</g>
<!-- Node2 -->
<g id="Node000002" class="node">
<title>Node2</title>
<g id="a_Node000002"><a xlink:title=" ">
<polygon fill="#e0e0e0" stroke="#999999" points="34.75,-129.75 0,-129.75 0,-110.5 34.75,-110.5 34.75,-129.75"/>
<text text-anchor="middle" x="17.38" y="-116.25" font-family="Helvetica,sans-Serif" font-size="10.00">ratio</text>
</a>
</g>
</g>
<!-- Node1&#45;&gt;Node2 -->
<g id="edge1_Node000001_Node000002" class="edge">
<title>Node1&#45;&gt;Node2</title>
<g id="a_edge1_Node000001_Node000002"><a xlink:title=" ">
<path fill="none" stroke="#63b8ff" d="M419.36,-173.59C362.27,-171.05 193.78,-161.41 46.18,-129.96"/>
<polygon fill="#63b8ff" stroke="#63b8ff" points="47.14,-126.59 36.62,-127.88 45.65,-133.43 47.14,-126.59"/>
</a>
</g>
</g>
<!-- Node3 -->
<g id="Node000003" class="node">
<title>Node3</title>
<g id="a_Node000003"><a xlink:title=" ">
<polygon fill="#e0e0e0" stroke="#999999" points="98,-129.75 52.75,-129.75 52.75,-110.5 98,-110.5 98,-129.75"/>
<text text-anchor="middle" x="75.38" y="-116.25" font-family="Helvetica,sans-Serif" font-size="10.00">chrono</text>
</a>
</g>
</g>
<!-- Node1&#45;&gt;Node3 -->
<g id="edge2_Node000001_Node000003" class="edge">
<title>Node1&#45;&gt;Node3</title>
<g id="a_edge2_Node000001_Node000003"><a xlink:title=" ">
<path fill="none" stroke="#63b8ff" d="M419.32,-172.66C368.81,-168.14 232.13,-154.66 109.38,-130.14"/>
<polygon fill="#63b8ff" stroke="#63b8ff" points="110.29,-126.75 99.8,-128.19 108.9,-133.61 110.29,-126.75"/>
</a>
</g>
</g>
<!-- Node4 -->
<g id="Node000004" class="node">
<title>Node4</title>
<g id="a_Node000004"><a xlink:title=" ">
<polygon fill="#e0e0e0" stroke="#999999" points="161,-129.75 115.75,-129.75 115.75,-110.5 161,-110.5 161,-129.75"/>
<text text-anchor="middle" x="138.38" y="-116.25" font-family="Helvetica,sans-Serif" font-size="10.00">atomic</text>
</a>
</g>
</g>
<!-- Node1&#45;&gt;Node4 -->
<g id="edge3_Node000001_Node000004" class="edge">
<title>Node1&#45;&gt;Node4</title>
<g id="a_edge3_Node000001_Node000004"><a xlink:title=" ">
<path fill="none" stroke="#63b8ff" d="M419.59,-171.85C376.38,-166.17 270.21,-151.38 172.3,-130.22"/>
<polygon fill="#63b8ff" stroke="#63b8ff" points="173.32,-126.86 162.81,-128.13 171.82,-133.69 173.32,-126.86"/>
</a>
</g>
</g>
<!-- Node5 -->
<g id="Node000005" class="node">
<title>Node5</title>
<g id="a_Node000005"><a xlink:title=" ">
<polygon fill="#e0e0e0" stroke="#999999" points="221.88,-129.75 178.88,-129.75 178.88,-110.5 221.88,-110.5 221.88,-129.75"/>
<text text-anchor="middle" x="200.38" y="-116.25" font-family="Helvetica,sans-Serif" font-size="10.00">vector</text>
</a>
</g>
</g>
<!-- Node1&#45;&gt;Node5 -->
<g id="edge4_Node000001_Node000005" class="edge">
<title>Node1&#45;&gt;Node5</title>
<g id="a_edge4_Node000001_Node000005"><a xlink:title=" ">
<path fill="none" stroke="#63b8ff" d="M419.47,-170.13C383.07,-162.34 303.37,-145.14 236.38,-129.75 235.22,-129.48 234.04,-129.21 232.85,-128.93"/>
<polygon fill="#63b8ff" stroke="#63b8ff" points="234.07,-125.63 223.53,-126.74 232.46,-132.44 234.07,-125.63"/>
</a>
</g>
</g>
<!-- Node6 -->
<g id="Node000006" class="node">
<title>Node6</title>
<g id="a_Node000006"><a xlink:title=" ">
<polygon fill="#e0e0e0" stroke="#999999" points="590.38,-74.5 550.38,-74.5 550.38,-55.25 590.38,-55.25 590.38,-74.5"/>
<text text-anchor="middle" x="570.38" y="-61" font-family="Helvetica,sans-Serif" font-size="10.00">string</text>
</a>
</g>
</g>
<!-- Node1&#45;&gt;Node6 -->
<g id="edge5_Node000001_Node000006" class="edge">
<title>Node1&#45;&gt;Node6</title>
<g id="a_edge5_Node000001_Node000006"><a xlink:title=" ">
<path fill="none" stroke="#63b8ff" d="M419.55,-173.73C366.21,-171.34 226.44,-160.27 269.38,-110.5 303.95,-70.42 468.86,-65.74 538.85,-65.6"/>
<polygon fill="#63b8ff" stroke="#63b8ff" points="538.48,-69.1 548.48,-65.62 538.49,-62.1 538.48,-69.1"/>
</a>
</g>
</g>
<!-- Node7 -->
<g id="Node000007" class="node">
<title>Node7</title>
<g id="a_Node000007"><a xlink:title=" ">
<polygon fill="#e0e0e0" stroke="#999999" points="328.62,-129.75 278.12,-129.75 278.12,-110.5 328.62,-110.5 328.62,-129.75"/>
<text text-anchor="middle" x="303.38" y="-116.25" font-family="Helvetica,sans-Serif" font-size="10.00">numeric</text>
</a>
</g>
</g>
<!-- Node1&#45;&gt;Node7 -->
<g id="edge6_Node000001_Node000007" class="edge">
<title>Node1&#45;&gt;Node7</title>
<g id="a_edge6_Node000001_Node000007"><a xlink:title=" ">
<path fill="none" stroke="#63b8ff" d="M419.31,-166.52C397.58,-158.01 362.58,-144.31 336.72,-134.18"/>
<polygon fill="#63b8ff" stroke="#63b8ff" points="338.25,-131.02 327.66,-130.63 335.7,-137.54 338.25,-131.02"/>
</a>
</g>
</g>
<!-- Node8 -->
<g id="Node000008" class="node">
<title>Node8</title>
<g id="a_Node000008"><a xlink:title=" ">
<polygon fill="#e0e0e0" stroke="#999999" points="395.88,-129.75 346.88,-129.75 346.88,-110.5 395.88,-110.5 395.88,-129.75"/>
<text text-anchor="middle" x="371.38" y="-116.25" font-family="Helvetica,sans-Serif" font-size="10.00">fstream</text>
</a>
</g>
</g>
<!-- Node1&#45;&gt;Node8 -->
<g id="edge7_Node000001_Node000008" class="edge">
<title>Node1&#45;&gt;Node8</title>
<g id="a_edge7_Node000001_Node000008"><a xlink:title=" ">
<path fill="none" stroke="#63b8ff" d="M427.84,-165.34C417.91,-157.57 403.36,-146.17 391.52,-136.9"/>
<polygon fill="#63b8ff" stroke="#63b8ff" points="393.96,-134.37 383.93,-130.96 389.65,-139.88 393.96,-134.37"/>
</a>
</g>
</g>
<!-- Node9 -->
<g id="Node000009" class="node">
<title>Node9</title>
<g id="a_Node000009"><a xlink:title=" ">
<polygon fill="#e0e0e0" stroke="#999999" points="465,-129.75 413.75,-129.75 413.75,-110.5 465,-110.5 465,-129.75"/>
<text text-anchor="middle" x="439.38" y="-116.25" font-family="Helvetica,sans-Serif" font-size="10.00">sstream</text>
</a>
</g>
</g>
<!-- Node1&#45;&gt;Node9 -->
<g id="edge8_Node000001_Node000009" class="edge">
<title>Node1&#45;&gt;Node9</title>
<g id="a_edge8_Node000001_Node000009"><a xlink:title=" ">
<path fill="none" stroke="#63b8ff" d="M439.38,-165.58C439.38,-159.07 439.38,-149.92 439.38,-141.62"/>
<polygon fill="#63b8ff" stroke="#63b8ff" points="442.88,-141.62 439.38,-131.62 435.88,-141.62 442.88,-141.62"/>
</a>
</g>
</g>
<!-- Node10 -->
<g id="Node000010" class="node">
<title>Node10</title>
<g id="a_Node000010"><a xlink:title=" ">
<polygon fill="#e0e0e0" stroke="#999999" points="536.12,-129.75 482.62,-129.75 482.62,-110.5 536.12,-110.5 536.12,-129.75"/>
<text text-anchor="middle" x="509.38" y="-116.25" font-family="Helvetica,sans-Serif" font-size="10.00">iostream</text>
</a>
</g>
</g>
<!-- Node1&#45;&gt;Node10 -->
<g id="edge9_Node000001_Node000010" class="edge">
<title>Node1&#45;&gt;Node10</title>
<g id="a_edge9_Node000001_Node000010"><a xlink:title=" ">
<path fill="none" stroke="#63b8ff" d="M451.25,-165.34C461.47,-157.57 476.45,-146.17 488.64,-136.9"/>
<polygon fill="#63b8ff" stroke="#63b8ff" points="490.63,-139.78 496.47,-130.94 486.39,-134.21 490.63,-139.78"/>
</a>
</g>
</g>
<!-- Node11 -->
<g id="Node000011" class="node">
<title>Node11</title>
<g id="a_Node000011"><a xlink:title=" ">
<polygon fill="#e0e0e0" stroke="#999999" points="604.25,-129.75 554.5,-129.75 554.5,-110.5 604.25,-110.5 604.25,-129.75"/>
<text text-anchor="middle" x="579.38" y="-116.25" font-family="Helvetica,sans-Serif" font-size="10.00">optional</text>
</a>
</g>
</g>
<!-- Node1&#45;&gt;Node11 -->
<g id="edge10_Node000001_Node000011" class="edge">
<title>Node1&#45;&gt;Node11</title>
<g id="a_edge10_Node000001_Node000011"><a xlink:title=" ">
<path fill="none" stroke="#63b8ff" d="M459.43,-166.75C481.76,-158.25 518.23,-144.38 545.11,-134.16"/>
<polygon fill="#63b8ff" stroke="#63b8ff" points="546.09,-137.53 554.19,-130.7 543.6,-130.99 546.09,-137.53"/>
</a>
</g>
</g>
<!-- Node12 -->
<g id="Node000012" class="node">
<title>Node12</title>
<g id="a_Node000012"><a xlink:title=" ">
<polygon fill="#e0e0e0" stroke="#999999" points="678.25,-129.75 622.5,-129.75 622.5,-110.5 678.25,-110.5 678.25,-129.75"/>
<text text-anchor="middle" x="650.38" y="-116.25" font-family="Helvetica,sans-Serif" font-size="10.00">algorithm</text>
</a>
</g>
</g>
<!-- Node1&#45;&gt;Node12 -->
<g id="edge11_Node000001_Node000012" class="edge">
<title>Node1&#45;&gt;Node12</title>
<g id="a_edge11_Node000001_Node000012"><a xlink:title=" ">
<path fill="none" stroke="#63b8ff" d="M459.23,-169.37C493.86,-160.62 565.93,-142.44 611.01,-131.06"/>
<polygon fill="#63b8ff" stroke="#63b8ff" points="611.82,-134.47 620.66,-128.62 610.1,-127.68 611.82,-134.47"/>
</a>
</g>
</g>
<!-- Node13 -->
<g id="Node000013" class="node">
<title>Node13</title>
<g id="a_Node000013"><a xlink:title=" ">
<polygon fill="#e0e0e0" stroke="#999999" points="778.75,-129.75 696,-129.75 696,-110.5 778.75,-110.5 778.75,-129.75"/>
<text text-anchor="middle" x="737.38" y="-116.25" font-family="Helvetica,sans-Serif" font-size="10.00">unordered_map</text>
</a>
</g>
</g>
<!-- Node1&#45;&gt;Node13 -->
<g id="edge12_Node000001_Node000013" class="edge">
<title>Node1&#45;&gt;Node13</title>
<g id="a_edge12_Node000001_Node000013"><a xlink:title=" ">
<path fill="none" stroke="#63b8ff" d="M459.39,-170.8C504.91,-162.66 617.43,-142.56 684.54,-130.57"/>
<polygon fill="#63b8ff" stroke="#63b8ff" points="684.98,-134.04 694.21,-128.84 683.75,-127.15 684.98,-134.04"/>
</a>
</g>
</g>
<!-- Node14 -->
<g id="Node000014" class="node">
<title>Node14</title>
<g id="a_Node000014"><a xlink:title=" ">
<polygon fill="#e0e0e0" stroke="#999999" points="897.75,-129.75 797,-129.75 797,-110.5 897.75,-110.5 897.75,-129.75"/>
<text text-anchor="middle" x="847.38" y="-116.25" font-family="Helvetica,sans-Serif" font-size="10.00">boost/log/trivial.hpp</text>
</a>
</g>
</g>
<!-- Node1&#45;&gt;Node14 -->
<g id="edge13_Node000001_Node000014" class="edge">
<title>Node1&#45;&gt;Node14</title>
<g id="a_edge13_Node000001_Node000014"><a xlink:title=" ">
<path fill="none" stroke="#63b8ff" d="M459.4,-171.92C511.28,-165.52 654.61,-147.71 785.63,-129.97"/>
<polygon fill="#63b8ff" stroke="#63b8ff" points="785.71,-133.49 795.14,-128.68 784.76,-126.55 785.71,-133.49"/>
</a>
</g>
</g>
<!-- Node15 -->
<g id="Node000015" class="node">
<title>Node15</title>
<g id="a_Node000015"><a xlink:href="_tcp_ip_id_8h_source.html" target="_top" xlink:title=" ">
<polygon fill="white" stroke="#666666" points="972.62,-129.75 916.12,-129.75 916.12,-110.5 972.62,-110.5 972.62,-129.75"/>
<text text-anchor="middle" x="944.38" y="-116.25" font-family="Helvetica,sans-Serif" font-size="10.00">TcpIpId.h</text>
</a>
</g>
</g>
<!-- Node1&#45;&gt;Node15 -->
<g id="edge14_Node000001_Node000015" class="edge">
<title>Node1&#45;&gt;Node15</title>
<g id="a_edge14_Node000001_Node000015"><a xlink:title=" ">
<path fill="none" stroke="#63b8ff" d="M459.06,-173.4C522.25,-170.07 725.71,-157.9 904.61,-129.8"/>
<polygon fill="#63b8ff" stroke="#63b8ff" points="905,-133.29 914.32,-128.26 903.9,-126.37 905,-133.29"/>
</a>
</g>
</g>
<!-- Node18 -->
<g id="Node000018" class="node">
<title>Node18</title>
<g id="a_Node000018"><a xlink:href="_aggregation_type_8h_source.html" target="_top" xlink:title=" ">
<polygon fill="white" stroke="#666666" points="1087.88,-129.75 990.88,-129.75 990.88,-110.5 1087.88,-110.5 1087.88,-129.75"/>
<text text-anchor="middle" x="1039.38" y="-116.25" font-family="Helvetica,sans-Serif" font-size="10.00">AggregationType.h</text>
</a>
</g>
</g>
<!-- Node1&#45;&gt;Node18 -->
<g id="edge18_Node000001_Node000018" class="edge">
<title>Node1&#45;&gt;Node18</title>
<g id="a_edge18_Node000001_Node000018"><a xlink:title=" ">
<path fill="none" stroke="#63b8ff" d="M459.11,-173.22C528.68,-169.04 769.18,-153.79 979.42,-129.89"/>
<polygon fill="#63b8ff" stroke="#63b8ff" points="979.63,-133.39 989.17,-128.78 978.83,-126.44 979.63,-133.39"/>
</a>
</g>
</g>
<!-- Node15&#45;&gt;Node6 -->
<g id="edge15_Node000015_Node000006" class="edge">
<title>Node15&#45;&gt;Node6</title>
<g id="a_edge15_Node000015_Node000006"><a xlink:title=" ">
<path fill="none" stroke="#63b8ff" d="M915.8,-112.35C912.63,-111.68 909.44,-111.05 906.38,-110.5 795.02,-90.51 661.42,-75.38 601.79,-69.08"/>
<polygon fill="#63b8ff" stroke="#63b8ff" points="602.36,-65.62 592.05,-68.06 601.63,-72.58 602.36,-65.62"/>
</a>
</g>
</g>
<!-- Node16 -->
<g id="Node000016" class="node">
<title>Node16</title>
<g id="a_Node000016"><a xlink:href="_id_8h_source.html" target="_top" xlink:title=" ">
<polygon fill="white" stroke="#666666" points="960.62,-74.5 928.12,-74.5 928.12,-55.25 960.62,-55.25 960.62,-74.5"/>
<text text-anchor="middle" x="944.38" y="-61" font-family="Helvetica,sans-Serif" font-size="10.00">Id.h</text>
</a>
</g>
</g>
<!-- Node15&#45;&gt;Node16 -->
<g id="edge16_Node000015_Node000016" class="edge">
<title>Node15&#45;&gt;Node16</title>
<g id="a_edge16_Node000015_Node000016"><a xlink:title=" ">
<path fill="none" stroke="#63b8ff" d="M944.38,-110.33C944.38,-103.82 944.38,-94.67 944.38,-86.37"/>
<polygon fill="#63b8ff" stroke="#63b8ff" points="947.88,-86.37 944.38,-76.37 940.88,-86.37 947.88,-86.37"/>
</a>
</g>
</g>
<!-- Node17 -->
<g id="Node000017" class="node">
<title>Node17</title>
<g id="a_Node000017"><a xlink:title=" ">
<polygon fill="#e0e0e0" stroke="#999999" points="970,-19.25 918.75,-19.25 918.75,0 970,0 970,-19.25"/>
<text text-anchor="middle" x="944.38" y="-5.75" font-family="Helvetica,sans-Serif" font-size="10.00">ostream</text>
</a>
</g>
</g>
<!-- Node16&#45;&gt;Node17 -->
<g id="edge17_Node000016_Node000017" class="edge">
<title>Node16&#45;&gt;Node17</title>
<g id="a_edge17_Node000016_Node000017"><a xlink:title=" ">
<path fill="none" stroke="#63b8ff" d="M944.38,-55.08C944.38,-48.57 944.38,-39.42 944.38,-31.12"/>
<polygon fill="#63b8ff" stroke="#63b8ff" points="947.88,-31.12 944.38,-21.12 940.88,-31.12 947.88,-31.12"/>
</a>
</g>
</g>
</g>
</svg>
