<?xml version="1.0" encoding="UTF-8" standalone="no"?>
<!DOCTYPE svg PUBLIC "-//W3C//DTD SVG 1.1//EN"
 "http://www.w3.org/Graphics/SVG/1.1/DTD/svg11.dtd">
<!-- Generated by graphviz version 12.2.1 (20241206.2353)
 -->
<!-- Title: Util.h Pages: 1 -->
<svg width="742pt" height="359pt"
 viewBox="0.00 0.00 741.88 358.75" xmlns="http://www.w3.org/2000/svg" xmlns:xlink="http://www.w3.org/1999/xlink">
<g id="graph0" class="graph" transform="scale(1 1) rotate(0) translate(4 354.75)">
<title>Util.h</title>
<!-- Node1 -->
<g id="Node000001" class="node">
<title>Node1</title>
<g id="a_Node000001"><a xlink:title="Various helper functions needed by MoDD.">
<polygon fill="#999999" stroke="#666666" points="378.62,-350.75 339.38,-350.75 339.38,-331.5 378.62,-331.5 378.62,-350.75"/>
<text text-anchor="middle" x="359" y="-337.25" font-family="Helvetica,sans-Serif" font-size="10.00">Util.h</text>
</a>
</g>
</g>
<!-- Node2 -->
<g id="Node000002" class="node">
<title>Node2</title>
<g id="a_Node000002"><a xlink:href="_delivered_measure_8h_source.html" target="_top" xlink:title=" ">
<polygon fill="white" stroke="#666666" points="359.5,-295.5 256.5,-295.5 256.5,-276.25 359.5,-276.25 359.5,-295.5"/>
<text text-anchor="middle" x="308" y="-282" font-family="Helvetica,sans-Serif" font-size="10.00">DeliveredMeasure.h</text>
</a>
</g>
</g>
<!-- Node1&#45;&gt;Node2 -->
<g id="edge1_Node000001_Node000002" class="edge">
<title>Node1&#45;&gt;Node2</title>
<g id="a_edge1_Node000001_Node000002"><a xlink:title=" ">
<path fill="none" stroke="#63b8ff" d="M342.64,-323.04C333.98,-314 323.7,-303.27 316.6,-295.86"/>
<polygon fill="#63b8ff" stroke="#63b8ff" points="340.09,-325.44 349.53,-330.24 345.14,-320.6 340.09,-325.44"/>
</a>
</g>
</g>
<!-- Node9 -->
<g id="Node000009" class="node">
<title>Node9</title>
<g id="a_Node000009"><a xlink:href="_pub_broker_8h_source.html" target="_top" xlink:title=" ">
<polygon fill="white" stroke="#666666" points="206,-74.5 136,-74.5 136,-55.25 206,-55.25 206,-74.5"/>
<text text-anchor="middle" x="171" y="-61" font-family="Helvetica,sans-Serif" font-size="10.00">PubBroker.h</text>
</a>
</g>
</g>
<!-- Node1&#45;&gt;Node9 -->
<g id="edge23_Node000001_Node000009" class="edge">
<title>Node1&#45;&gt;Node9</title>
<g id="a_edge23_Node000001_Node000009"><a xlink:title=" ">
<path fill="none" stroke="#63b8ff" d="M327.82,-339.19C268.24,-336.68 141.77,-327.61 115,-295.5 57.46,-226.48 139.35,-107.5 164.22,-74.55"/>
<polygon fill="#63b8ff" stroke="#63b8ff" points="327.49,-342.68 337.61,-339.56 327.75,-335.69 327.49,-342.68"/>
</a>
</g>
</g>
<!-- Node15 -->
<g id="Node000015" class="node">
<title>Node15</title>
<g id="a_Node000015"><a xlink:href="_message_type_8h_source.html" target="_top" xlink:title=" ">
<polygon fill="white" stroke="#666666" points="545.5,-295.5 460.5,-295.5 460.5,-276.25 545.5,-276.25 545.5,-295.5"/>
<text text-anchor="middle" x="503" y="-282" font-family="Helvetica,sans-Serif" font-size="10.00">MessageType.h</text>
</a>
</g>
</g>
<!-- Node1&#45;&gt;Node15 -->
<g id="edge20_Node000001_Node000015" class="edge">
<title>Node1&#45;&gt;Node15</title>
<g id="a_edge20_Node000001_Node000015"><a xlink:title=" ">
<path fill="none" stroke="#63b8ff" d="M389.59,-328.81C416.04,-319.03 453.77,-305.08 478.33,-296"/>
<polygon fill="#63b8ff" stroke="#63b8ff" points="388.61,-325.44 380.44,-332.2 391.04,-332.01 388.61,-325.44"/>
</a>
</g>
</g>
<!-- Node16 -->
<g id="Node000016" class="node">
<title>Node16</title>
<g id="a_Node000016"><a xlink:href="_published_measure_8h_source.html" target="_top" xlink:title=" ">
<polygon fill="white" stroke="#666666" points="228.25,-295.5 123.75,-295.5 123.75,-276.25 228.25,-276.25 228.25,-295.5"/>
<text text-anchor="middle" x="176" y="-282" font-family="Helvetica,sans-Serif" font-size="10.00">PublishedMeasure.h</text>
</a>
</g>
</g>
<!-- Node1&#45;&gt;Node16 -->
<g id="edge24_Node000001_Node000016" class="edge">
<title>Node1&#45;&gt;Node16</title>
<g id="a_edge24_Node000001_Node000016"><a xlink:title=" ">
<path fill="none" stroke="#63b8ff" d="M328.06,-331.12C294.41,-321.33 240.93,-305.77 207.19,-295.95"/>
<polygon fill="#63b8ff" stroke="#63b8ff" points="327.03,-334.47 337.61,-333.9 328.99,-327.75 327.03,-334.47"/>
</a>
</g>
</g>
<!-- Node17 -->
<g id="Node000017" class="node">
<title>Node17</title>
<g id="a_Node000017"><a xlink:href="_schedule_8h_source.html" target="_top" xlink:title=" ">
<polygon fill="white" stroke="#666666" points="442.38,-295.5 377.62,-295.5 377.62,-276.25 442.38,-276.25 442.38,-295.5"/>
<text text-anchor="middle" x="410" y="-282" font-family="Helvetica,sans-Serif" font-size="10.00">Schedule.h</text>
</a>
</g>
</g>
<!-- Node1&#45;&gt;Node17 -->
<g id="edge30_Node000001_Node000017" class="edge">
<title>Node1&#45;&gt;Node17</title>
<g id="a_edge30_Node000001_Node000017"><a xlink:title=" ">
<path fill="none" stroke="#63b8ff" d="M375.36,-323.04C384.02,-314 394.3,-303.27 401.4,-295.86"/>
<polygon fill="#63b8ff" stroke="#63b8ff" points="372.86,-320.6 368.47,-330.24 377.91,-325.44 372.86,-320.6"/>
</a>
</g>
</g>
<!-- Node18 -->
<g id="Node000018" class="node">
<title>Node18</title>
<g id="a_Node000018"><a xlink:href="_subscription_8h_source.html" target="_top" xlink:title=" ">
<polygon fill="white" stroke="#666666" points="642.12,-295.5 563.88,-295.5 563.88,-276.25 642.12,-276.25 642.12,-295.5"/>
<text text-anchor="middle" x="603" y="-282" font-family="Helvetica,sans-Serif" font-size="10.00">Subscription.h</text>
</a>
</g>
</g>
<!-- Node1&#45;&gt;Node18 -->
<g id="edge32_Node000001_Node000018" class="edge">
<title>Node1&#45;&gt;Node18</title>
<g id="a_edge32_Node000001_Node000018"><a xlink:title=" ">
<path fill="none" stroke="#63b8ff" d="M390.15,-333.33C434.38,-323.67 515.36,-306 563.67,-295.46"/>
<polygon fill="#63b8ff" stroke="#63b8ff" points="389.47,-329.89 380.45,-335.44 390.96,-336.73 389.47,-329.89"/>
</a>
</g>
</g>
<!-- Node3 -->
<g id="Node000003" class="node">
<title>Node3</title>
<g id="a_Node000003"><a xlink:href="_message_8h_source.html" target="_top" xlink:title=" ">
<polygon fill="white" stroke="#666666" points="518,-240.25 454,-240.25 454,-221 518,-221 518,-240.25"/>
<text text-anchor="middle" x="486" y="-226.75" font-family="Helvetica,sans-Serif" font-size="10.00">Message.h</text>
</a>
</g>
</g>
<!-- Node2&#45;&gt;Node3 -->
<g id="edge2_Node000002_Node000003" class="edge">
<title>Node2&#45;&gt;Node3</title>
<g id="a_edge2_Node000002_Node000003"><a xlink:title=" ">
<path fill="none" stroke="#63b8ff" d="M349.15,-272.57C381.67,-262.84 426.33,-249.48 455.66,-240.7"/>
<polygon fill="#63b8ff" stroke="#63b8ff" points="348.22,-269.19 339.65,-275.41 350.23,-275.9 348.22,-269.19"/>
</a>
</g>
</g>
<!-- Node2&#45;&gt;Node9 -->
<g id="edge16_Node000002_Node000009" class="edge">
<title>Node2&#45;&gt;Node9</title>
<g id="a_edge16_Node000002_Node000009"><a xlink:title=" ">
<path fill="none" stroke="#63b8ff" d="M298.32,-265.88C285.98,-242.05 263.65,-200.14 242,-165.75 220.23,-131.19 191.18,-92.29 178.01,-75"/>
<polygon fill="#63b8ff" stroke="#63b8ff" points="295.15,-267.37 302.83,-274.67 301.38,-264.17 295.15,-267.37"/>
</a>
</g>
</g>
<!-- Node10 -->
<g id="Node000010" class="node">
<title>Node10</title>
<g id="a_Node000010"><a xlink:href="_sub_broker_8h_source.html" target="_top" xlink:title=" ">
<polygon fill="white" stroke="#666666" points="316,-74.5 246,-74.5 246,-55.25 316,-55.25 316,-74.5"/>
<text text-anchor="middle" x="281" y="-61" font-family="Helvetica,sans-Serif" font-size="10.00">SubBroker.h</text>
</a>
</g>
</g>
<!-- Node2&#45;&gt;Node10 -->
<g id="edge17_Node000002_Node000010" class="edge">
<title>Node2&#45;&gt;Node10</title>
<g id="a_edge17_Node000002_Node000010"><a xlink:title=" ">
<path fill="none" stroke="#63b8ff" d="M321.06,-266.64C342.95,-233.61 381.95,-162.51 353,-110.5 343.41,-93.28 324.14,-81.86 307.94,-74.89"/>
<polygon fill="#63b8ff" stroke="#63b8ff" points="318.29,-264.48 315.51,-274.7 324.06,-268.44 318.29,-264.48"/>
</a>
</g>
</g>
<!-- Node13 -->
<g id="Node000013" class="node">
<title>Node13</title>
<g id="a_Node000013"><a xlink:href="_topic_pub_broker_8h_source.html" target="_top" xlink:title=" ">
<polygon fill="white" stroke="#666666" points="122.62,-19.25 29.38,-19.25 29.38,0 122.62,0 122.62,-19.25"/>
<text text-anchor="middle" x="76" y="-5.75" font-family="Helvetica,sans-Serif" font-size="10.00">TopicPubBroker.h</text>
</a>
</g>
</g>
<!-- Node2&#45;&gt;Node13 -->
<g id="edge18_Node000002_Node000013" class="edge">
<title>Node2&#45;&gt;Node13</title>
<g id="a_edge18_Node000002_Node000013"><a xlink:title=" ">
<path fill="none" stroke="#63b8ff" d="M292.54,-267.35C260.99,-231.49 187.12,-147.03 127,-74.5 110.88,-55.05 92.52,-31.77 82.83,-19.38"/>
<polygon fill="#63b8ff" stroke="#63b8ff" points="289.7,-269.42 298.94,-274.61 294.96,-264.8 289.7,-269.42"/>
</a>
</g>
</g>
<!-- Node14 -->
<g id="Node000014" class="node">
<title>Node14</title>
<g id="a_Node000014"><a xlink:href="_topic_sub_broker_8h_source.html" target="_top" xlink:title=" ">
<polygon fill="white" stroke="#666666" points="404.62,-19.25 311.38,-19.25 311.38,0 404.62,0 404.62,-19.25"/>
<text text-anchor="middle" x="358" y="-5.75" font-family="Helvetica,sans-Serif" font-size="10.00">TopicSubBroker.h</text>
</a>
</g>
</g>
<!-- Node2&#45;&gt;Node14 -->
<g id="edge19_Node000002_Node000014" class="edge">
<title>Node2&#45;&gt;Node14</title>
<g id="a_edge19_Node000002_Node000014"><a xlink:title=" ">
<path fill="none" stroke="#63b8ff" d="M336.35,-270.34C366.54,-252.61 410,-219.58 410,-176.38 410,-176.38 410,-176.38 410,-119.12 410,-89.51 404.23,-81.75 391,-55.25 384.29,-41.8 373.5,-28.17 366.1,-19.58"/>
<polygon fill="#63b8ff" stroke="#63b8ff" points="335.03,-267.07 328.03,-275.02 338.46,-273.17 335.03,-267.07"/>
</a>
</g>
</g>
<!-- Node4 -->
<g id="Node000004" class="node">
<title>Node4</title>
<g id="a_Node000004"><a xlink:href="_tcp_client_8h_source.html" target="_top" xlink:title=" ">
<polygon fill="white" stroke="#666666" points="627.75,-185 562.25,-185 562.25,-165.75 627.75,-165.75 627.75,-185"/>
<text text-anchor="middle" x="595" y="-171.5" font-family="Helvetica,sans-Serif" font-size="10.00">TcpClient.h</text>
</a>
</g>
</g>
<!-- Node3&#45;&gt;Node4 -->
<g id="edge3_Node000003_Node000004" class="edge">
<title>Node3&#45;&gt;Node4</title>
<g id="a_edge3_Node000003_Node000004"><a xlink:title=" ">
<path fill="none" stroke="#63b8ff" d="M514.66,-215.62C534.19,-206.08 559.48,-193.73 576.42,-185.45"/>
<polygon fill="#63b8ff" stroke="#63b8ff" points="513.3,-212.39 505.85,-219.93 516.37,-218.68 513.3,-212.39"/>
</a>
</g>
</g>
<!-- Node7 -->
<g id="Node000007" class="node">
<title>Node7</title>
<g id="a_Node000007"><a xlink:href="_tcp_server_8h_source.html" target="_top" xlink:title=" ">
<polygon fill="white" stroke="#666666" points="506.25,-185 437.75,-185 437.75,-165.75 506.25,-165.75 506.25,-185"/>
<text text-anchor="middle" x="472" y="-171.5" font-family="Helvetica,sans-Serif" font-size="10.00">TcpServer.h</text>
</a>
</g>
</g>
<!-- Node3&#45;&gt;Node7 -->
<g id="edge6_Node000003_Node000007" class="edge">
<title>Node3&#45;&gt;Node7</title>
<g id="a_edge6_Node000003_Node000007"><a xlink:title=" ">
<path fill="none" stroke="#63b8ff" d="M480.83,-209.96C478.61,-201.52 476.13,-192.08 474.36,-185.36"/>
<polygon fill="#63b8ff" stroke="#63b8ff" points="477.38,-210.59 483.3,-219.37 484.15,-208.81 477.38,-210.59"/>
</a>
</g>
</g>
<!-- Node11 -->
<g id="Node000011" class="node">
<title>Node11</title>
<g id="a_Node000011"><a xlink:href="_tcp_session_8h_source.html" target="_top" xlink:title=" ">
<polygon fill="white" stroke="#666666" points="513.62,-129.75 438.38,-129.75 438.38,-110.5 513.62,-110.5 513.62,-129.75"/>
<text text-anchor="middle" x="476" y="-116.25" font-family="Helvetica,sans-Serif" font-size="10.00">TcpSession.h</text>
</a>
</g>
</g>
<!-- Node3&#45;&gt;Node11 -->
<g id="edge15_Node000003_Node000011" class="edge">
<title>Node3&#45;&gt;Node11</title>
<g id="a_edge15_Node000003_Node000011"><a xlink:title=" ">
<path fill="none" stroke="#63b8ff" d="M502.11,-212.07C511.72,-199.38 521,-181.74 515,-165.75 509.5,-151.11 496.79,-138.12 487.36,-129.99"/>
<polygon fill="#63b8ff" stroke="#63b8ff" points="499.61,-209.6 495.9,-219.53 504.99,-214.08 499.61,-209.6"/>
</a>
</g>
</g>
<!-- Node5 -->
<g id="Node000005" class="node">
<title>Node5</title>
<g id="a_Node000005"><a xlink:href="_publisher_core_8h_source.html" target="_top" xlink:title=" ">
<polygon fill="white" stroke="#666666" points="623.88,-129.75 538.12,-129.75 538.12,-110.5 623.88,-110.5 623.88,-129.75"/>
<text text-anchor="middle" x="581" y="-116.25" font-family="Helvetica,sans-Serif" font-size="10.00">PublisherCore.h</text>
</a>
</g>
</g>
<!-- Node4&#45;&gt;Node5 -->
<g id="edge4_Node000004_Node000005" class="edge">
<title>Node4&#45;&gt;Node5</title>
<g id="a_edge4_Node000004_Node000005"><a xlink:title=" ">
<path fill="none" stroke="#63b8ff" d="M589.83,-154.71C587.61,-146.27 585.13,-136.83 583.36,-130.11"/>
<polygon fill="#63b8ff" stroke="#63b8ff" points="586.38,-155.34 592.3,-164.12 593.15,-153.56 586.38,-155.34"/>
</a>
</g>
</g>
<!-- Node6 -->
<g id="Node000006" class="node">
<title>Node6</title>
<g id="a_Node000006"><a xlink:href="_subscriber_core_8h_source.html" target="_top" xlink:title=" ">
<polygon fill="white" stroke="#666666" points="733.88,-129.75 642.12,-129.75 642.12,-110.5 733.88,-110.5 733.88,-129.75"/>
<text text-anchor="middle" x="688" y="-116.25" font-family="Helvetica,sans-Serif" font-size="10.00">SubscriberCore.h</text>
</a>
</g>
</g>
<!-- Node4&#45;&gt;Node6 -->
<g id="edge5_Node000004_Node000006" class="edge">
<title>Node4&#45;&gt;Node6</title>
<g id="a_edge5_Node000004_Node000006"><a xlink:title=" ">
<path fill="none" stroke="#63b8ff" d="M620.38,-159.84C636.91,-150.38 657.96,-138.33 672.15,-130.2"/>
<polygon fill="#63b8ff" stroke="#63b8ff" points="619.03,-156.58 612.09,-164.59 622.51,-162.66 619.03,-156.58"/>
</a>
</g>
</g>
<!-- Node8 -->
<g id="Node000008" class="node">
<title>Node8</title>
<g id="a_Node000008"><a xlink:href="_peer_tcp_server_8h_source.html" target="_top" xlink:title=" ">
<polygon fill="white" stroke="#666666" points="344.38,-129.75 255.62,-129.75 255.62,-110.5 344.38,-110.5 344.38,-129.75"/>
<text text-anchor="middle" x="300" y="-116.25" font-family="Helvetica,sans-Serif" font-size="10.00">PeerTcpServer.h</text>
</a>
</g>
</g>
<!-- Node7&#45;&gt;Node8 -->
<g id="edge7_Node000007_Node000008" class="edge">
<title>Node7&#45;&gt;Node8</title>
<g id="a_edge7_Node000007_Node000008"><a xlink:title=" ">
<path fill="none" stroke="#63b8ff" d="M431.83,-161.94C400.44,-152.22 357.54,-138.94 329.32,-130.2"/>
<polygon fill="#63b8ff" stroke="#63b8ff" points="430.79,-165.28 441.38,-164.89 432.86,-158.59 430.79,-165.28"/>
</a>
</g>
</g>
<!-- Node7&#45;&gt;Node11 -->
<g id="edge10_Node000007_Node000011" class="edge">
<title>Node7&#45;&gt;Node11</title>
<g id="a_edge10_Node000007_Node000011"><a xlink:title=" ">
<path fill="none" stroke="#63b8ff" d="M466.95,-154.13C467.11,-145.84 468.25,-136.67 470.12,-130.11"/>
<polygon fill="#63b8ff" stroke="#63b8ff" points="463.45,-154.25 467.42,-164.07 470.44,-153.91 463.45,-154.25"/>
</a>
</g>
</g>
<!-- Node8&#45;&gt;Node9 -->
<g id="edge8_Node000008_Node000009" class="edge">
<title>Node8&#45;&gt;Node9</title>
<g id="a_edge8_Node000008_Node000009"><a xlink:title=" ">
<path fill="none" stroke="#63b8ff" d="M267.68,-105.78C244.36,-96.16 213.5,-83.42 192.99,-74.95"/>
<polygon fill="#63b8ff" stroke="#63b8ff" points="266.14,-108.93 276.72,-109.51 268.81,-102.46 266.14,-108.93"/>
</a>
</g>
</g>
<!-- Node8&#45;&gt;Node10 -->
<g id="edge9_Node000008_Node000010" class="edge">
<title>Node8&#45;&gt;Node10</title>
<g id="a_edge9_Node000008_Node000010"><a xlink:title=" ">
<path fill="none" stroke="#63b8ff" d="M293.09,-99.75C290.05,-91.24 286.63,-81.65 284.21,-74.86"/>
<polygon fill="#63b8ff" stroke="#63b8ff" points="289.7,-100.66 296.35,-108.91 296.29,-98.31 289.7,-100.66"/>
</a>
</g>
</g>
<!-- Node11&#45;&gt;Node7 -->
<g id="edge11_Node000011_Node000007" class="edge">
<title>Node11&#45;&gt;Node7</title>
<g id="a_edge11_Node000011_Node000007"><a xlink:title=" ">
<path fill="none" stroke="#63b8ff" d="M481.05,-141.32C480.9,-149.71 479.73,-158.99 477.83,-165.58"/>
<polygon fill="#63b8ff" stroke="#63b8ff" points="484.56,-141.45 480.6,-131.62 477.57,-141.77 484.56,-141.45"/>
</a>
</g>
</g>
<!-- Node12 -->
<g id="Node000012" class="node">
<title>Node12</title>
<g id="a_Node000012"><a xlink:href="_topic_8h_source.html" target="_top" xlink:title=" ">
<polygon fill="white" stroke="#666666" points="381.75,-74.5 334.25,-74.5 334.25,-55.25 381.75,-55.25 381.75,-74.5"/>
<text text-anchor="middle" x="358" y="-61" font-family="Helvetica,sans-Serif" font-size="10.00">Topic.h</text>
</a>
</g>
</g>
<!-- Node11&#45;&gt;Node12 -->
<g id="edge12_Node000011_Node000012" class="edge">
<title>Node11&#45;&gt;Node12</title>
<g id="a_edge12_Node000011_Node000012"><a xlink:title=" ">
<path fill="none" stroke="#63b8ff" d="M445.56,-105.39C424.34,-95.81 396.63,-83.31 378.12,-74.95"/>
<polygon fill="#63b8ff" stroke="#63b8ff" points="444.05,-108.55 454.6,-109.47 446.93,-102.17 444.05,-108.55"/>
</a>
</g>
</g>
<!-- Node12&#45;&gt;Node13 -->
<g id="edge13_Node000012_Node000013" class="edge">
<title>Node12&#45;&gt;Node13</title>
<g id="a_edge13_Node000012_Node000013"><a xlink:title=" ">
<path fill="none" stroke="#63b8ff" d="M322.8,-54.91C247.48,-38.58 170.9,-25.61 123.03,-17.93"/>
<polygon fill="#63b8ff" stroke="#63b8ff" points="321.91,-58.3 332.42,-57.02 323.4,-51.46 321.91,-58.3"/>
</a>
</g>
</g>
<!-- Node12&#45;&gt;Node14 -->
<g id="edge14_Node000012_Node000014" class="edge">
<title>Node12&#45;&gt;Node14</title>
<g id="a_edge14_Node000012_Node000014"><a xlink:title=" ">
<path fill="none" stroke="#63b8ff" d="M358,-43.63C358,-35.34 358,-26.17 358,-19.61"/>
<polygon fill="#63b8ff" stroke="#63b8ff" points="354.5,-43.57 358,-53.57 361.5,-43.57 354.5,-43.57"/>
</a>
</g>
</g>
<!-- Node15&#45;&gt;Node3 -->
<g id="edge21_Node000015_Node000003" class="edge">
<title>Node15&#45;&gt;Node3</title>
<g id="a_edge21_Node000015_Node000003"><a xlink:title=" ">
<path fill="none" stroke="#63b8ff" d="M496.72,-265.21C494.03,-256.77 491.01,-247.33 488.87,-240.61"/>
<polygon fill="#63b8ff" stroke="#63b8ff" points="493.36,-266.18 499.73,-274.64 500.03,-264.05 493.36,-266.18"/>
</a>
</g>
</g>
<!-- Node15&#45;&gt;Node6 -->
<g id="edge22_Node000015_Node000006" class="edge">
<title>Node15&#45;&gt;Node6</title>
<g id="a_edge22_Node000015_Node000006"><a xlink:title=" ">
<path fill="none" stroke="#63b8ff" d="M527.03,-269.7C555.02,-251.44 601.89,-218.96 637,-185 655.36,-167.24 673.11,-142.88 682.04,-129.98"/>
<polygon fill="#63b8ff" stroke="#63b8ff" points="525.41,-266.59 518.9,-274.95 529.2,-272.47 525.41,-266.59"/>
</a>
</g>
</g>
<!-- Node16&#45;&gt;Node3 -->
<g id="edge25_Node000016_Node000003" class="edge">
<title>Node16&#45;&gt;Node3</title>
<g id="a_edge25_Node000016_Node000003"><a xlink:title=" ">
<path fill="none" stroke="#63b8ff" d="M239.93,-273.89C304.99,-262.72 403.22,-245.84 453.63,-237.19"/>
<polygon fill="#63b8ff" stroke="#63b8ff" points="239.34,-270.44 230.08,-275.59 240.53,-277.34 239.34,-270.44"/>
</a>
</g>
</g>
<!-- Node16&#45;&gt;Node9 -->
<g id="edge26_Node000016_Node000009" class="edge">
<title>Node16&#45;&gt;Node9</title>
<g id="a_edge26_Node000016_Node000009"><a xlink:title=" ">
<path fill="none" stroke="#63b8ff" d="M175.54,-264.61C174.48,-218.38 171.93,-106.65 171.2,-74.6"/>
<polygon fill="#63b8ff" stroke="#63b8ff" points="172.04,-264.59 175.76,-274.51 179.03,-264.43 172.04,-264.59"/>
</a>
</g>
</g>
<!-- Node16&#45;&gt;Node10 -->
<g id="edge27_Node000016_Node000010" class="edge">
<title>Node16&#45;&gt;Node10</title>
<g id="a_edge27_Node000016_Node000010"><a xlink:title=" ">
<path fill="none" stroke="#63b8ff" d="M182.22,-264.85C192.98,-231.58 216.82,-163.35 247,-110.5 254.53,-97.31 265.51,-83.62 272.94,-74.94"/>
<polygon fill="#63b8ff" stroke="#63b8ff" points="178.9,-263.75 179.21,-274.34 185.57,-265.86 178.9,-263.75"/>
</a>
</g>
</g>
<!-- Node16&#45;&gt;Node13 -->
<g id="edge28_Node000016_Node000013" class="edge">
<title>Node16&#45;&gt;Node13</title>
<g id="a_edge28_Node000016_Node000013"><a xlink:title=" ">
<path fill="none" stroke="#63b8ff" d="M112.13,-279.26C82.15,-273.61 47.86,-262.41 24,-240.25 1.78,-219.61 0,-206.7 0,-176.38 0,-176.38 0,-176.38 0,-119.12 0,-88.8 6.61,-80.1 24,-55.25 34.23,-40.63 50.32,-27.82 61.9,-19.72"/>
<polygon fill="#63b8ff" stroke="#63b8ff" points="111.44,-282.69 121.88,-280.91 112.61,-275.79 111.44,-282.69"/>
</a>
</g>
</g>
<!-- Node16&#45;&gt;Node14 -->
<g id="edge29_Node000016_Node000014" class="edge">
<title>Node16&#45;&gt;Node14</title>
<g id="a_edge29_Node000016_Node000014"><a xlink:title=" ">
<path fill="none" stroke="#63b8ff" d="M134.29,-271.87C93.67,-256.3 38,-225.93 38,-176.38 38,-176.38 38,-176.38 38,-119.12 38,-70.44 82.28,-74.51 127,-55.25 187.4,-29.24 263.19,-18.29 311.13,-13.75"/>
<polygon fill="#63b8ff" stroke="#63b8ff" points="133.01,-275.13 143.61,-275.27 135.41,-268.56 133.01,-275.13"/>
</a>
</g>
</g>
<!-- Node17&#45;&gt;Node3 -->
<g id="edge31_Node000017_Node000003" class="edge">
<title>Node17&#45;&gt;Node3</title>
<g id="a_edge31_Node000017_Node000003"><a xlink:title=" ">
<path fill="none" stroke="#63b8ff" d="M432.29,-269.26C445.54,-259.97 461.89,-248.52 473.04,-240.7"/>
<polygon fill="#63b8ff" stroke="#63b8ff" points="430.31,-266.37 424.13,-274.97 434.33,-272.1 430.31,-266.37"/>
</a>
</g>
</g>
<!-- Node18&#45;&gt;Node3 -->
<g id="edge33_Node000018_Node000003" class="edge">
<title>Node18&#45;&gt;Node3</title>
<g id="a_edge33_Node000018_Node000003"><a xlink:title=" ">
<path fill="none" stroke="#63b8ff" d="M572.82,-271.14C551.78,-261.56 524.3,-249.06 505.94,-240.7"/>
<polygon fill="#63b8ff" stroke="#63b8ff" points="571.22,-274.26 581.77,-275.21 574.12,-267.89 571.22,-274.26"/>
</a>
</g>
</g>
<!-- Node18&#45;&gt;Node6 -->
<g id="edge34_Node000018_Node000006" class="edge">
<title>Node18&#45;&gt;Node6</title>
<g id="a_edge34_Node000018_Node000006"><a xlink:title=" ">
<path fill="none" stroke="#63b8ff" d="M635.3,-270.64C648.1,-263.37 661.71,-253.28 670,-240.25 692.68,-204.6 690.77,-151.04 688.96,-130.03"/>
<polygon fill="#63b8ff" stroke="#63b8ff" points="633.91,-267.42 626.67,-275.16 637.16,-273.62 633.91,-267.42"/>
</a>
</g>
</g>
</g>
</svg>
