<?xml version="1.0" encoding="UTF-8" standalone="no"?>
<!DOCTYPE svg PUBLIC "-//W3C//DTD SVG 1.1//EN"
 "http://www.w3.org/Graphics/SVG/1.1/DTD/svg11.dtd">
<!-- Generated by graphviz version 12.2.1 (20241206.2353)
 -->
<!-- Title: TopicPubBroker Pages: 1 -->
<svg width="507pt" height="494pt"
 viewBox="0.00 0.00 506.61 493.75" xmlns="http://www.w3.org/2000/svg" xmlns:xlink="http://www.w3.org/1999/xlink">
<g id="graph0" class="graph" transform="scale(1 1) rotate(0) translate(4 489.75)">
<title>TopicPubBroker</title>
<!-- Node1 -->
<g id="Node000001" class="node">
<title>Node1</title>
<g id="a_Node000001"><a xlink:title="Class that handles messages for a specific topic at the PubBroker level.">
<polygon fill="#999999" stroke="#666666" points="382.38,-19.25 297.38,-19.25 297.38,0 382.38,0 382.38,-19.25"/>
<text text-anchor="middle" x="339.88" y="-5.75" font-family="Helvetica,sans-Serif" font-size="10.00">TopicPubBroker</text>
</a>
</g>
</g>
<!-- Node2 -->
<g id="Node000002" class="node">
<title>Node2</title>
<g id="a_Node000002"><a xlink:href="class_topic.html" target="_top" xlink:title="Class that defines a topic.">
<polygon fill="white" stroke="#666666" points="444.5,-135.88 405.25,-135.88 405.25,-116.62 444.5,-116.62 444.5,-135.88"/>
<text text-anchor="middle" x="424.88" y="-122.38" font-family="Helvetica,sans-Serif" font-size="10.00">Topic</text>
</a>
</g>
</g>
<!-- Node2&#45;&gt;Node1 -->
<g id="edge1_Node000001_Node000002" class="edge">
<title>Node2&#45;&gt;Node1</title>
<g id="a_edge1_Node000001_Node000002"><a xlink:title=" ">
<path fill="none" stroke="#63b8ff" d="M411.46,-107.16C393,-82.26 360.45,-38.37 346.51,-19.58"/>
<polygon fill="#63b8ff" stroke="#63b8ff" points="408.54,-109.09 417.3,-115.04 414.16,-104.92 408.54,-109.09"/>
</a>
</g>
</g>
<!-- Node3 -->
<g id="Node000003" class="node">
<title>Node3</title>
<g id="a_Node000003"><a xlink:title=" ">
<polygon fill="white" stroke="#666666" points="451.62,-269.38 392.12,-269.38 392.12,-250.12 451.62,-250.12 451.62,-269.38"/>
<text text-anchor="middle" x="421.88" y="-255.88" font-family="Helvetica,sans-Serif" font-size="10.00">std::string</text>
</a>
</g>
</g>
<!-- Node3&#45;&gt;Node2 -->
<g id="edge2_Node000002_Node000003" class="edge">
<title>Node3&#45;&gt;Node2</title>
<g id="a_edge2_Node000002_Node000003"><a xlink:title=" ">
<path fill="none" stroke="#9a32cd" stroke-dasharray="5,2" d="M432.84,-239.67C434.84,-235.45 436.66,-230.92 437.88,-226.5 444.9,-200.85 445.96,-192.85 440.88,-166.75 438.75,-155.86 433.62,-144.17 429.74,-136.36"/>
<polygon fill="#9a32cd" stroke="#9a32cd" points="429.77,-238 428.19,-248.47 435.96,-241.27 429.77,-238"/>
</a>
</g>
<text text-anchor="middle" x="470.86" y="-217" font-family="Helvetica,sans-Serif" font-size="10.00" fill="grey"> m_code</text>
<text text-anchor="middle" x="470.86" y="-205.75" font-family="Helvetica,sans-Serif" font-size="10.00" fill="grey">m_logs_path</text>
</g>
<!-- Node6 -->
<g id="Node000006" class="node">
<title>Node6</title>
<g id="a_Node000006"><a xlink:href="class_buffer.html" target="_top" xlink:title=" ">
<polygon fill="white" stroke="#666666" points="431.5,-186 332.25,-186 332.25,-166.75 431.5,-166.75 431.5,-186"/>
<text text-anchor="middle" x="381.88" y="-172.5" font-family="Helvetica,sans-Serif" font-size="10.00">Buffer&lt; Message &gt;</text>
</a>
</g>
</g>
<!-- Node3&#45;&gt;Node6 -->
<g id="edge6_Node000006_Node000003" class="edge">
<title>Node3&#45;&gt;Node6</title>
<g id="a_edge6_Node000006_Node000003"><a xlink:title=" ">
<path fill="none" stroke="#9a32cd" stroke-dasharray="5,2" d="M397.68,-242.81C392.5,-238.19 387.67,-232.7 384.62,-226.5 378.3,-213.62 379.09,-196.49 380.38,-186.23"/>
<polygon fill="#9a32cd" stroke="#9a32cd" points="395.27,-245.37 405.3,-248.8 399.6,-239.87 395.27,-245.37"/>
</a>
</g>
<text text-anchor="middle" x="411.25" y="-211.38" font-family="Helvetica,sans-Serif" font-size="10.00" fill="grey"> m_file_path</text>
</g>
<!-- Node4 -->
<g id="Node000004" class="node">
<title>Node4</title>
<g id="a_Node000004"><a xlink:title=" ">
<polygon fill="white" stroke="#666666" points="468.88,-352.75 374.88,-352.75 374.88,-322.25 468.88,-322.25 468.88,-352.75"/>
<text text-anchor="start" x="382.88" y="-339.25" font-family="Helvetica,sans-Serif" font-size="10.00">std::basic_string&lt;</text>
<text text-anchor="middle" x="421.88" y="-328" font-family="Helvetica,sans-Serif" font-size="10.00"> Char &gt;</text>
</a>
</g>
</g>
<!-- Node4&#45;&gt;Node3 -->
<g id="edge3_Node000003_Node000004" class="edge">
<title>Node4&#45;&gt;Node3</title>
<g id="a_edge3_Node000003_Node000004"><a xlink:title=" ">
<path fill="none" stroke="#63b8ff" d="M421.88,-310.73C421.88,-296.47 421.88,-279.66 421.88,-269.62"/>
<polygon fill="#63b8ff" stroke="#63b8ff" points="418.38,-310.38 421.88,-320.38 425.38,-310.38 418.38,-310.38"/>
</a>
</g>
</g>
<!-- Node5 -->
<g id="Node000005" class="node">
<title>Node5</title>
<g id="a_Node000005"><a xlink:href="class_double_buffer.html" target="_top" xlink:title=" ">
<polygon fill="white" stroke="#666666" points="318.88,-85.75 188.88,-85.75 188.88,-66.5 318.88,-66.5 318.88,-85.75"/>
<text text-anchor="middle" x="253.88" y="-72.25" font-family="Helvetica,sans-Serif" font-size="10.00">DoubleBuffer&lt; Message &gt;</text>
</a>
</g>
</g>
<!-- Node5&#45;&gt;Node1 -->
<g id="edge4_Node000001_Node000005" class="edge">
<title>Node5&#45;&gt;Node1</title>
<g id="a_edge4_Node000001_Node000005"><a xlink:title=" ">
<path fill="none" stroke="#9a32cd" stroke-dasharray="5,2" d="M274.8,-59.43C291.39,-46.99 314.01,-30.03 327.74,-19.73"/>
<polygon fill="#9a32cd" stroke="#9a32cd" points="272.94,-56.45 267.04,-65.25 277.14,-62.05 272.94,-56.45"/>
</a>
</g>
<text text-anchor="middle" x="322.27" y="-39" font-family="Helvetica,sans-Serif" font-size="10.00" fill="grey"> m_buffer</text>
</g>
<!-- Node6&#45;&gt;Node5 -->
<g id="edge5_Node000005_Node000006" class="edge">
<title>Node6&#45;&gt;Node5</title>
<g id="a_edge5_Node000005_Node000006"><a xlink:title=" ">
<path fill="none" stroke="#63b8ff" d="M369.78,-157.44C358.28,-141.53 339.67,-118.57 318.88,-103.75 308.45,-96.32 295.64,-90.51 284.16,-86.23"/>
<polygon fill="#63b8ff" stroke="#63b8ff" points="366.8,-159.29 375.4,-165.48 372.54,-155.28 366.8,-159.29"/>
</a>
</g>
</g>
<!-- Node7 -->
<g id="Node000007" class="node">
<title>Node7</title>
<g id="a_Node000007"><a xlink:title=" ">
<polygon fill="white" stroke="#666666" points="314,-186 193.75,-186 193.75,-166.75 314,-166.75 314,-186"/>
<text text-anchor="middle" x="253.88" y="-172.5" font-family="Helvetica,sans-Serif" font-size="10.00">std::vector&lt; Message &gt;</text>
</a>
</g>
</g>
<!-- Node7&#45;&gt;Node5 -->
<g id="edge7_Node000005_Node000007" class="edge">
<title>Node7&#45;&gt;Node5</title>
<g id="a_edge7_Node000005_Node000007"><a xlink:title=" ">
<path fill="none" stroke="#9a32cd" stroke-dasharray="5,2" d="M253.88,-155.07C253.88,-133.92 253.88,-101.73 253.88,-86.17"/>
<polygon fill="#9a32cd" stroke="#9a32cd" points="250.38,-154.79 253.88,-164.79 257.38,-154.79 250.38,-154.79"/>
</a>
</g>
<text text-anchor="middle" x="284.25" y="-139.25" font-family="Helvetica,sans-Serif" font-size="10.00" fill="grey"> m_buffer_1</text>
<text text-anchor="middle" x="284.25" y="-128" font-family="Helvetica,sans-Serif" font-size="10.00" fill="grey">m_buffer_2</text>
<text text-anchor="middle" x="284.25" y="-116.75" font-family="Helvetica,sans-Serif" font-size="10.00" fill="grey">p_back_buffer</text>
<text text-anchor="middle" x="284.25" y="-105.5" font-family="Helvetica,sans-Serif" font-size="10.00" fill="grey">p_front_buffer</text>
</g>
<!-- Node8 -->
<g id="Node000008" class="node">
<title>Node8</title>
<g id="a_Node000008"><a xlink:href="class_message.html" target="_top" xlink:title="Class that defines a message.">
<polygon fill="white" stroke="#666666" points="281.75,-269.38 226,-269.38 226,-250.12 281.75,-250.12 281.75,-269.38"/>
<text text-anchor="middle" x="253.88" y="-255.88" font-family="Helvetica,sans-Serif" font-size="10.00">Message</text>
</a>
</g>
</g>
<!-- Node8&#45;&gt;Node7 -->
<g id="edge8_Node000007_Node000008" class="edge">
<title>Node8&#45;&gt;Node7</title>
<g id="a_edge8_Node000007_Node000008"><a xlink:title=" ">
<path fill="none" stroke="#9a32cd" stroke-dasharray="5,2" d="M253.88,-238.38C253.88,-221.6 253.88,-198.6 253.88,-186.19"/>
<polygon fill="#9a32cd" stroke="#9a32cd" points="250.38,-238.22 253.88,-248.22 257.38,-238.22 250.38,-238.22"/>
</a>
</g>
<text text-anchor="middle" x="275.25" y="-211.38" font-family="Helvetica,sans-Serif" font-size="10.00" fill="grey"> elements</text>
</g>
<!-- Node9 -->
<g id="Node000009" class="node">
<title>Node9</title>
<g id="a_Node000009"><a xlink:title=" ">
<polygon fill="white" stroke="#666666" points="313.62,-352.75 194.12,-352.75 194.12,-322.25 313.62,-322.25 313.62,-352.75"/>
<text text-anchor="start" x="202.12" y="-339.25" font-family="Helvetica,sans-Serif" font-size="10.00">std::vector&lt; std::unique</text>
<text text-anchor="middle" x="253.88" y="-328" font-family="Helvetica,sans-Serif" font-size="10.00">_ptr&lt; Payload &gt; &gt;</text>
</a>
</g>
</g>
<!-- Node9&#45;&gt;Node8 -->
<g id="edge9_Node000008_Node000009" class="edge">
<title>Node9&#45;&gt;Node8</title>
<g id="a_edge9_Node000008_Node000009"><a xlink:title=" ">
<path fill="none" stroke="#9a32cd" stroke-dasharray="5,2" d="M253.88,-310.73C253.88,-296.47 253.88,-279.66 253.88,-269.62"/>
<polygon fill="#9a32cd" stroke="#9a32cd" points="250.38,-310.38 253.88,-320.38 257.38,-310.38 250.38,-310.38"/>
</a>
</g>
<text text-anchor="middle" x="281.62" y="-294.75" font-family="Helvetica,sans-Serif" font-size="10.00" fill="grey"> m_payloads</text>
</g>
<!-- Node10 -->
<g id="Node000010" class="node">
<title>Node10</title>
<g id="a_Node000010"><a xlink:title=" ">
<polygon fill="white" stroke="#666666" points="320.75,-419.25 187,-419.25 187,-400 320.75,-400 320.75,-419.25"/>
<text text-anchor="middle" x="253.88" y="-405.75" font-family="Helvetica,sans-Serif" font-size="10.00">std::unique_ptr&lt; Payload &gt;</text>
</a>
</g>
</g>
<!-- Node10&#45;&gt;Node9 -->
<g id="edge10_Node000009_Node000010" class="edge">
<title>Node10&#45;&gt;Node9</title>
<g id="a_edge10_Node000009_Node000010"><a xlink:title=" ">
<path fill="none" stroke="#9a32cd" stroke-dasharray="5,2" d="M253.88,-388.42C253.88,-377.16 253.88,-363.39 253.88,-353.17"/>
<polygon fill="#9a32cd" stroke="#9a32cd" points="250.38,-388.23 253.88,-398.23 257.38,-388.23 250.38,-388.23"/>
</a>
</g>
<text text-anchor="middle" x="275.25" y="-372.5" font-family="Helvetica,sans-Serif" font-size="10.00" fill="grey"> elements</text>
</g>
<!-- Node11 -->
<g id="Node000011" class="node">
<title>Node11</title>
<g id="a_Node000011"><a xlink:href="class_payload.html" target="_top" xlink:title="Abstract class that defines different types of payloads in a message.">
<polygon fill="white" stroke="#666666" points="279.5,-485.75 228.25,-485.75 228.25,-466.5 279.5,-466.5 279.5,-485.75"/>
<text text-anchor="middle" x="253.88" y="-472.25" font-family="Helvetica,sans-Serif" font-size="10.00">Payload</text>
</a>
</g>
</g>
<!-- Node11&#45;&gt;Node10 -->
<g id="edge11_Node000010_Node000011" class="edge">
<title>Node11&#45;&gt;Node10</title>
<g id="a_edge11_Node000010_Node000011"><a xlink:title=" ">
<path fill="none" stroke="#9a32cd" stroke-dasharray="5,2" d="M253.88,-454.65C253.88,-442.82 253.88,-428.54 253.88,-419.52"/>
<polygon fill="#9a32cd" stroke="#9a32cd" points="250.38,-454.64 253.88,-464.64 257.38,-454.64 250.38,-454.64"/>
</a>
</g>
<text text-anchor="middle" x="261" y="-439" font-family="Helvetica,sans-Serif" font-size="10.00" fill="grey"> ptr</text>
</g>
<!-- Node12 -->
<g id="Node000012" class="node">
<title>Node12</title>
<g id="a_Node000012"><a xlink:title=" ">
<polygon fill="white" stroke="#666666" points="94.75,-186 21,-186 21,-166.75 94.75,-166.75 94.75,-186"/>
<text text-anchor="middle" x="57.88" y="-172.5" font-family="Helvetica,sans-Serif" font-size="10.00">std::ofstream</text>
</a>
</g>
</g>
<!-- Node12&#45;&gt;Node5 -->
<g id="edge12_Node000005_Node000012" class="edge">
<title>Node12&#45;&gt;Node5</title>
<g id="a_edge12_Node000005_Node000012"><a xlink:title=" ">
<path fill="none" stroke="#9a32cd" stroke-dasharray="5,2" d="M60.05,-155.63C62.95,-139.17 69.7,-116.44 85.38,-103.75 101.14,-90.99 148.29,-84.26 188.72,-80.76"/>
<polygon fill="#9a32cd" stroke="#9a32cd" points="56.62,-154.84 58.7,-165.22 63.56,-155.81 56.62,-154.84"/>
</a>
</g>
<text text-anchor="middle" x="117.62" y="-122.38" font-family="Helvetica,sans-Serif" font-size="10.00" fill="grey"> m_file_stream</text>
</g>
<!-- Node13 -->
<g id="Node000013" class="node">
<title>Node13</title>
<g id="a_Node000013"><a xlink:title=" ">
<polygon fill="white" stroke="#666666" points="109,-275 6.75,-275 6.75,-244.5 109,-244.5 109,-275"/>
<text text-anchor="start" x="14.75" y="-261.5" font-family="Helvetica,sans-Serif" font-size="10.00">std::basic_ofstream</text>
<text text-anchor="middle" x="57.88" y="-250.25" font-family="Helvetica,sans-Serif" font-size="10.00">&lt; Char &gt;</text>
</a>
</g>
</g>
<!-- Node13&#45;&gt;Node12 -->
<g id="edge13_Node000012_Node000013" class="edge">
<title>Node13&#45;&gt;Node12</title>
<g id="a_edge13_Node000012_Node000013"><a xlink:title=" ">
<path fill="none" stroke="#63b8ff" d="M57.88,-232.87C57.88,-216.89 57.88,-197.38 57.88,-186.27"/>
<polygon fill="#63b8ff" stroke="#63b8ff" points="54.38,-232.69 57.88,-242.69 61.38,-232.69 54.38,-232.69"/>
</a>
</g>
</g>
<!-- Node14 -->
<g id="Node000014" class="node">
<title>Node14</title>
<g id="a_Node000014"><a xlink:title=" ">
<polygon fill="white" stroke="#666666" points="107.5,-352.75 8.25,-352.75 8.25,-322.25 107.5,-322.25 107.5,-352.75"/>
<text text-anchor="start" x="16.25" y="-339.25" font-family="Helvetica,sans-Serif" font-size="10.00">std::basic_ostream</text>
<text text-anchor="middle" x="57.88" y="-328" font-family="Helvetica,sans-Serif" font-size="10.00">&lt; Char &gt;</text>
</a>
</g>
</g>
<!-- Node14&#45;&gt;Node13 -->
<g id="edge14_Node000013_Node000014" class="edge">
<title>Node14&#45;&gt;Node13</title>
<g id="a_edge14_Node000013_Node000014"><a xlink:title=" ">
<path fill="none" stroke="#63b8ff" d="M57.88,-310.47C57.88,-298.71 57.88,-285.26 57.88,-275.31"/>
<polygon fill="#63b8ff" stroke="#63b8ff" points="54.38,-310.38 57.88,-320.38 61.38,-310.38 54.38,-310.38"/>
</a>
</g>
</g>
<!-- Node15 -->
<g id="Node000015" class="node">
<title>Node15</title>
<g id="a_Node000015"><a xlink:title=" ">
<polygon fill="white" stroke="#666666" points="115.75,-419.25 0,-419.25 0,-400 115.75,-400 115.75,-419.25"/>
<text text-anchor="middle" x="57.88" y="-405.75" font-family="Helvetica,sans-Serif" font-size="10.00">std::basic_ios&lt; Char &gt;</text>
</a>
</g>
</g>
<!-- Node15&#45;&gt;Node14 -->
<g id="edge15_Node000014_Node000015" class="edge">
<title>Node15&#45;&gt;Node14</title>
<g id="a_edge15_Node000014_Node000015"><a xlink:title=" ">
<path fill="none" stroke="#63b8ff" d="M57.88,-388.42C57.88,-377.16 57.88,-363.39 57.88,-353.17"/>
<polygon fill="#63b8ff" stroke="#63b8ff" points="54.38,-388.23 57.88,-398.23 61.38,-388.23 54.38,-388.23"/>
</a>
</g>
</g>
<!-- Node16 -->
<g id="Node000016" class="node">
<title>Node16</title>
<g id="a_Node000016"><a xlink:title=" ">
<polygon fill="white" stroke="#666666" points="95.12,-485.75 20.62,-485.75 20.62,-466.5 95.12,-466.5 95.12,-485.75"/>
<text text-anchor="middle" x="57.88" y="-472.25" font-family="Helvetica,sans-Serif" font-size="10.00">std::ios_base</text>
</a>
</g>
</g>
<!-- Node16&#45;&gt;Node15 -->
<g id="edge16_Node000015_Node000016" class="edge">
<title>Node16&#45;&gt;Node15</title>
<g id="a_edge16_Node000015_Node000016"><a xlink:title=" ">
<path fill="none" stroke="#63b8ff" d="M57.88,-454.65C57.88,-442.82 57.88,-428.54 57.88,-419.52"/>
<polygon fill="#63b8ff" stroke="#63b8ff" points="54.38,-454.64 57.88,-464.64 61.38,-454.64 54.38,-454.64"/>
</a>
</g>
</g>
<!-- Node17 -->
<g id="Node000017" class="node">
<title>Node17</title>
<g id="a_Node000017"><a xlink:title=" ">
<polygon fill="white" stroke="#666666" points="176.12,-186 113.62,-186 113.62,-166.75 176.12,-166.75 176.12,-186"/>
<text text-anchor="middle" x="144.88" y="-172.5" font-family="Helvetica,sans-Serif" font-size="10.00">std::mutex</text>
</a>
</g>
</g>
<!-- Node17&#45;&gt;Node5 -->
<g id="edge17_Node000005_Node000017" class="edge">
<title>Node17&#45;&gt;Node5</title>
<g id="a_edge17_Node000005_Node000017"><a xlink:title=" ">
<path fill="none" stroke="#9a32cd" stroke-dasharray="5,2" d="M150.96,-155.82C156.86,-139.83 167.25,-117.68 183.12,-103.75 192.1,-95.87 203.64,-90.23 214.78,-86.23"/>
<polygon fill="#9a32cd" stroke="#9a32cd" points="147.69,-154.57 147.81,-165.16 154.32,-156.81 147.69,-154.57"/>
</a>
</g>
<text text-anchor="middle" x="216.5" y="-128" font-family="Helvetica,sans-Serif" font-size="10.00" fill="grey"> m_full_mutex</text>
<text text-anchor="middle" x="216.5" y="-116.75" font-family="Helvetica,sans-Serif" font-size="10.00" fill="grey">m_write_mutex</text>
</g>
</g>
</svg>
