<?xml version="1.0" encoding="UTF-8" standalone="no"?>
<!DOCTYPE svg PUBLIC "-//W3C//DTD SVG 1.1//EN"
 "http://www.w3.org/Graphics/SVG/1.1/DTD/svg11.dtd">
<!-- Generated by graphviz version 12.2.1 (20241206.2353)
 -->
<!-- Title: Subscription Pages: 1 -->
<svg width="154pt" height="173pt"
 viewBox="0.00 0.00 153.62 172.50" xmlns="http://www.w3.org/2000/svg" xmlns:xlink="http://www.w3.org/1999/xlink">
<g id="graph0" class="graph" transform="scale(1 1) rotate(0) translate(4 168.5)">
<title>Subscription</title>
<!-- Node1 -->
<g id="Node000001" class="node">
<title>Node1</title>
<g id="a_Node000001"><a xlink:title="Class that defines a subscription request sent by subscribers to the SubBroker.">
<polygon fill="#999999" stroke="#666666" points="86.62,-19.25 16.62,-19.25 16.62,0 86.62,0 86.62,-19.25"/>
<text text-anchor="middle" x="51.62" y="-5.75" font-family="Helvetica,sans-Serif" font-size="10.00">Subscription</text>
</a>
</g>
</g>
<!-- Node2 -->
<g id="Node000002" class="node">
<title>Node2</title>
<g id="a_Node000002"><a xlink:href="class_payload.html" target="_top" xlink:title="Abstract class that defines different types of payloads in a message.">
<polygon fill="white" stroke="#666666" points="51.25,-97 0,-97 0,-77.75 51.25,-77.75 51.25,-97"/>
<text text-anchor="middle" x="25.62" y="-83.5" font-family="Helvetica,sans-Serif" font-size="10.00">Payload</text>
</a>
</g>
</g>
<!-- Node2&#45;&gt;Node1 -->
<g id="edge1_Node000001_Node000002" class="edge">
<title>Node2&#45;&gt;Node1</title>
<g id="a_edge1_Node000001_Node000002"><a xlink:title=" ">
<path fill="none" stroke="#63b8ff" d="M32.43,-66.55C37.65,-51.35 44.6,-31.1 48.54,-19.6"/>
<polygon fill="#63b8ff" stroke="#63b8ff" points="29.14,-65.36 29.2,-75.96 35.76,-67.63 29.14,-65.36"/>
</a>
</g>
</g>
<!-- Node3 -->
<g id="Node000003" class="node">
<title>Node3</title>
<g id="a_Node000003"><a xlink:title=" ">
<polygon fill="white" stroke="#666666" points="128.38,-97 68.88,-97 68.88,-77.75 128.38,-77.75 128.38,-97"/>
<text text-anchor="middle" x="98.62" y="-83.5" font-family="Helvetica,sans-Serif" font-size="10.00">std::string</text>
</a>
</g>
</g>
<!-- Node3&#45;&gt;Node1 -->
<g id="edge2_Node000001_Node000003" class="edge">
<title>Node3&#45;&gt;Node1</title>
<g id="a_edge2_Node000001_Node000003"><a xlink:title=" ">
<path fill="none" stroke="#9a32cd" stroke-dasharray="5,2" d="M87.16,-67.89C77.65,-52.56 64.54,-31.44 57.19,-19.6"/>
<polygon fill="#9a32cd" stroke="#9a32cd" points="84,-69.45 92.25,-76.1 89.95,-65.76 84,-69.45"/>
</a>
</g>
<text text-anchor="middle" x="100.83" y="-50.25" font-family="Helvetica,sans-Serif" font-size="10.00" fill="grey"> m_code</text>
<text text-anchor="middle" x="100.83" y="-39" font-family="Helvetica,sans-Serif" font-size="10.00" fill="grey">m_id</text>
</g>
<!-- Node4 -->
<g id="Node000004" class="node">
<title>Node4</title>
<g id="a_Node000004"><a xlink:title=" ">
<polygon fill="white" stroke="#666666" points="145.62,-164.5 51.62,-164.5 51.62,-134 145.62,-134 145.62,-164.5"/>
<text text-anchor="start" x="59.62" y="-151" font-family="Helvetica,sans-Serif" font-size="10.00">std::basic_string&lt;</text>
<text text-anchor="middle" x="98.62" y="-139.75" font-family="Helvetica,sans-Serif" font-size="10.00"> Char &gt;</text>
</a>
</g>
</g>
<!-- Node4&#45;&gt;Node3 -->
<g id="edge3_Node000003_Node000004" class="edge">
<title>Node4&#45;&gt;Node3</title>
<g id="a_edge3_Node000003_Node000004"><a xlink:title=" ">
<path fill="none" stroke="#63b8ff" d="M98.62,-122.52C98.62,-113.54 98.62,-104.04 98.62,-97.35"/>
<polygon fill="#63b8ff" stroke="#63b8ff" points="95.13,-122.24 98.63,-132.24 102.13,-122.24 95.13,-122.24"/>
</a>
</g>
</g>
</g>
</svg>
