<?xml version="1.0" encoding="UTF-8" standalone="no"?>
<!DOCTYPE svg PUBLIC "-//W3C//DTD SVG 1.1//EN"
 "http://www.w3.org/Graphics/SVG/1.1/DTD/svg11.dtd">
<!-- Generated by graphviz version 12.2.1 (20241206.2353)
 -->
<!-- Title: Schedule Pages: 1 -->
<svg width="196pt" height="116pt"
 viewBox="0.00 0.00 195.62 116.25" xmlns="http://www.w3.org/2000/svg" xmlns:xlink="http://www.w3.org/1999/xlink">
<g id="graph0" class="graph" transform="scale(1 1) rotate(0) translate(4 112.25)">
<title>Schedule</title>
<!-- Node1 -->
<g id="Node000001" class="node">
<title>Node1</title>
<g id="a_Node000001"><a xlink:title="Class that defines the schedule for delivering messages from the PubBroker to the SubBroker.">
<polygon fill="#999999" stroke="#666666" points="104.88,-19.25 48.38,-19.25 48.38,0 104.88,0 104.88,-19.25"/>
<text text-anchor="middle" x="76.62" y="-5.75" font-family="Helvetica,sans-Serif" font-size="10.00">Schedule</text>
</a>
</g>
</g>
<!-- Node2 -->
<g id="Node000002" class="node">
<title>Node2</title>
<g id="a_Node000002"><a xlink:href="class_payload.html" target="_top" xlink:title="Abstract class that defines different types of payloads in a message.">
<polygon fill="white" stroke="#666666" points="51.25,-97 0,-97 0,-77.75 51.25,-77.75 51.25,-97"/>
<text text-anchor="middle" x="25.62" y="-83.5" font-family="Helvetica,sans-Serif" font-size="10.00">Payload</text>
</a>
</g>
</g>
<!-- Node2&#45;&gt;Node1 -->
<g id="edge1_Node000001_Node000002" class="edge">
<title>Node2&#45;&gt;Node1</title>
<g id="a_edge1_Node000001_Node000002"><a xlink:title=" ">
<path fill="none" stroke="#63b8ff" d="M38.07,-67.89C48.39,-52.56 62.61,-31.44 70.58,-19.6"/>
<polygon fill="#63b8ff" stroke="#63b8ff" points="35.2,-65.88 32.52,-76.13 41.01,-69.79 35.2,-65.88"/>
</a>
</g>
</g>
<!-- Node3 -->
<g id="Node000003" class="node">
<title>Node3</title>
<g id="a_Node000003"><a xlink:title=" ">
<polygon fill="white" stroke="#666666" points="187.62,-108.25 69.62,-108.25 69.62,-66.5 187.62,-66.5 187.62,-108.25"/>
<text text-anchor="start" x="77.62" y="-94.75" font-family="Helvetica,sans-Serif" font-size="10.00">std::vector&lt; std::vector</text>
<text text-anchor="start" x="77.62" y="-83.5" font-family="Helvetica,sans-Serif" font-size="10.00">&lt; std::pair&lt; std::string,</text>
<text text-anchor="middle" x="128.62" y="-72.25" font-family="Helvetica,sans-Serif" font-size="10.00"> std::string &gt; &gt; &gt;</text>
</a>
</g>
</g>
<!-- Node3&#45;&gt;Node1 -->
<g id="edge2_Node000001_Node000003" class="edge">
<title>Node3&#45;&gt;Node1</title>
<g id="a_edge2_Node000001_Node000003"><a xlink:title=" ">
<path fill="none" stroke="#9a32cd" stroke-dasharray="5,2" d="M108.32,-56.79C99.24,-43.57 89.19,-28.92 82.89,-19.75"/>
<polygon fill="#9a32cd" stroke="#9a32cd" points="105.29,-58.56 113.83,-64.83 111.06,-54.6 105.29,-58.56"/>
</a>
</g>
<text text-anchor="middle" x="130.38" y="-39" font-family="Helvetica,sans-Serif" font-size="10.00" fill="grey"> m_schedule</text>
</g>
</g>
</svg>
