<?xml version="1.0" encoding="UTF-8" standalone="no"?>
<!DOCTYPE svg PUBLIC "-//W3C//DTD SVG 1.1//EN"
 "http://www.w3.org/Graphics/SVG/1.1/DTD/svg11.dtd">
<!-- Generated by graphviz version 12.2.1 (20241206.2353)
 -->
<!-- Title: PubBroker Pages: 1 -->
<svg width="1023pt" height="254pt"
 viewBox="0.00 0.00 1022.50 253.60" xmlns="http://www.w3.org/2000/svg" xmlns:xlink="http://www.w3.org/1999/xlink">
<g id="graph0" class="graph" transform="scale(1 1) rotate(0) translate(4 249.6)">
<title>PubBroker</title>
<!-- Node1 -->
<g id="Node000001" class="node">
<title>Node1</title>
<g id="a_Node000001"><a xlink:title="Class that defines the PubBroker. It manages the publication process and acts as an intermediary betw...">
<polygon fill="#999999" stroke="#666666" points="1014.5,-127.5 952.75,-127.5 952.75,-108.25 1014.5,-108.25 1014.5,-127.5"/>
<text text-anchor="middle" x="983.62" y="-114" font-family="Helvetica,sans-Serif" font-size="10.00">PubBroker</text>
</a>
</g>
</g>
<!-- Node2 -->
<g id="Node000002" class="node">
<title>Node2</title>
<g id="a_Node000002"><a xlink:href="class_peer_tcp_server.html" target="_top" xlink:title="Class that defines a peer TCP server.">
<polygon fill="white" stroke="#666666" points="818.5,-211.5 738,-211.5 738,-192.25 818.5,-192.25 818.5,-211.5"/>
<text text-anchor="middle" x="778.25" y="-198" font-family="Helvetica,sans-Serif" font-size="10.00">PeerTcpServer</text>
</a>
</g>
</g>
<!-- Node2&#45;&gt;Node1 -->
<g id="edge1_Node000001_Node000002" class="edge">
<title>Node2&#45;&gt;Node1</title>
<g id="a_edge1_Node000001_Node000002"><a xlink:title=" ">
<path fill="none" stroke="#63b8ff" d="M829.97,-199.85C861.82,-196.68 902.77,-189.04 934.75,-170.88 953.3,-160.34 968.53,-140.04 976.53,-127.85"/>
<polygon fill="#63b8ff" stroke="#63b8ff" points="829.85,-196.34 820.19,-200.69 830.46,-203.32 829.85,-196.34"/>
</a>
</g>
</g>
<!-- Node3 -->
<g id="Node000003" class="node">
<title>Node3</title>
<g id="a_Node000003"><a xlink:href="class_tcp_server.html" target="_top" xlink:title="Class that defines a TCP server.">
<polygon fill="white" stroke="#666666" points="640.5,-211.5 580.25,-211.5 580.25,-192.25 640.5,-192.25 640.5,-211.5"/>
<text text-anchor="middle" x="610.38" y="-198" font-family="Helvetica,sans-Serif" font-size="10.00">TcpServer</text>
</a>
</g>
</g>
<!-- Node3&#45;&gt;Node2 -->
<g id="edge2_Node000002_Node000003" class="edge">
<title>Node3&#45;&gt;Node2</title>
<g id="a_edge2_Node000002_Node000003"><a xlink:title=" ">
<path fill="none" stroke="#63b8ff" d="M652.04,-201.88C678.13,-201.88 711.82,-201.88 737.69,-201.88"/>
<polygon fill="#63b8ff" stroke="#63b8ff" points="652.16,-198.38 642.16,-201.88 652.16,-205.38 652.16,-198.38"/>
</a>
</g>
</g>
<!-- Node4 -->
<g id="Node000004" class="node">
<title>Node4</title>
<g id="a_Node000004"><a xlink:href="class_tcp_ip_id.html" target="_top" xlink:title="Class to handle TCP/IP endpoints.">
<polygon fill="white" stroke="#666666" points="379.38,-240.5 331.12,-240.5 331.12,-221.25 379.38,-221.25 379.38,-240.5"/>
<text text-anchor="middle" x="355.25" y="-227" font-family="Helvetica,sans-Serif" font-size="10.00">TcpIpId</text>
</a>
</g>
</g>
<!-- Node4&#45;&gt;Node2 -->
<g id="edge8_Node000002_Node000004" class="edge">
<title>Node4&#45;&gt;Node2</title>
<g id="a_edge8_Node000002_Node000004"><a xlink:title=" ">
<path fill="none" stroke="#9a32cd" stroke-dasharray="5,2" d="M390.67,-233.44C405.32,-234.41 422.61,-235.4 438.25,-235.88 493.34,-237.55 507.28,-239.81 562.25,-235.88 624.5,-231.42 639.66,-225.97 701.25,-215.88 713.17,-213.92 726.1,-211.61 737.86,-209.44"/>
<polygon fill="#9a32cd" stroke="#9a32cd" points="391.29,-229.98 381.07,-232.78 390.81,-236.96 391.29,-229.98"/>
</a>
</g>
<text text-anchor="middle" x="610.38" y="-236.1" font-family="Helvetica,sans-Serif" font-size="10.00" fill="grey"> m_peer_id</text>
</g>
<!-- Node4&#45;&gt;Node3 -->
<g id="edge3_Node000003_Node000004" class="edge">
<title>Node4&#45;&gt;Node3</title>
<g id="a_edge3_Node000003_Node000004"><a xlink:title=" ">
<path fill="none" stroke="#9a32cd" stroke-dasharray="5,2" d="M390.81,-226.92C440.9,-221.18 532.83,-210.64 579.91,-205.25"/>
<polygon fill="#9a32cd" stroke="#9a32cd" points="390.65,-223.41 381.11,-228.03 391.45,-230.37 390.65,-223.41"/>
</a>
</g>
<text text-anchor="middle" x="500.25" y="-222.42" font-family="Helvetica,sans-Serif" font-size="10.00" fill="grey"> m_id</text>
</g>
<!-- Node5 -->
<g id="Node000005" class="node">
<title>Node5</title>
<g id="a_Node000005"><a xlink:href="class_id.html" target="_top" xlink:title="Abstract class of an ID.">
<polygon fill="white" stroke="#666666" points="175.15,-240.5 146.35,-240.5 146.35,-221.25 175.15,-221.25 175.15,-240.5"/>
<text text-anchor="middle" x="160.75" y="-227" font-family="Helvetica,sans-Serif" font-size="10.00">Id</text>
</a>
</g>
</g>
<!-- Node5&#45;&gt;Node4 -->
<g id="edge4_Node000004_Node000005" class="edge">
<title>Node5&#45;&gt;Node4</title>
<g id="a_edge4_Node000004_Node000005"><a xlink:title=" ">
<path fill="none" stroke="#63b8ff" d="M186.95,-230.88C224.38,-230.88 294.15,-230.88 330.64,-230.88"/>
<polygon fill="#63b8ff" stroke="#63b8ff" points="187.11,-227.38 177.11,-230.88 187.11,-234.38 187.11,-227.38"/>
</a>
</g>
</g>
<!-- Node6 -->
<g id="Node000006" class="node">
<title>Node6</title>
<g id="a_Node000006"><a xlink:title=" ">
<polygon fill="white" stroke="#666666" points="190.5,-165.5 131,-165.5 131,-146.25 190.5,-146.25 190.5,-165.5"/>
<text text-anchor="middle" x="160.75" y="-152" font-family="Helvetica,sans-Serif" font-size="10.00">std::string</text>
</a>
</g>
</g>
<!-- Node6&#45;&gt;Node1 -->
<g id="edge9_Node000001_Node000006" class="edge">
<title>Node6&#45;&gt;Node1</title>
<g id="a_edge9_Node000001_Node000006"><a xlink:title=" ">
<path fill="none" stroke="#9a32cd" stroke-dasharray="5,2" d="M201.52,-143.32C240.13,-132.25 300.61,-117.88 354.25,-117.88 354.25,-117.88 354.25,-117.88 779.25,-117.88 840.69,-117.88 912.56,-117.88 952.3,-117.88"/>
<polygon fill="#9a32cd" stroke="#9a32cd" points="200.81,-139.88 192.2,-146.06 202.78,-146.59 200.81,-139.88"/>
</a>
</g>
<text text-anchor="middle" x="610.38" y="-119.62" font-family="Helvetica,sans-Serif" font-size="10.00" fill="grey"> m_logs_path</text>
</g>
<!-- Node6&#45;&gt;Node4 -->
<g id="edge5_Node000004_Node000006" class="edge">
<title>Node6&#45;&gt;Node4</title>
<g id="a_edge5_Node000004_Node000006"><a xlink:title=" ">
<path fill="none" stroke="#9a32cd" stroke-dasharray="5,2" d="M192.08,-170.81C217.8,-183.12 255.9,-200.5 290.25,-212.88 303.5,-217.65 318.65,-221.96 330.89,-225.17"/>
<polygon fill="#9a32cd" stroke="#9a32cd" points="193.75,-167.73 183.22,-166.53 190.7,-174.03 193.75,-167.73"/>
</a>
</g>
<text text-anchor="middle" x="240.38" y="-206.46" font-family="Helvetica,sans-Serif" font-size="10.00" fill="grey"> m_ip_address</text>
</g>
<!-- Node9 -->
<g id="Node000009" class="node">
<title>Node9</title>
<g id="a_Node000009"><a xlink:title=" ">
<polygon fill="white" stroke="#666666" points="562.25,-165.5 438.25,-165.5 438.25,-146.25 562.25,-146.25 562.25,-165.5"/>
<text text-anchor="middle" x="500.25" y="-152" font-family="Helvetica,sans-Serif" font-size="10.00">std::vector&lt; std::string &gt;</text>
</a>
</g>
</g>
<!-- Node6&#45;&gt;Node9 -->
<g id="edge11_Node000009_Node000006" class="edge">
<title>Node6&#45;&gt;Node9</title>
<g id="a_edge11_Node000009_Node000006"><a xlink:title=" ">
<path fill="none" stroke="#9a32cd" stroke-dasharray="5,2" d="M202.17,-155.88C260.68,-155.88 369.46,-155.88 437.91,-155.88"/>
<polygon fill="#9a32cd" stroke="#9a32cd" points="202.33,-152.38 192.33,-155.88 202.33,-159.38 202.33,-152.38"/>
</a>
</g>
<text text-anchor="middle" x="240.38" y="-157.62" font-family="Helvetica,sans-Serif" font-size="10.00" fill="grey"> elements</text>
</g>
<!-- Node7 -->
<g id="Node000007" class="node">
<title>Node7</title>
<g id="a_Node000007"><a xlink:title=" ">
<polygon fill="white" stroke="#666666" points="94,-171.12 0,-171.12 0,-140.62 94,-140.62 94,-171.12"/>
<text text-anchor="start" x="8" y="-157.62" font-family="Helvetica,sans-Serif" font-size="10.00">std::basic_string&lt;</text>
<text text-anchor="middle" x="47" y="-146.38" font-family="Helvetica,sans-Serif" font-size="10.00"> Char &gt;</text>
</a>
</g>
</g>
<!-- Node7&#45;&gt;Node6 -->
<g id="edge6_Node000006_Node000007" class="edge">
<title>Node7&#45;&gt;Node6</title>
<g id="a_edge6_Node000006_Node000007"><a xlink:title=" ">
<path fill="none" stroke="#63b8ff" d="M105.71,-155.88C114.32,-155.88 122.87,-155.88 130.55,-155.88"/>
<polygon fill="#63b8ff" stroke="#63b8ff" points="105.93,-152.38 95.93,-155.88 105.93,-159.38 105.93,-152.38"/>
</a>
</g>
</g>
<!-- Node8 -->
<g id="Node000008" class="node">
<title>Node8</title>
<g id="a_Node000008"><a xlink:title=" ">
<polygon fill="white" stroke="#666666" points="420.25,-203.5 290.25,-203.5 290.25,-184.25 420.25,-184.25 420.25,-203.5"/>
<text text-anchor="middle" x="355.25" y="-190" font-family="Helvetica,sans-Serif" font-size="10.00">std::set&lt; p_tcp_session &gt;</text>
</a>
</g>
</g>
<!-- Node8&#45;&gt;Node3 -->
<g id="edge7_Node000003_Node000008" class="edge">
<title>Node8&#45;&gt;Node3</title>
<g id="a_edge7_Node000003_Node000008"><a xlink:title=" ">
<path fill="none" stroke="#9a32cd" stroke-dasharray="5,2" d="M431.65,-191.46C470.69,-190.89 519.09,-191.25 562.25,-194.62 567.94,-195.07 573.99,-195.8 579.79,-196.63"/>
<polygon fill="#9a32cd" stroke="#9a32cd" points="431.83,-187.96 421.89,-191.63 431.95,-194.96 431.83,-187.96"/>
</a>
</g>
<text text-anchor="middle" x="500.25" y="-196.38" font-family="Helvetica,sans-Serif" font-size="10.00" fill="grey"> m_client_sessions</text>
</g>
<!-- Node9&#45;&gt;Node1 -->
<g id="edge10_Node000001_Node000009" class="edge">
<title>Node9&#45;&gt;Node1</title>
<g id="a_edge10_Node000001_Node000009"><a xlink:title=" ">
<path fill="none" stroke="#9a32cd" stroke-dasharray="5,2" d="M573.68,-156.91C660.22,-156.98 809.08,-153.43 934.75,-131.88 940.55,-130.88 946.65,-129.42 952.48,-127.83"/>
<polygon fill="#9a32cd" stroke="#9a32cd" points="573.93,-153.41 563.92,-156.88 573.91,-160.41 573.93,-153.41"/>
</a>
</g>
<text text-anchor="middle" x="679.88" y="-157.51" font-family="Helvetica,sans-Serif" font-size="10.00" fill="grey"> m_topics</text>
</g>
<!-- Node10 -->
<g id="Node000010" class="node">
<title>Node10</title>
<g id="a_Node000010"><a xlink:title=" ">
<polygon fill="white" stroke="#666666" points="829.75,-90.12 726.75,-90.12 726.75,-59.62 829.75,-59.62 829.75,-90.12"/>
<text text-anchor="start" x="734.75" y="-76.62" font-family="Helvetica,sans-Serif" font-size="10.00">std::vector&lt; p_topic</text>
<text text-anchor="middle" x="778.25" y="-65.38" font-family="Helvetica,sans-Serif" font-size="10.00">_pub_broker &gt;</text>
</a>
</g>
</g>
<!-- Node10&#45;&gt;Node1 -->
<g id="edge12_Node000001_Node000010" class="edge">
<title>Node10&#45;&gt;Node1</title>
<g id="a_edge12_Node000001_Node000010"><a xlink:title=" ">
<path fill="none" stroke="#9a32cd" stroke-dasharray="5,2" d="M841.14,-76.67C870.09,-78.84 904.73,-83.35 934.75,-92.62 946.24,-96.17 958.21,-102.49 967.31,-107.91"/>
<polygon fill="#9a32cd" stroke="#9a32cd" points="841.66,-73.2 831.45,-76.03 841.2,-80.18 841.66,-73.2"/>
</a>
</g>
<text text-anchor="middle" x="895" y="-94.38" font-family="Helvetica,sans-Serif" font-size="10.00" fill="grey"> m_topic_handlers</text>
</g>
<!-- Node11 -->
<g id="Node000011" class="node">
<title>Node11</title>
<g id="a_Node000011"><a xlink:title=" ">
<polygon fill="white" stroke="#666666" points="837.25,-41.75 719.25,-41.75 719.25,0 837.25,0 837.25,-41.75"/>
<text text-anchor="start" x="727.25" y="-28.25" font-family="Helvetica,sans-Serif" font-size="10.00">std::vector&lt; std::vector</text>
<text text-anchor="start" x="727.25" y="-17" font-family="Helvetica,sans-Serif" font-size="10.00">&lt; std::pair&lt; std::string,</text>
<text text-anchor="middle" x="778.25" y="-5.75" font-family="Helvetica,sans-Serif" font-size="10.00"> std::string &gt; &gt; &gt;</text>
</a>
</g>
</g>
<!-- Node11&#45;&gt;Node1 -->
<g id="edge13_Node000001_Node000011" class="edge">
<title>Node11&#45;&gt;Node1</title>
<g id="a_edge13_Node000001_Node000011"><a xlink:title=" ">
<path fill="none" stroke="#9a32cd" stroke-dasharray="5,2" d="M848.62,-30.36C876.89,-36.48 908.92,-46.45 934.75,-62.62 953.47,-74.35 968.86,-95.66 976.8,-108.11"/>
<polygon fill="#9a32cd" stroke="#9a32cd" points="849.57,-26.98 839.07,-28.42 848.17,-33.84 849.57,-26.98"/>
</a>
</g>
<text text-anchor="middle" x="895" y="-64.38" font-family="Helvetica,sans-Serif" font-size="10.00" fill="grey"> m_schedule</text>
</g>
</g>
</svg>
