<?xml version="1.0" encoding="UTF-8" standalone="no"?>
<!DOCTYPE svg PUBLIC "-//W3C//DTD SVG 1.1//EN"
 "http://www.w3.org/Graphics/SVG/1.1/DTD/svg11.dtd">
<!-- Generated by graphviz version 12.2.1 (20241206.2353)
 -->
<!-- Title: TcpHelper Pages: 1 -->
<svg width="202pt" height="173pt"
 viewBox="0.00 0.00 201.62 172.50" xmlns="http://www.w3.org/2000/svg" xmlns:xlink="http://www.w3.org/1999/xlink">
<g id="graph0" class="graph" transform="scale(1 1) rotate(0) translate(4 168.5)">
<title>TcpHelper</title>
<!-- Node1 -->
<g id="Node000001" class="node">
<title>Node1</title>
<g id="a_Node000001"><a xlink:title="Helper class that facilitates TCP communications by handling serialization and networking tasks.">
<polygon fill="#999999" stroke="#666666" points="125.12,-19.25 64.88,-19.25 64.88,0 125.12,0 125.12,-19.25"/>
<text text-anchor="middle" x="95" y="-5.75" font-family="Helvetica,sans-Serif" font-size="10.00">TcpHelper</text>
</a>
</g>
</g>
<!-- Node2 -->
<g id="Node000002" class="node">
<title>Node2</title>
<g id="a_Node000002"><a xlink:title=" ">
<polygon fill="white" stroke="#666666" points="76.75,-97 17.25,-97 17.25,-77.75 76.75,-77.75 76.75,-97"/>
<text text-anchor="middle" x="47" y="-83.5" font-family="Helvetica,sans-Serif" font-size="10.00">std::string</text>
</a>
</g>
</g>
<!-- Node2&#45;&gt;Node1 -->
<g id="edge1_Node000001_Node000002" class="edge">
<title>Node2&#45;&gt;Node1</title>
<g id="a_edge1_Node000001_Node000002"><a xlink:title=" ">
<path fill="none" stroke="#9a32cd" stroke-dasharray="5,2" d="M49.53,-66.21C51.43,-56.81 54.74,-45.83 60.5,-37.25 65.22,-30.21 72.41,-24.24 79.01,-19.74"/>
<polygon fill="#9a32cd" stroke="#9a32cd" points="46.11,-65.4 47.99,-75.83 53.03,-66.51 46.11,-65.4"/>
</a>
</g>
<text text-anchor="middle" x="91.25" y="-50.25" font-family="Helvetica,sans-Serif" font-size="10.00" fill="grey"> m_out_data</text>
<text text-anchor="middle" x="91.25" y="-39" font-family="Helvetica,sans-Serif" font-size="10.00" fill="grey">m_out_header</text>
</g>
<!-- Node3 -->
<g id="Node000003" class="node">
<title>Node3</title>
<g id="a_Node000003"><a xlink:title=" ">
<polygon fill="white" stroke="#666666" points="94,-164.5 0,-164.5 0,-134 94,-134 94,-164.5"/>
<text text-anchor="start" x="8" y="-151" font-family="Helvetica,sans-Serif" font-size="10.00">std::basic_string&lt;</text>
<text text-anchor="middle" x="47" y="-139.75" font-family="Helvetica,sans-Serif" font-size="10.00"> Char &gt;</text>
</a>
</g>
</g>
<!-- Node3&#45;&gt;Node2 -->
<g id="edge2_Node000002_Node000003" class="edge">
<title>Node3&#45;&gt;Node2</title>
<g id="a_edge2_Node000002_Node000003"><a xlink:title=" ">
<path fill="none" stroke="#63b8ff" d="M47,-122.52C47,-113.54 47,-104.04 47,-97.35"/>
<polygon fill="#63b8ff" stroke="#63b8ff" points="43.5,-122.24 47,-132.24 50.5,-122.24 43.5,-122.24"/>
</a>
</g>
</g>
<!-- Node4 -->
<g id="Node000004" class="node">
<title>Node4</title>
<g id="a_Node000004"><a xlink:title=" ">
<polygon fill="white" stroke="#666666" points="193.62,-97 94.38,-97 94.38,-77.75 193.62,-77.75 193.62,-97"/>
<text text-anchor="middle" x="144" y="-83.5" font-family="Helvetica,sans-Serif" font-size="10.00">std::vector&lt; char &gt;</text>
</a>
</g>
</g>
<!-- Node4&#45;&gt;Node1 -->
<g id="edge3_Node000001_Node000004" class="edge">
<title>Node4&#45;&gt;Node1</title>
<g id="a_edge3_Node000001_Node000004"><a xlink:title=" ">
<path fill="none" stroke="#9a32cd" stroke-dasharray="5,2" d="M137.21,-66.87C133.46,-57.48 128.29,-46.32 122,-37.25 117.5,-30.76 111.28,-24.5 105.95,-19.69"/>
<polygon fill="#9a32cd" stroke="#9a32cd" points="133.87,-67.95 140.63,-76.1 140.44,-65.51 133.87,-67.95"/>
</a>
</g>
<text text-anchor="middle" x="157.96" y="-44.62" font-family="Helvetica,sans-Serif" font-size="10.00" fill="grey"> m_in_data</text>
</g>
</g>
</svg>
