<?xml version="1.0" encoding="UTF-8" standalone="no"?>
<!DOCTYPE svg PUBLIC "-//W3C//DTD SVG 1.1//EN"
 "http://www.w3.org/Graphics/SVG/1.1/DTD/svg11.dtd">
<!-- Generated by graphviz version 12.2.1 (20241206.2353)
 -->
<!-- Title: TcpClient Pages: 1 -->
<svg width="188pt" height="83pt"
 viewBox="0.00 0.00 187.50 82.50" xmlns="http://www.w3.org/2000/svg" xmlns:xlink="http://www.w3.org/1999/xlink">
<g id="graph0" class="graph" transform="scale(1 1) rotate(0) translate(4 78.5)">
<title>TcpClient</title>
<!-- Node1 -->
<g id="Node000001" class="node">
<title>Node1</title>
<g id="a_Node000001"><a xlink:title="Class that defines a TCP client.">
<polygon fill="#999999" stroke="#666666" points="116.38,-74.5 59.12,-74.5 59.12,-55.25 116.38,-55.25 116.38,-74.5"/>
<text text-anchor="middle" x="87.75" y="-61" font-family="Helvetica,sans-Serif" font-size="10.00">TcpClient</text>
</a>
</g>
</g>
<!-- Node2 -->
<g id="Node000002" class="node">
<title>Node2</title>
<g id="a_Node000002"><a xlink:href="class_publisher_core.html" target="_top" xlink:title="Class that defines the core logic of a publisher.">
<polygon fill="white" stroke="#666666" points="77.5,-19.25 0,-19.25 0,0 77.5,0 77.5,-19.25"/>
<text text-anchor="middle" x="38.75" y="-5.75" font-family="Helvetica,sans-Serif" font-size="10.00">PublisherCore</text>
</a>
</g>
</g>
<!-- Node1&#45;&gt;Node2 -->
<g id="edge1_Node000001_Node000002" class="edge">
<title>Node1&#45;&gt;Node2</title>
<g id="a_edge1_Node000001_Node000002"><a xlink:title=" ">
<path fill="none" stroke="#63b8ff" d="M72.03,-46.79C63.71,-37.75 53.84,-27.02 47.02,-19.61"/>
<polygon fill="#63b8ff" stroke="#63b8ff" points="69.29,-48.98 78.63,-53.97 74.44,-44.24 69.29,-48.98"/>
</a>
</g>
</g>
<!-- Node3 -->
<g id="Node000003" class="node">
<title>Node3</title>
<g id="a_Node000003"><a xlink:href="class_subscriber_core.html" target="_top" xlink:title="Class that defines the core logic of a subscriber.">
<polygon fill="white" stroke="#666666" points="179.5,-19.25 96,-19.25 96,0 179.5,0 179.5,-19.25"/>
<text text-anchor="middle" x="137.75" y="-5.75" font-family="Helvetica,sans-Serif" font-size="10.00">SubscriberCore</text>
</a>
</g>
</g>
<!-- Node1&#45;&gt;Node3 -->
<g id="edge2_Node000001_Node000003" class="edge">
<title>Node1&#45;&gt;Node3</title>
<g id="a_edge2_Node000001_Node000003"><a xlink:title=" ">
<path fill="none" stroke="#63b8ff" d="M103.79,-46.79C112.28,-37.75 122.35,-27.02 129.31,-19.61"/>
<polygon fill="#63b8ff" stroke="#63b8ff" points="101.34,-44.29 97.04,-53.98 106.44,-49.08 101.34,-44.29"/>
</a>
</g>
</g>
</g>
</svg>
