<?xml version="1.0" encoding="UTF-8" standalone="no"?>
<!DOCTYPE svg PUBLIC "-//W3C//DTD SVG 1.1//EN"
 "http://www.w3.org/Graphics/SVG/1.1/DTD/svg11.dtd">
<!-- Generated by graphviz version 12.2.1 (20241206.2353)
 -->
<!-- Title: Buffer&lt; T &gt; Pages: 1 -->
<svg width="108pt" height="161pt"
 viewBox="0.00 0.00 108.25 161.25" xmlns="http://www.w3.org/2000/svg" xmlns:xlink="http://www.w3.org/1999/xlink">
<g id="graph0" class="graph" transform="scale(1 1) rotate(0) translate(4 157.25)">
<title>Buffer&lt; T &gt;</title>
<!-- Node1 -->
<g id="Node000001" class="node">
<title>Node1</title>
<g id="a_Node000001"><a xlink:title="Class that defines a buffer to store a collection of elements.">
<polygon fill="#999999" stroke="#666666" points="79.38,-19.25 14.63,-19.25 14.63,0 79.38,0 79.38,-19.25"/>
<text text-anchor="middle" x="47" y="-5.75" font-family="Helvetica,sans-Serif" font-size="10.00">Buffer&lt; T &gt;</text>
</a>
</g>
</g>
<!-- Node2 -->
<g id="Node000002" class="node">
<title>Node2</title>
<g id="a_Node000002"><a xlink:title=" ">
<polygon fill="white" stroke="#666666" points="76.75,-85.75 17.25,-85.75 17.25,-66.5 76.75,-66.5 76.75,-85.75"/>
<text text-anchor="middle" x="47" y="-72.25" font-family="Helvetica,sans-Serif" font-size="10.00">std::string</text>
</a>
</g>
</g>
<!-- Node2&#45;&gt;Node1 -->
<g id="edge1_Node000001_Node000002" class="edge">
<title>Node2&#45;&gt;Node1</title>
<g id="a_edge1_Node000001_Node000002"><a xlink:title=" ">
<path fill="none" stroke="#9a32cd" stroke-dasharray="5,2" d="M47,-54.65C47,-42.82 47,-28.54 47,-19.52"/>
<polygon fill="#9a32cd" stroke="#9a32cd" points="43.5,-54.64 47,-64.64 50.5,-54.64 43.5,-54.64"/>
</a>
</g>
<text text-anchor="middle" x="73.62" y="-39" font-family="Helvetica,sans-Serif" font-size="10.00" fill="grey"> m_file_path</text>
</g>
<!-- Node3 -->
<g id="Node000003" class="node">
<title>Node3</title>
<g id="a_Node000003"><a xlink:title=" ">
<polygon fill="white" stroke="#666666" points="94,-153.25 0,-153.25 0,-122.75 94,-122.75 94,-153.25"/>
<text text-anchor="start" x="8" y="-139.75" font-family="Helvetica,sans-Serif" font-size="10.00">std::basic_string&lt;</text>
<text text-anchor="middle" x="47" y="-128.5" font-family="Helvetica,sans-Serif" font-size="10.00"> Char &gt;</text>
</a>
</g>
</g>
<!-- Node3&#45;&gt;Node2 -->
<g id="edge2_Node000002_Node000003" class="edge">
<title>Node3&#45;&gt;Node2</title>
<g id="a_edge2_Node000002_Node000003"><a xlink:title=" ">
<path fill="none" stroke="#63b8ff" d="M47,-111.27C47,-102.29 47,-92.79 47,-86.1"/>
<polygon fill="#63b8ff" stroke="#63b8ff" points="43.5,-110.99 47,-120.99 50.5,-110.99 43.5,-110.99"/>
</a>
</g>
</g>
</g>
</svg>
