<?xml version="1.0" encoding="UTF-8" standalone="no"?>
<!DOCTYPE svg PUBLIC "-//W3C//DTD SVG 1.1//EN"
 "http://www.w3.org/Graphics/SVG/1.1/DTD/svg11.dtd">
<!-- Generated by graphviz version 12.2.1 (20241206.2353)
 -->
<!-- Title: SimpleBuffer&lt; T &gt; Pages: 1 -->
<svg width="228pt" height="352pt"
 viewBox="0.00 0.00 227.88 351.50" xmlns="http://www.w3.org/2000/svg" xmlns:xlink="http://www.w3.org/1999/xlink">
<g id="graph0" class="graph" transform="scale(1 1) rotate(0) translate(4 347.5)">
<title>SimpleBuffer&lt; T &gt;</title>
<!-- Node1 -->
<g id="Node000001" class="node">
<title>Node1</title>
<g id="a_Node000001"><a xlink:title=" ">
<polygon fill="#999999" stroke="#666666" points="154.38,-19.25 59.62,-19.25 59.62,0 154.38,0 154.38,-19.25"/>
<text text-anchor="middle" x="107" y="-5.75" font-family="Helvetica,sans-Serif" font-size="10.00">SimpleBuffer&lt; T &gt;</text>
</a>
</g>
</g>
<!-- Node2 -->
<g id="Node000002" class="node">
<title>Node2</title>
<g id="a_Node000002"><a xlink:href="class_buffer.html" target="_top" xlink:title="Class that defines a buffer to store a collection of elements.">
<polygon fill="white" stroke="#666666" points="96.38,-85.75 31.62,-85.75 31.62,-66.5 96.38,-66.5 96.38,-85.75"/>
<text text-anchor="middle" x="64" y="-72.25" font-family="Helvetica,sans-Serif" font-size="10.00">Buffer&lt; T &gt;</text>
</a>
</g>
</g>
<!-- Node2&#45;&gt;Node1 -->
<g id="edge1_Node000001_Node000002" class="edge">
<title>Node2&#45;&gt;Node1</title>
<g id="a_edge1_Node000001_Node000002"><a xlink:title=" ">
<path fill="none" stroke="#63b8ff" d="M76.16,-56.88C84.31,-44.66 94.67,-29.11 101.07,-19.52"/>
<polygon fill="#63b8ff" stroke="#63b8ff" points="73.45,-54.64 70.82,-64.9 79.28,-58.52 73.45,-54.64"/>
</a>
</g>
</g>
<!-- Node3 -->
<g id="Node000003" class="node">
<title>Node3</title>
<g id="a_Node000003"><a xlink:title=" ">
<polygon fill="white" stroke="#666666" points="84.75,-157.88 25.25,-157.88 25.25,-138.62 84.75,-138.62 84.75,-157.88"/>
<text text-anchor="middle" x="55" y="-144.38" font-family="Helvetica,sans-Serif" font-size="10.00">std::string</text>
</a>
</g>
</g>
<!-- Node3&#45;&gt;Node2 -->
<g id="edge2_Node000002_Node000003" class="edge">
<title>Node3&#45;&gt;Node2</title>
<g id="a_edge2_Node000002_Node000003"><a xlink:title=" ">
<path fill="none" stroke="#9a32cd" stroke-dasharray="5,2" d="M57.56,-127.28C59.3,-113.74 61.51,-96.49 62.84,-86.16"/>
<polygon fill="#9a32cd" stroke="#9a32cd" points="54.13,-126.5 56.33,-136.87 61.08,-127.39 54.13,-126.5"/>
</a>
</g>
<text text-anchor="middle" x="87.2" y="-105.5" font-family="Helvetica,sans-Serif" font-size="10.00" fill="grey"> m_file_path</text>
</g>
<!-- Node4 -->
<g id="Node000004" class="node">
<title>Node4</title>
<g id="a_Node000004"><a xlink:title=" ">
<polygon fill="white" stroke="#666666" points="94,-231 0,-231 0,-200.5 94,-200.5 94,-231"/>
<text text-anchor="start" x="8" y="-217.5" font-family="Helvetica,sans-Serif" font-size="10.00">std::basic_string&lt;</text>
<text text-anchor="middle" x="47" y="-206.25" font-family="Helvetica,sans-Serif" font-size="10.00"> Char &gt;</text>
</a>
</g>
</g>
<!-- Node4&#45;&gt;Node3 -->
<g id="edge3_Node000003_Node000004" class="edge">
<title>Node4&#45;&gt;Node3</title>
<g id="a_edge3_Node000003_Node000004"><a xlink:title=" ">
<path fill="none" stroke="#63b8ff" d="M50.13,-189.09C51.46,-178.22 52.92,-166.25 53.89,-158.3"/>
<polygon fill="#63b8ff" stroke="#63b8ff" points="46.7,-188.36 48.96,-198.71 53.65,-189.21 46.7,-188.36"/>
</a>
</g>
</g>
<!-- Node5 -->
<g id="Node000005" class="node">
<title>Node5</title>
<g id="a_Node000005"><a xlink:title=" ">
<polygon fill="white" stroke="#666666" points="190.88,-85.75 117.12,-85.75 117.12,-66.5 190.88,-66.5 190.88,-85.75"/>
<text text-anchor="middle" x="154" y="-72.25" font-family="Helvetica,sans-Serif" font-size="10.00">std::ofstream</text>
</a>
</g>
</g>
<!-- Node5&#45;&gt;Node1 -->
<g id="edge4_Node000001_Node000005" class="edge">
<title>Node5&#45;&gt;Node1</title>
<g id="a_edge4_Node000001_Node000005"><a xlink:title=" ">
<path fill="none" stroke="#9a32cd" stroke-dasharray="5,2" d="M140.7,-56.88C131.8,-44.66 120.47,-29.11 113.48,-19.52"/>
<polygon fill="#9a32cd" stroke="#9a32cd" points="137.86,-58.91 146.57,-64.93 143.51,-54.79 137.86,-58.91"/>
</a>
</g>
<text text-anchor="middle" x="165.56" y="-39" font-family="Helvetica,sans-Serif" font-size="10.00" fill="grey"> m_file_stream</text>
</g>
<!-- Node6 -->
<g id="Node000006" class="node">
<title>Node6</title>
<g id="a_Node000006"><a xlink:title=" ">
<polygon fill="white" stroke="#666666" points="209.12,-163.5 106.88,-163.5 106.88,-133 209.12,-133 209.12,-163.5"/>
<text text-anchor="start" x="114.88" y="-150" font-family="Helvetica,sans-Serif" font-size="10.00">std::basic_ofstream</text>
<text text-anchor="middle" x="158" y="-138.75" font-family="Helvetica,sans-Serif" font-size="10.00">&lt; Char &gt;</text>
</a>
</g>
</g>
<!-- Node6&#45;&gt;Node5 -->
<g id="edge5_Node000005_Node000006" class="edge">
<title>Node6&#45;&gt;Node5</title>
<g id="a_edge5_Node000005_Node000006"><a xlink:title=" ">
<path fill="none" stroke="#63b8ff" d="M156.53,-121.48C155.82,-108.98 155.01,-94.77 154.5,-85.88"/>
<polygon fill="#63b8ff" stroke="#63b8ff" points="153.02,-121.42 157.08,-131.21 160.01,-121.03 153.02,-121.42"/>
</a>
</g>
</g>
<!-- Node7 -->
<g id="Node000007" class="node">
<title>Node7</title>
<g id="a_Node000007"><a xlink:title=" ">
<polygon fill="white" stroke="#666666" points="211.62,-231 112.38,-231 112.38,-200.5 211.62,-200.5 211.62,-231"/>
<text text-anchor="start" x="120.38" y="-217.5" font-family="Helvetica,sans-Serif" font-size="10.00">std::basic_ostream</text>
<text text-anchor="middle" x="162" y="-206.25" font-family="Helvetica,sans-Serif" font-size="10.00">&lt; Char &gt;</text>
</a>
</g>
</g>
<!-- Node7&#45;&gt;Node6 -->
<g id="edge6_Node000006_Node000007" class="edge">
<title>Node7&#45;&gt;Node6</title>
<g id="a_edge6_Node000006_Node000007"><a xlink:title=" ">
<path fill="none" stroke="#63b8ff" d="M160.42,-188.84C159.9,-180.3 159.34,-171.12 158.89,-163.75"/>
<polygon fill="#63b8ff" stroke="#63b8ff" points="156.92,-188.93 161.02,-198.7 163.9,-188.51 156.92,-188.93"/>
</a>
</g>
</g>
<!-- Node8 -->
<g id="Node000008" class="node">
<title>Node8</title>
<g id="a_Node000008"><a xlink:title=" ">
<polygon fill="white" stroke="#666666" points="219.88,-287.25 104.12,-287.25 104.12,-268 219.88,-268 219.88,-287.25"/>
<text text-anchor="middle" x="162" y="-273.75" font-family="Helvetica,sans-Serif" font-size="10.00">std::basic_ios&lt; Char &gt;</text>
</a>
</g>
</g>
<!-- Node8&#45;&gt;Node7 -->
<g id="edge7_Node000007_Node000008" class="edge">
<title>Node8&#45;&gt;Node7</title>
<g id="a_edge7_Node000007_Node000008"><a xlink:title=" ">
<path fill="none" stroke="#63b8ff" d="M162,-256.19C162,-247.93 162,-238.59 162,-231.07"/>
<polygon fill="#63b8ff" stroke="#63b8ff" points="158.5,-256.02 162,-266.02 165.5,-256.02 158.5,-256.02"/>
</a>
</g>
</g>
<!-- Node9 -->
<g id="Node000009" class="node">
<title>Node9</title>
<g id="a_Node000009"><a xlink:title=" ">
<polygon fill="white" stroke="#666666" points="199.25,-343.5 124.75,-343.5 124.75,-324.25 199.25,-324.25 199.25,-343.5"/>
<text text-anchor="middle" x="162" y="-330" font-family="Helvetica,sans-Serif" font-size="10.00">std::ios_base</text>
</a>
</g>
</g>
<!-- Node9&#45;&gt;Node8 -->
<g id="edge8_Node000008_Node000009" class="edge">
<title>Node9&#45;&gt;Node8</title>
<g id="a_edge8_Node000008_Node000009"><a xlink:title=" ">
<path fill="none" stroke="#63b8ff" d="M162,-312.69C162,-303.98 162,-294.24 162,-287.42"/>
<polygon fill="#63b8ff" stroke="#63b8ff" points="158.5,-312.4 162,-322.4 165.5,-312.4 158.5,-312.4"/>
</a>
</g>
</g>
</g>
</svg>
