<?xml version="1.0" encoding="UTF-8" standalone="no"?>
<!DOCTYPE svg PUBLIC "-//W3C//DTD SVG 1.1//EN"
 "http://www.w3.org/Graphics/SVG/1.1/DTD/svg11.dtd">
<!-- Generated by graphviz version 12.2.1 (20241206.2353)
 -->
<!-- Title: SubBroker Pages: 1 -->
<svg width="1100pt" height="425pt"
 viewBox="0.00 0.00 1100.00 424.50" xmlns="http://www.w3.org/2000/svg" xmlns:xlink="http://www.w3.org/1999/xlink">
<g id="graph0" class="graph" transform="scale(1 1) rotate(0) translate(4 420.5)">
<title>SubBroker</title>
<!-- Node1 -->
<g id="Node000001" class="node">
<title>Node1</title>
<g id="a_Node000001"><a xlink:title="Class that defines the SubBroker. It manages subscriptions and acts as an intermediary between the Pu...">
<polygon fill="#999999" stroke="#666666" points="1092,-203.5 1030.25,-203.5 1030.25,-184.25 1092,-184.25 1092,-203.5"/>
<text text-anchor="middle" x="1061.12" y="-190" font-family="Helvetica,sans-Serif" font-size="10.00">SubBroker</text>
</a>
</g>
</g>
<!-- Node2 -->
<g id="Node000002" class="node">
<title>Node2</title>
<g id="a_Node000002"><a xlink:href="class_peer_tcp_server.html" target="_top" xlink:title="Class that defines a peer TCP server.">
<polygon fill="white" stroke="#666666" points="845.12,-392.5 764.62,-392.5 764.62,-373.25 845.12,-373.25 845.12,-392.5"/>
<text text-anchor="middle" x="804.88" y="-379" font-family="Helvetica,sans-Serif" font-size="10.00">PeerTcpServer</text>
</a>
</g>
</g>
<!-- Node2&#45;&gt;Node1 -->
<g id="edge1_Node000001_Node000002" class="edge">
<title>Node2&#45;&gt;Node1</title>
<g id="a_edge1_Node000001_Node000002"><a xlink:title=" ">
<path fill="none" stroke="#63b8ff" d="M856.83,-387.24C902.89,-388.31 969.81,-382.31 1012.25,-344.88 1055.14,-307.03 1059.94,-231 1060.23,-203.82"/>
<polygon fill="#63b8ff" stroke="#63b8ff" points="857.22,-383.75 847.1,-386.88 856.97,-390.74 857.22,-383.75"/>
</a>
</g>
</g>
<!-- Node3 -->
<g id="Node000003" class="node">
<title>Node3</title>
<g id="a_Node000003"><a xlink:href="class_tcp_server.html" target="_top" xlink:title="Class that defines a TCP server.">
<polygon fill="white" stroke="#666666" points="632.38,-392.5 572.12,-392.5 572.12,-373.25 632.38,-373.25 632.38,-392.5"/>
<text text-anchor="middle" x="602.25" y="-379" font-family="Helvetica,sans-Serif" font-size="10.00">TcpServer</text>
</a>
</g>
</g>
<!-- Node3&#45;&gt;Node2 -->
<g id="edge2_Node000002_Node000003" class="edge">
<title>Node3&#45;&gt;Node2</title>
<g id="a_edge2_Node000002_Node000003"><a xlink:title=" ">
<path fill="none" stroke="#63b8ff" d="M644.15,-382.88C679.33,-382.88 729.74,-382.88 764.48,-382.88"/>
<polygon fill="#63b8ff" stroke="#63b8ff" points="644.37,-379.38 634.37,-382.88 644.37,-386.38 644.37,-379.38"/>
</a>
</g>
</g>
<!-- Node4 -->
<g id="Node000004" class="node">
<title>Node4</title>
<g id="a_Node000004"><a xlink:href="class_tcp_ip_id.html" target="_top" xlink:title="Class to handle TCP/IP endpoints.">
<polygon fill="white" stroke="#666666" points="379.38,-349.5 331.12,-349.5 331.12,-330.25 379.38,-330.25 379.38,-349.5"/>
<text text-anchor="middle" x="355.25" y="-336" font-family="Helvetica,sans-Serif" font-size="10.00">TcpIpId</text>
</a>
</g>
</g>
<!-- Node4&#45;&gt;Node2 -->
<g id="edge8_Node000002_Node000004" class="edge">
<title>Node4&#45;&gt;Node2</title>
<g id="a_edge8_Node000002_Node000004"><a xlink:title=" ">
<path fill="none" stroke="#9a32cd" stroke-dasharray="5,2" d="M390.79,-339.38C447.93,-338.98 565.63,-340 664.25,-352.62 699.06,-357.08 738.05,-365.85 765.96,-372.81"/>
<polygon fill="#9a32cd" stroke="#9a32cd" points="391.03,-335.87 381.06,-339.46 391.09,-342.87 391.03,-335.87"/>
</a>
</g>
<text text-anchor="middle" x="602.25" y="-354.38" font-family="Helvetica,sans-Serif" font-size="10.00" fill="grey"> m_peer_id</text>
</g>
<!-- Node4&#45;&gt;Node3 -->
<g id="edge3_Node000003_Node000004" class="edge">
<title>Node4&#45;&gt;Node3</title>
<g id="a_edge3_Node000003_Node000004"><a xlink:title=" ">
<path fill="none" stroke="#9a32cd" stroke-dasharray="5,2" d="M390.88,-345.95C439.29,-354.45 526.35,-369.73 571.81,-377.71"/>
<polygon fill="#9a32cd" stroke="#9a32cd" points="391.69,-342.54 381.23,-344.26 390.48,-349.44 391.69,-342.54"/>
</a>
</g>
<text text-anchor="middle" x="480.25" y="-370.72" font-family="Helvetica,sans-Serif" font-size="10.00" fill="grey"> m_id</text>
</g>
<!-- Node5 -->
<g id="Node000005" class="node">
<title>Node5</title>
<g id="a_Node000005"><a xlink:href="class_id.html" target="_top" xlink:title="Abstract class of an ID.">
<polygon fill="white" stroke="#666666" points="175.15,-349.5 146.35,-349.5 146.35,-330.25 175.15,-330.25 175.15,-349.5"/>
<text text-anchor="middle" x="160.75" y="-336" font-family="Helvetica,sans-Serif" font-size="10.00">Id</text>
</a>
</g>
</g>
<!-- Node5&#45;&gt;Node4 -->
<g id="edge4_Node000004_Node000005" class="edge">
<title>Node5&#45;&gt;Node4</title>
<g id="a_edge4_Node000004_Node000005"><a xlink:title=" ">
<path fill="none" stroke="#63b8ff" d="M186.95,-339.88C224.38,-339.88 294.15,-339.88 330.64,-339.88"/>
<polygon fill="#63b8ff" stroke="#63b8ff" points="187.11,-336.38 177.11,-339.88 187.11,-343.38 187.11,-336.38"/>
</a>
</g>
</g>
<!-- Node6 -->
<g id="Node000006" class="node">
<title>Node6</title>
<g id="a_Node000006"><a xlink:title=" ">
<polygon fill="white" stroke="#666666" points="190.5,-287.5 131,-287.5 131,-268.25 190.5,-268.25 190.5,-287.5"/>
<text text-anchor="middle" x="160.75" y="-274" font-family="Helvetica,sans-Serif" font-size="10.00">std::string</text>
</a>
</g>
</g>
<!-- Node6&#45;&gt;Node1 -->
<g id="edge9_Node000001_Node000006" class="edge">
<title>Node6&#45;&gt;Node1</title>
<g id="a_edge9_Node000001_Node000006"><a xlink:title=" ">
<path fill="none" stroke="#9a32cd" stroke-dasharray="5,2" d="M189.93,-262.67C226.66,-244.32 293.37,-215.88 354.25,-215.88 354.25,-215.88 354.25,-215.88 805.88,-215.88 897.81,-215.88 920.94,-212.57 1012.25,-201.88 1017.94,-201.21 1023.99,-200.33 1029.8,-199.4"/>
<polygon fill="#9a32cd" stroke="#9a32cd" points="188.62,-259.41 181.32,-267.09 191.81,-265.64 188.62,-259.41"/>
</a>
</g>
<text text-anchor="middle" x="602.25" y="-240.12" font-family="Helvetica,sans-Serif" font-size="10.00" fill="grey"> m_logs_path</text>
<text text-anchor="middle" x="602.25" y="-228.88" font-family="Helvetica,sans-Serif" font-size="10.00" fill="grey">m_subscribers_path</text>
<text text-anchor="middle" x="602.25" y="-217.62" font-family="Helvetica,sans-Serif" font-size="10.00" fill="grey">m_topics_path</text>
</g>
<!-- Node6&#45;&gt;Node4 -->
<g id="edge5_Node000004_Node000006" class="edge">
<title>Node6&#45;&gt;Node4</title>
<g id="a_edge5_Node000004_Node000006"><a xlink:title=" ">
<path fill="none" stroke="#9a32cd" stroke-dasharray="5,2" d="M201.94,-290.82C240.95,-303.38 298.8,-322.02 330.81,-332.32"/>
<polygon fill="#9a32cd" stroke="#9a32cd" points="203.02,-287.49 192.43,-287.76 200.87,-294.15 203.02,-287.49"/>
</a>
</g>
<text text-anchor="middle" x="240.38" y="-314.34" font-family="Helvetica,sans-Serif" font-size="10.00" fill="grey"> m_ip_address</text>
</g>
<!-- Node9 -->
<g id="Node000009" class="node">
<title>Node9</title>
<g id="a_Node000009"><a xlink:title=" ">
<polygon fill="white" stroke="#666666" points="664.25,-287.5 540.25,-287.5 540.25,-268.25 664.25,-268.25 664.25,-287.5"/>
<text text-anchor="middle" x="602.25" y="-274" font-family="Helvetica,sans-Serif" font-size="10.00">std::vector&lt; std::string &gt;</text>
</a>
</g>
</g>
<!-- Node6&#45;&gt;Node9 -->
<g id="edge11_Node000009_Node000006" class="edge">
<title>Node6&#45;&gt;Node9</title>
<g id="a_edge11_Node000009_Node000006"><a xlink:title=" ">
<path fill="none" stroke="#9a32cd" stroke-dasharray="5,2" d="M202.08,-277.88C279.36,-277.88 448.75,-277.88 540.05,-277.88"/>
<polygon fill="#9a32cd" stroke="#9a32cd" points="202.44,-274.38 192.44,-277.88 202.44,-281.38 202.44,-274.38"/>
</a>
</g>
<text text-anchor="middle" x="355.25" y="-279.62" font-family="Helvetica,sans-Serif" font-size="10.00" fill="grey"> elements</text>
</g>
<!-- Node7 -->
<g id="Node000007" class="node">
<title>Node7</title>
<g id="a_Node000007"><a xlink:title=" ">
<polygon fill="white" stroke="#666666" points="94,-293.12 0,-293.12 0,-262.62 94,-262.62 94,-293.12"/>
<text text-anchor="start" x="8" y="-279.62" font-family="Helvetica,sans-Serif" font-size="10.00">std::basic_string&lt;</text>
<text text-anchor="middle" x="47" y="-268.38" font-family="Helvetica,sans-Serif" font-size="10.00"> Char &gt;</text>
</a>
</g>
</g>
<!-- Node7&#45;&gt;Node6 -->
<g id="edge6_Node000006_Node000007" class="edge">
<title>Node7&#45;&gt;Node6</title>
<g id="a_edge6_Node000006_Node000007"><a xlink:title=" ">
<path fill="none" stroke="#63b8ff" d="M105.71,-277.88C114.32,-277.88 122.87,-277.88 130.55,-277.88"/>
<polygon fill="#63b8ff" stroke="#63b8ff" points="105.93,-274.38 95.93,-277.88 105.93,-281.38 105.93,-274.38"/>
</a>
</g>
</g>
<!-- Node8 -->
<g id="Node000008" class="node">
<title>Node8</title>
<g id="a_Node000008"><a xlink:title=" ">
<polygon fill="white" stroke="#666666" points="420.25,-416.5 290.25,-416.5 290.25,-397.25 420.25,-397.25 420.25,-416.5"/>
<text text-anchor="middle" x="355.25" y="-403" font-family="Helvetica,sans-Serif" font-size="10.00">std::set&lt; p_tcp_session &gt;</text>
</a>
</g>
</g>
<!-- Node8&#45;&gt;Node3 -->
<g id="edge7_Node000003_Node000008" class="edge">
<title>Node8&#45;&gt;Node3</title>
<g id="a_edge7_Node000003_Node000008"><a xlink:title=" ">
<path fill="none" stroke="#9a32cd" stroke-dasharray="5,2" d="M432.06,-399.45C479.28,-394.82 537.38,-389.13 571.75,-385.77"/>
<polygon fill="#9a32cd" stroke="#9a32cd" points="431.74,-395.96 422.13,-400.42 432.42,-402.93 431.74,-395.96"/>
</a>
</g>
<text text-anchor="middle" x="480.25" y="-400.18" font-family="Helvetica,sans-Serif" font-size="10.00" fill="grey"> m_client_sessions</text>
</g>
<!-- Node9&#45;&gt;Node1 -->
<g id="edge10_Node000001_Node000009" class="edge">
<title>Node9&#45;&gt;Node1</title>
<g id="a_edge10_Node000001_Node000009"><a xlink:title=" ">
<path fill="none" stroke="#9a32cd" stroke-dasharray="5,2" d="M675.71,-273.92C776.36,-267.66 952.81,-253.67 1012.25,-229.88 1026.92,-224 1041.05,-212.41 1050.11,-203.96"/>
<polygon fill="#9a32cd" stroke="#9a32cd" points="675.7,-270.42 665.93,-274.52 676.13,-277.41 675.7,-270.42"/>
</a>
</g>
<text text-anchor="middle" x="804.88" y="-304.56" font-family="Helvetica,sans-Serif" font-size="10.00" fill="grey"> m_subscribers_identities</text>
<text text-anchor="middle" x="804.88" y="-293.31" font-family="Helvetica,sans-Serif" font-size="10.00" fill="grey">m_subscribers_ip_endpoints</text>
<text text-anchor="middle" x="804.88" y="-282.06" font-family="Helvetica,sans-Serif" font-size="10.00" fill="grey">m_subscribers_topics</text>
<text text-anchor="middle" x="804.88" y="-270.81" font-family="Helvetica,sans-Serif" font-size="10.00" fill="grey">m_topics</text>
</g>
<!-- Node14 -->
<g id="Node000014" class="node">
<title>Node14</title>
<g id="a_Node000014"><a xlink:title=" ">
<polygon fill="white" stroke="#666666" points="863.88,-355.12 745.88,-355.12 745.88,-324.62 863.88,-324.62 863.88,-355.12"/>
<text text-anchor="start" x="753.88" y="-341.62" font-family="Helvetica,sans-Serif" font-size="10.00">std::vector&lt; std::vector</text>
<text text-anchor="middle" x="804.88" y="-330.38" font-family="Helvetica,sans-Serif" font-size="10.00">&lt; std::string &gt; &gt;</text>
</a>
</g>
</g>
<!-- Node9&#45;&gt;Node14 -->
<g id="edge17_Node000014_Node000009" class="edge">
<title>Node9&#45;&gt;Node14</title>
<g id="a_edge17_Node000014_Node000009"><a xlink:title=" ">
<path fill="none" stroke="#9a32cd" stroke-dasharray="5,2" d="M647.98,-291.18C671.02,-298.08 699.54,-306.71 725,-314.62 734.89,-317.7 745.45,-321.04 755.53,-324.26"/>
<polygon fill="#9a32cd" stroke="#9a32cd" points="649.18,-287.89 638.6,-288.38 647.17,-294.59 649.18,-287.89"/>
</a>
</g>
<text text-anchor="middle" x="703.62" y="-316.38" font-family="Helvetica,sans-Serif" font-size="10.00" fill="grey"> elements</text>
</g>
<!-- Node10 -->
<g id="Node000010" class="node">
<title>Node10</title>
<g id="a_Node000010"><a xlink:title=" ">
<polygon fill="white" stroke="#666666" points="856.38,-188.12 753.38,-188.12 753.38,-157.62 856.38,-157.62 856.38,-188.12"/>
<text text-anchor="start" x="761.38" y="-174.62" font-family="Helvetica,sans-Serif" font-size="10.00">std::vector&lt; p_topic</text>
<text text-anchor="middle" x="804.88" y="-163.38" font-family="Helvetica,sans-Serif" font-size="10.00">_sub_broker &gt;</text>
</a>
</g>
</g>
<!-- Node10&#45;&gt;Node1 -->
<g id="edge12_Node000001_Node000010" class="edge">
<title>Node10&#45;&gt;Node1</title>
<g id="a_edge12_Node000001_Node000010"><a xlink:title=" ">
<path fill="none" stroke="#9a32cd" stroke-dasharray="5,2" d="M868.04,-178.01C919.49,-182.26 990.37,-188.11 1030.07,-191.39"/>
<polygon fill="#9a32cd" stroke="#9a32cd" points="868.48,-174.53 858.22,-177.2 867.9,-181.51 868.48,-174.53"/>
</a>
</g>
<text text-anchor="middle" x="948.5" y="-191.61" font-family="Helvetica,sans-Serif" font-size="10.00" fill="grey"> m_topics_handlers</text>
</g>
<!-- Node11 -->
<g id="Node000011" class="node">
<title>Node11</title>
<g id="a_Node000011"><a xlink:title=" ">
<polygon fill="white" stroke="#666666" points="860.12,-139.12 749.62,-139.12 749.62,-108.62 860.12,-108.62 860.12,-139.12"/>
<text text-anchor="start" x="757.62" y="-125.62" font-family="Helvetica,sans-Serif" font-size="10.00">std::vector&lt; unsigned</text>
<text text-anchor="middle" x="804.88" y="-114.38" font-family="Helvetica,sans-Serif" font-size="10.00"> long long &gt;</text>
</a>
</g>
</g>
<!-- Node11&#45;&gt;Node1 -->
<g id="edge13_Node000001_Node000011" class="edge">
<title>Node11&#45;&gt;Node1</title>
<g id="a_edge13_Node000001_Node000011"><a xlink:title=" ">
<path fill="none" stroke="#9a32cd" stroke-dasharray="5,2" d="M871.68,-130.84C913.06,-136.67 967,-146.98 1012.25,-164.62 1024.59,-169.44 1037.33,-177.39 1046.56,-183.79"/>
<polygon fill="#9a32cd" stroke="#9a32cd" points="872.24,-127.38 861.86,-129.51 871.3,-134.32 872.24,-127.38"/>
</a>
</g>
<text text-anchor="middle" x="948.5" y="-166.38" font-family="Helvetica,sans-Serif" font-size="10.00" fill="grey"> m_subscribers_intervals</text>
</g>
<!-- Node12 -->
<g id="Node000012" class="node">
<title>Node12</title>
<g id="a_Node000012"><a xlink:title=" ">
<polygon fill="white" stroke="#666666" points="866.12,-90.12 743.62,-90.12 743.62,-59.62 866.12,-59.62 866.12,-90.12"/>
<text text-anchor="start" x="751.62" y="-76.62" font-family="Helvetica,sans-Serif" font-size="10.00">std::vector&lt; Aggregation</text>
<text text-anchor="middle" x="804.88" y="-65.38" font-family="Helvetica,sans-Serif" font-size="10.00">Type &gt;</text>
</a>
</g>
</g>
<!-- Node12&#45;&gt;Node1 -->
<g id="edge14_Node000001_Node000012" class="edge">
<title>Node12&#45;&gt;Node1</title>
<g id="a_edge14_Node000001_Node000012"><a xlink:title=" ">
<path fill="none" stroke="#9a32cd" stroke-dasharray="5,2" d="M877.74,-75.98C920.15,-79.8 973.03,-90.37 1012.25,-117.62 1036.25,-134.3 1050.74,-167.3 1056.8,-183.88"/>
<polygon fill="#9a32cd" stroke="#9a32cd" points="878.1,-72.5 867.86,-75.21 877.56,-79.48 878.1,-72.5"/>
</a>
</g>
<text text-anchor="middle" x="948.5" y="-119.38" font-family="Helvetica,sans-Serif" font-size="10.00" fill="grey"> m_subscribers_aggregations</text>
</g>
<!-- Node13 -->
<g id="Node000013" class="node">
<title>Node13</title>
<g id="a_Node000013"><a xlink:title=" ">
<polygon fill="white" stroke="#666666" points="863.88,-41.75 745.88,-41.75 745.88,0 863.88,0 863.88,-41.75"/>
<text text-anchor="start" x="753.88" y="-28.25" font-family="Helvetica,sans-Serif" font-size="10.00">std::vector&lt; std::vector</text>
<text text-anchor="start" x="753.88" y="-17" font-family="Helvetica,sans-Serif" font-size="10.00">&lt; std::pair&lt; std::string,</text>
<text text-anchor="middle" x="804.88" y="-5.75" font-family="Helvetica,sans-Serif" font-size="10.00"> std::string &gt; &gt; &gt;</text>
</a>
</g>
</g>
<!-- Node13&#45;&gt;Node1 -->
<g id="edge15_Node000001_Node000013" class="edge">
<title>Node13&#45;&gt;Node1</title>
<g id="a_edge15_Node000001_Node000013"><a xlink:title=" ">
<path fill="none" stroke="#9a32cd" stroke-dasharray="5,2" d="M875.59,-18.06C919.54,-19.95 974.85,-29.53 1012.25,-61.62 1050.24,-94.22 1058.09,-159.42 1059.7,-184.1"/>
<polygon fill="#9a32cd" stroke="#9a32cd" points="875.71,-14.57 865.61,-17.78 875.51,-21.56 875.71,-14.57"/>
</a>
</g>
<text text-anchor="middle" x="948.5" y="-63.38" font-family="Helvetica,sans-Serif" font-size="10.00" fill="grey"> m_schedule_topics</text>
</g>
<!-- Node14&#45;&gt;Node1 -->
<g id="edge16_Node000001_Node000014" class="edge">
<title>Node14&#45;&gt;Node1</title>
<g id="a_edge16_Node000001_Node000014"><a xlink:title=" ">
<path fill="none" stroke="#9a32cd" stroke-dasharray="5,2" d="M875.42,-331.35C918.55,-323.11 973.03,-307.05 1012.25,-275.88 1036.64,-256.49 1051.11,-221.03 1057.02,-203.8"/>
<polygon fill="#9a32cd" stroke="#9a32cd" points="874.86,-327.9 865.64,-333.11 876.1,-334.79 874.86,-327.9"/>
</a>
</g>
<text text-anchor="middle" x="948.5" y="-330.97" font-family="Helvetica,sans-Serif" font-size="10.00" fill="grey"> m_schedule_subscribers</text>
</g>
</g>
</svg>
