<?xml version="1.0" encoding="UTF-8" standalone="no"?>
<!DOCTYPE svg PUBLIC "-//W3C//DTD SVG 1.1//EN"
 "http://www.w3.org/Graphics/SVG/1.1/DTD/svg11.dtd">
<!-- Generated by graphviz version 12.2.1 (20241206.2353)
 -->
<!-- Title: TopicConfiguration Pages: 1 -->
<svg width="330pt" height="239pt"
 viewBox="0.00 0.00 329.88 239.00" xmlns="http://www.w3.org/2000/svg" xmlns:xlink="http://www.w3.org/1999/xlink">
<g id="graph0" class="graph" transform="scale(1 1) rotate(0) translate(4 235)">
<title>TopicConfiguration</title>
<!-- Node1 -->
<g id="Node000001" class="node">
<title>Node1</title>
<g id="a_Node000001"><a xlink:title="Class that defines the configuration for topics.">
<polygon fill="#999999" stroke="#666666" points="180.12,-19.25 83.12,-19.25 83.12,0 180.12,0 180.12,-19.25"/>
<text text-anchor="middle" x="131.62" y="-5.75" font-family="Helvetica,sans-Serif" font-size="10.00">TopicConfiguration</text>
</a>
</g>
</g>
<!-- Node2 -->
<g id="Node000002" class="node">
<title>Node2</title>
<g id="a_Node000002"><a xlink:href="class_payload.html" target="_top" xlink:title="Abstract class that defines different types of payloads in a message.">
<polygon fill="white" stroke="#666666" points="51.25,-91.38 0,-91.38 0,-72.12 51.25,-72.12 51.25,-91.38"/>
<text text-anchor="middle" x="25.62" y="-77.88" font-family="Helvetica,sans-Serif" font-size="10.00">Payload</text>
</a>
</g>
</g>
<!-- Node2&#45;&gt;Node1 -->
<g id="edge1_Node000001_Node000002" class="edge">
<title>Node2&#45;&gt;Node1</title>
<g id="a_edge1_Node000001_Node000002"><a xlink:title=" ">
<path fill="none" stroke="#63b8ff" d="M48.57,-65.57C69.73,-51.57 100.43,-31.26 117.97,-19.66"/>
<polygon fill="#63b8ff" stroke="#63b8ff" points="46.72,-62.6 40.31,-71.03 50.58,-68.44 46.72,-62.6"/>
</a>
</g>
</g>
<!-- Node3 -->
<g id="Node000003" class="node">
<title>Node3</title>
<g id="a_Node000003"><a xlink:title=" ">
<polygon fill="white" stroke="#666666" points="193.62,-91.38 69.62,-91.38 69.62,-72.12 193.62,-72.12 193.62,-91.38"/>
<text text-anchor="middle" x="131.62" y="-77.88" font-family="Helvetica,sans-Serif" font-size="10.00">std::vector&lt; std::string &gt;</text>
</a>
</g>
</g>
<!-- Node3&#45;&gt;Node1 -->
<g id="edge2_Node000001_Node000003" class="edge">
<title>Node3&#45;&gt;Node1</title>
<g id="a_edge2_Node000001_Node000003"><a xlink:title=" ">
<path fill="none" stroke="#9a32cd" stroke-dasharray="5,2" d="M131.62,-60.37C131.62,-46.89 131.62,-29.89 131.62,-19.66"/>
<polygon fill="#9a32cd" stroke="#9a32cd" points="128.13,-60.36 131.63,-70.36 135.13,-60.36 128.13,-60.36"/>
</a>
</g>
<text text-anchor="middle" x="153" y="-39" font-family="Helvetica,sans-Serif" font-size="10.00" fill="grey"> m_topics</text>
</g>
<!-- Node4 -->
<g id="Node000004" class="node">
<title>Node4</title>
<g id="a_Node000004"><a xlink:title=" ">
<polygon fill="white" stroke="#666666" points="161.38,-163.5 101.88,-163.5 101.88,-144.25 161.38,-144.25 161.38,-163.5"/>
<text text-anchor="middle" x="131.62" y="-150" font-family="Helvetica,sans-Serif" font-size="10.00">std::string</text>
</a>
</g>
</g>
<!-- Node4&#45;&gt;Node3 -->
<g id="edge3_Node000003_Node000004" class="edge">
<title>Node4&#45;&gt;Node3</title>
<g id="a_edge3_Node000003_Node000004"><a xlink:title=" ">
<path fill="none" stroke="#9a32cd" stroke-dasharray="5,2" d="M131.62,-132.49C131.62,-119.02 131.62,-102.01 131.62,-91.78"/>
<polygon fill="#9a32cd" stroke="#9a32cd" points="128.13,-132.48 131.63,-142.48 135.13,-132.48 128.13,-132.48"/>
</a>
</g>
<text text-anchor="middle" x="153" y="-116.75" font-family="Helvetica,sans-Serif" font-size="10.00" fill="grey"> elements</text>
</g>
<!-- Node5 -->
<g id="Node000005" class="node">
<title>Node5</title>
<g id="a_Node000005"><a xlink:title=" ">
<polygon fill="white" stroke="#666666" points="178.62,-231 84.62,-231 84.62,-200.5 178.62,-200.5 178.62,-231"/>
<text text-anchor="start" x="92.62" y="-217.5" font-family="Helvetica,sans-Serif" font-size="10.00">std::basic_string&lt;</text>
<text text-anchor="middle" x="131.62" y="-206.25" font-family="Helvetica,sans-Serif" font-size="10.00"> Char &gt;</text>
</a>
</g>
</g>
<!-- Node5&#45;&gt;Node4 -->
<g id="edge4_Node000004_Node000005" class="edge">
<title>Node5&#45;&gt;Node4</title>
<g id="a_edge4_Node000004_Node000005"><a xlink:title=" ">
<path fill="none" stroke="#63b8ff" d="M131.62,-189.02C131.62,-180.04 131.62,-170.54 131.62,-163.85"/>
<polygon fill="#63b8ff" stroke="#63b8ff" points="128.13,-188.74 131.63,-198.74 135.13,-188.74 128.13,-188.74"/>
</a>
</g>
</g>
<!-- Node6 -->
<g id="Node000006" class="node">
<title>Node6</title>
<g id="a_Node000006"><a xlink:title=" ">
<polygon fill="white" stroke="#666666" points="321.88,-97 211.38,-97 211.38,-66.5 321.88,-66.5 321.88,-97"/>
<text text-anchor="start" x="219.38" y="-83.5" font-family="Helvetica,sans-Serif" font-size="10.00">std::vector&lt; unsigned</text>
<text text-anchor="middle" x="266.62" y="-72.25" font-family="Helvetica,sans-Serif" font-size="10.00"> int &gt;</text>
</a>
</g>
</g>
<!-- Node6&#45;&gt;Node1 -->
<g id="edge5_Node000001_Node000006" class="edge">
<title>Node6&#45;&gt;Node1</title>
<g id="a_edge5_Node000001_Node000006"><a xlink:title=" ">
<path fill="none" stroke="#9a32cd" stroke-dasharray="5,2" d="M228.39,-60.89C202.37,-47.37 169.14,-30.11 149.17,-19.74"/>
<polygon fill="#9a32cd" stroke="#9a32cd" points="226.49,-63.85 236.98,-65.35 229.72,-57.64 226.49,-63.85"/>
</a>
</g>
<text text-anchor="middle" x="223.05" y="-39" font-family="Helvetica,sans-Serif" font-size="10.00" fill="grey"> m_sizes</text>
</g>
</g>
</svg>
