<?xml version="1.0" encoding="UTF-8" standalone="no"?>
<!DOCTYPE svg PUBLIC "-//W3C//DTD SVG 1.1//EN"
 "http://www.w3.org/Graphics/SVG/1.1/DTD/svg11.dtd">
<!-- Generated by graphviz version 12.2.1 (20241206.2353)
 -->
<!-- Title: TcpServer Pages: 1 -->
<svg width="218pt" height="228pt"
 viewBox="0.00 0.00 217.52 227.75" xmlns="http://www.w3.org/2000/svg" xmlns:xlink="http://www.w3.org/1999/xlink">
<g id="graph0" class="graph" transform="scale(1 1) rotate(0) translate(4 223.75)">
<title>TcpServer</title>
<!-- Node1 -->
<g id="Node000001" class="node">
<title>Node1</title>
<g id="a_Node000001"><a xlink:title="Class that defines a TCP server.">
<polygon fill="#999999" stroke="#666666" points="140.53,-19.25 80.28,-19.25 80.28,0 140.53,0 140.53,-19.25"/>
<text text-anchor="middle" x="110.4" y="-5.75" font-family="Helvetica,sans-Serif" font-size="10.00">TcpServer</text>
</a>
</g>
</g>
<!-- Node2 -->
<g id="Node000002" class="node">
<title>Node2</title>
<g id="a_Node000002"><a xlink:href="class_tcp_ip_id.html" target="_top" xlink:title="Class to handle TCP/IP endpoints.">
<polygon fill="white" stroke="#666666" points="54.53,-85.75 6.28,-85.75 6.28,-66.5 54.53,-66.5 54.53,-85.75"/>
<text text-anchor="middle" x="30.4" y="-72.25" font-family="Helvetica,sans-Serif" font-size="10.00">TcpIpId</text>
</a>
</g>
</g>
<!-- Node2&#45;&gt;Node1 -->
<g id="edge1_Node000001_Node000002" class="edge">
<title>Node2&#45;&gt;Node1</title>
<g id="a_edge1_Node000001_Node000002"><a xlink:title=" ">
<path fill="none" stroke="#9a32cd" stroke-dasharray="5,2" d="M50.3,-59.08C65.69,-46.67 86.46,-29.93 99.11,-19.73"/>
<polygon fill="#9a32cd" stroke="#9a32cd" points="48.29,-56.21 42.7,-65.21 52.68,-61.65 48.29,-56.21"/>
</a>
</g>
<text text-anchor="middle" x="87.19" y="-39" font-family="Helvetica,sans-Serif" font-size="10.00" fill="grey"> m_id</text>
</g>
<!-- Node3 -->
<g id="Node000003" class="node">
<title>Node3</title>
<g id="a_Node000003"><a xlink:href="class_id.html" target="_top" xlink:title="Abstract class of an ID.">
<polygon fill="white" stroke="#666666" points="28.8,-152.25 0,-152.25 0,-133 28.8,-133 28.8,-152.25"/>
<text text-anchor="middle" x="14.4" y="-138.75" font-family="Helvetica,sans-Serif" font-size="10.00">Id</text>
</a>
</g>
</g>
<!-- Node3&#45;&gt;Node2 -->
<g id="edge2_Node000002_Node000003" class="edge">
<title>Node3&#45;&gt;Node2</title>
<g id="a_edge2_Node000002_Node000003"><a xlink:title=" ">
<path fill="none" stroke="#63b8ff" d="M19.39,-121.52C22.34,-109.62 25.93,-95.13 28.19,-86.02"/>
<polygon fill="#63b8ff" stroke="#63b8ff" points="16,-120.64 16.99,-131.19 22.79,-122.32 16,-120.64"/>
</a>
</g>
</g>
<!-- Node4 -->
<g id="Node000004" class="node">
<title>Node4</title>
<g id="a_Node000004"><a xlink:title=" ">
<polygon fill="white" stroke="#666666" points="106.15,-152.25 46.65,-152.25 46.65,-133 106.15,-133 106.15,-152.25"/>
<text text-anchor="middle" x="76.4" y="-138.75" font-family="Helvetica,sans-Serif" font-size="10.00">std::string</text>
</a>
</g>
</g>
<!-- Node4&#45;&gt;Node2 -->
<g id="edge3_Node000002_Node000004" class="edge">
<title>Node4&#45;&gt;Node2</title>
<g id="a_edge3_Node000002_Node000004"><a xlink:title=" ">
<path fill="none" stroke="#9a32cd" stroke-dasharray="5,2" d="M63.39,-123.38C54.67,-111.16 43.59,-95.61 36.74,-86.02"/>
<polygon fill="#9a32cd" stroke="#9a32cd" points="60.47,-125.31 69.13,-131.42 66.17,-121.25 60.47,-125.31"/>
</a>
</g>
<text text-anchor="middle" x="88.03" y="-105.5" font-family="Helvetica,sans-Serif" font-size="10.00" fill="grey"> m_ip_address</text>
</g>
<!-- Node5 -->
<g id="Node000005" class="node">
<title>Node5</title>
<g id="a_Node000005"><a xlink:title=" ">
<polygon fill="white" stroke="#666666" points="123.4,-219.75 29.4,-219.75 29.4,-189.25 123.4,-189.25 123.4,-219.75"/>
<text text-anchor="start" x="37.4" y="-206.25" font-family="Helvetica,sans-Serif" font-size="10.00">std::basic_string&lt;</text>
<text text-anchor="middle" x="76.4" y="-195" font-family="Helvetica,sans-Serif" font-size="10.00"> Char &gt;</text>
</a>
</g>
</g>
<!-- Node5&#45;&gt;Node4 -->
<g id="edge4_Node000004_Node000005" class="edge">
<title>Node5&#45;&gt;Node4</title>
<g id="a_edge4_Node000004_Node000005"><a xlink:title=" ">
<path fill="none" stroke="#63b8ff" d="M76.4,-177.77C76.4,-168.79 76.4,-159.29 76.4,-152.6"/>
<polygon fill="#63b8ff" stroke="#63b8ff" points="72.9,-177.49 76.4,-187.49 79.9,-177.49 72.9,-177.49"/>
</a>
</g>
</g>
<!-- Node6 -->
<g id="Node000006" class="node">
<title>Node6</title>
<g id="a_Node000006"><a xlink:title=" ">
<polygon fill="white" stroke="#666666" points="202.4,-85.75 72.4,-85.75 72.4,-66.5 202.4,-66.5 202.4,-85.75"/>
<text text-anchor="middle" x="137.4" y="-72.25" font-family="Helvetica,sans-Serif" font-size="10.00">std::set&lt; p_tcp_session &gt;</text>
</a>
</g>
</g>
<!-- Node6&#45;&gt;Node1 -->
<g id="edge5_Node000001_Node000006" class="edge">
<title>Node6&#45;&gt;Node1</title>
<g id="a_edge5_Node000001_Node000006"><a xlink:title=" ">
<path fill="none" stroke="#9a32cd" stroke-dasharray="5,2" d="M129.3,-55.77C124.26,-43.73 118.02,-28.83 114.12,-19.52"/>
<polygon fill="#9a32cd" stroke="#9a32cd" points="125.97,-56.89 133.06,-64.76 132.43,-54.18 125.97,-56.89"/>
</a>
</g>
<text text-anchor="middle" x="167.52" y="-39" font-family="Helvetica,sans-Serif" font-size="10.00" fill="grey"> m_client_sessions</text>
</g>
</g>
</svg>
