<?xml version="1.0" encoding="UTF-8" standalone="no"?>
<!DOCTYPE svg PUBLIC "-//W3C//DTD SVG 1.1//EN"
 "http://www.w3.org/Graphics/SVG/1.1/DTD/svg11.dtd">
<!-- Generated by graphviz version 12.2.1 (20241206.2353)
 -->
<!-- Title: PublisherCore Pages: 1 -->
<svg width="349pt" height="372pt"
 viewBox="0.00 0.00 348.86 372.00" xmlns="http://www.w3.org/2000/svg" xmlns:xlink="http://www.w3.org/1999/xlink">
<g id="graph0" class="graph" transform="scale(1 1) rotate(0) translate(4 368)">
<title>PublisherCore</title>
<!-- Node1 -->
<g id="Node000001" class="node">
<title>Node1</title>
<g id="a_Node000001"><a xlink:title="Class that defines the core logic of a publisher.">
<polygon fill="#999999" stroke="#666666" points="184.15,-19.25 106.65,-19.25 106.65,0 184.15,0 184.15,-19.25"/>
<text text-anchor="middle" x="145.4" y="-5.75" font-family="Helvetica,sans-Serif" font-size="10.00">PublisherCore</text>
</a>
</g>
</g>
<!-- Node2 -->
<g id="Node000002" class="node">
<title>Node2</title>
<g id="a_Node000002"><a xlink:href="class_tcp_client.html" target="_top" xlink:title="Class that defines a TCP client.">
<polygon fill="white" stroke="#666666" points="174.03,-75.5 116.78,-75.5 116.78,-56.25 174.03,-56.25 174.03,-75.5"/>
<text text-anchor="middle" x="145.4" y="-62" font-family="Helvetica,sans-Serif" font-size="10.00">TcpClient</text>
</a>
</g>
</g>
<!-- Node2&#45;&gt;Node1 -->
<g id="edge1_Node000001_Node000002" class="edge">
<title>Node2&#45;&gt;Node1</title>
<g id="a_edge1_Node000001_Node000002"><a xlink:title=" ">
<path fill="none" stroke="#63b8ff" d="M145.4,-44.69C145.4,-35.98 145.4,-26.24 145.4,-19.42"/>
<polygon fill="#63b8ff" stroke="#63b8ff" points="141.9,-44.4 145.4,-54.4 148.9,-44.4 141.9,-44.4"/>
</a>
</g>
</g>
<!-- Node3 -->
<g id="Node000003" class="node">
<title>Node3</title>
<g id="a_Node000003"><a xlink:title=" ">
<polygon fill="white" stroke="#666666" points="106.15,-214.12 46.65,-214.12 46.65,-194.88 106.15,-194.88 106.15,-214.12"/>
<text text-anchor="middle" x="76.4" y="-200.62" font-family="Helvetica,sans-Serif" font-size="10.00">std::string</text>
</a>
</g>
</g>
<!-- Node3&#45;&gt;Node2 -->
<g id="edge2_Node000002_Node000003" class="edge">
<title>Node3&#45;&gt;Node2</title>
<g id="a_edge2_Node000002_Node000003"><a xlink:title=" ">
<path fill="none" stroke="#9a32cd" stroke-dasharray="5,2" d="M100.08,-187.75C105.77,-183.02 111.36,-177.42 115.4,-171.25 135.85,-140.02 142.61,-94.66 144.63,-75.71"/>
<polygon fill="#9a32cd" stroke="#9a32cd" points="98.33,-184.68 92.48,-193.52 102.57,-190.26 98.33,-184.68"/>
</a>
</g>
<text text-anchor="middle" x="147.8" y="-128.5" font-family="Helvetica,sans-Serif" font-size="10.00" fill="grey"> m_id</text>
</g>
<!-- Node5 -->
<g id="Node000005" class="node">
<title>Node5</title>
<g id="a_Node000005"><a xlink:href="class_tcp_ip_id.html" target="_top" xlink:title="Class to handle TCP/IP endpoints.">
<polygon fill="white" stroke="#666666" points="74.53,-142 26.28,-142 26.28,-122.75 74.53,-122.75 74.53,-142"/>
<text text-anchor="middle" x="50.4" y="-128.5" font-family="Helvetica,sans-Serif" font-size="10.00">TcpIpId</text>
</a>
</g>
</g>
<!-- Node3&#45;&gt;Node5 -->
<g id="edge6_Node000005_Node000003" class="edge">
<title>Node3&#45;&gt;Node5</title>
<g id="a_edge6_Node000005_Node000003"><a xlink:title=" ">
<path fill="none" stroke="#9a32cd" stroke-dasharray="5,2" d="M59.77,-185.83C56.49,-181.38 53.49,-176.4 51.65,-171.25 48.28,-161.83 48.47,-150.25 49.18,-142.39"/>
<polygon fill="#9a32cd" stroke="#9a32cd" points="57,-187.98 66.1,-193.41 62.37,-183.49 57,-187.98"/>
</a>
</g>
<text text-anchor="middle" x="83.53" y="-161.75" font-family="Helvetica,sans-Serif" font-size="10.00" fill="grey"> m_ip_address</text>
</g>
<!-- Node4 -->
<g id="Node000004" class="node">
<title>Node4</title>
<g id="a_Node000004"><a xlink:title=" ">
<polygon fill="white" stroke="#666666" points="123.4,-297.5 29.4,-297.5 29.4,-267 123.4,-267 123.4,-297.5"/>
<text text-anchor="start" x="37.4" y="-284" font-family="Helvetica,sans-Serif" font-size="10.00">std::basic_string&lt;</text>
<text text-anchor="middle" x="76.4" y="-272.75" font-family="Helvetica,sans-Serif" font-size="10.00"> Char &gt;</text>
</a>
</g>
</g>
<!-- Node4&#45;&gt;Node3 -->
<g id="edge3_Node000003_Node000004" class="edge">
<title>Node4&#45;&gt;Node3</title>
<g id="a_edge3_Node000003_Node000004"><a xlink:title=" ">
<path fill="none" stroke="#63b8ff" d="M76.4,-255.48C76.4,-241.22 76.4,-224.41 76.4,-214.37"/>
<polygon fill="#63b8ff" stroke="#63b8ff" points="72.9,-255.13 76.4,-265.13 79.9,-255.13 72.9,-255.13"/>
</a>
</g>
</g>
<!-- Node5&#45;&gt;Node2 -->
<g id="edge4_Node000002_Node000005" class="edge">
<title>Node5&#45;&gt;Node2</title>
<g id="a_edge4_Node000002_Node000005"><a xlink:title=" ">
<path fill="none" stroke="#9a32cd" stroke-dasharray="5,2" d="M51.2,-111.1C52.39,-104.79 54.72,-98.26 59.15,-93.5 73.77,-77.78 97.45,-71.26 116.29,-68.6"/>
<polygon fill="#9a32cd" stroke="#9a32cd" points="47.73,-110.6 50.22,-120.9 54.7,-111.3 47.73,-110.6"/>
</a>
</g>
<text text-anchor="middle" x="87.28" y="-95.25" font-family="Helvetica,sans-Serif" font-size="10.00" fill="grey"> m_server_id</text>
</g>
<!-- Node6 -->
<g id="Node000006" class="node">
<title>Node6</title>
<g id="a_Node000006"><a xlink:href="class_id.html" target="_top" xlink:title="Abstract class of an ID.">
<polygon fill="white" stroke="#666666" points="28.8,-214.12 0,-214.12 0,-194.88 28.8,-194.88 28.8,-214.12"/>
<text text-anchor="middle" x="14.4" y="-200.62" font-family="Helvetica,sans-Serif" font-size="10.00">Id</text>
</a>
</g>
</g>
<!-- Node6&#45;&gt;Node5 -->
<g id="edge5_Node000005_Node000006" class="edge">
<title>Node6&#45;&gt;Node5</title>
<g id="a_edge5_Node000005_Node000006"><a xlink:title=" ">
<path fill="none" stroke="#63b8ff" d="M24.02,-184.77C31.06,-171.06 40.29,-153.06 45.76,-142.41"/>
<polygon fill="#63b8ff" stroke="#63b8ff" points="21.1,-182.78 19.65,-193.27 27.33,-185.97 21.1,-182.78"/>
</a>
</g>
</g>
<!-- Node7 -->
<g id="Node000007" class="node">
<title>Node7</title>
<g id="a_Node000007"><a xlink:href="class_message.html" target="_top" xlink:title="Class that defines a message.">
<polygon fill="white" stroke="#666666" points="228.28,-142 172.53,-142 172.53,-122.75 228.28,-122.75 228.28,-142"/>
<text text-anchor="middle" x="200.4" y="-128.5" font-family="Helvetica,sans-Serif" font-size="10.00">Message</text>
</a>
</g>
</g>
<!-- Node7&#45;&gt;Node2 -->
<g id="edge7_Node000002_Node000007" class="edge">
<title>Node7&#45;&gt;Node2</title>
<g id="a_edge7_Node000002_Node000007"><a xlink:title=" ">
<path fill="none" stroke="#9a32cd" stroke-dasharray="5,2" d="M174.83,-115.8C170.6,-112.49 166.5,-108.78 163.15,-104.75 155.9,-96.04 150.9,-83.88 148.09,-75.71"/>
<polygon fill="#9a32cd" stroke="#9a32cd" points="172.66,-118.54 182.85,-121.44 176.69,-112.82 172.66,-118.54"/>
</a>
</g>
<text text-anchor="middle" x="212.28" y="-95.25" font-family="Helvetica,sans-Serif" font-size="10.00" fill="grey"> m_message_received</text>
</g>
<!-- Node8 -->
<g id="Node000008" class="node">
<title>Node8</title>
<g id="a_Node000008"><a xlink:title=" ">
<polygon fill="white" stroke="#666666" points="267.15,-219.75 147.65,-219.75 147.65,-189.25 267.15,-189.25 267.15,-219.75"/>
<text text-anchor="start" x="155.65" y="-206.25" font-family="Helvetica,sans-Serif" font-size="10.00">std::vector&lt; std::unique</text>
<text text-anchor="middle" x="207.4" y="-195" font-family="Helvetica,sans-Serif" font-size="10.00">_ptr&lt; Payload &gt; &gt;</text>
</a>
</g>
</g>
<!-- Node8&#45;&gt;Node7 -->
<g id="edge8_Node000007_Node000008" class="edge">
<title>Node8&#45;&gt;Node7</title>
<g id="a_edge8_Node000007_Node000008"><a xlink:title=" ">
<path fill="none" stroke="#9a32cd" stroke-dasharray="5,2" d="M204.83,-177.73C203.58,-165.23 202.16,-151.02 201.27,-142.13"/>
<polygon fill="#9a32cd" stroke="#9a32cd" points="201.32,-177.86 205.8,-187.46 208.29,-177.17 201.32,-177.86"/>
</a>
</g>
<text text-anchor="middle" x="231.86" y="-161.75" font-family="Helvetica,sans-Serif" font-size="10.00" fill="grey"> m_payloads</text>
</g>
<!-- Node9 -->
<g id="Node000009" class="node">
<title>Node9</title>
<g id="a_Node000009"><a xlink:title=" ">
<polygon fill="white" stroke="#666666" points="275.27,-291.88 141.53,-291.88 141.53,-272.62 275.27,-272.62 275.27,-291.88"/>
<text text-anchor="middle" x="208.4" y="-278.38" font-family="Helvetica,sans-Serif" font-size="10.00">std::unique_ptr&lt; Payload &gt;</text>
</a>
</g>
</g>
<!-- Node9&#45;&gt;Node8 -->
<g id="edge9_Node000008_Node000009" class="edge">
<title>Node9&#45;&gt;Node8</title>
<g id="a_edge9_Node000008_Node000009"><a xlink:title=" ">
<path fill="none" stroke="#9a32cd" stroke-dasharray="5,2" d="M208.13,-260.87C207.96,-248.04 207.75,-231.77 207.59,-220.19"/>
<polygon fill="#9a32cd" stroke="#9a32cd" points="204.63,-260.8 208.26,-270.75 211.63,-260.7 204.63,-260.8"/>
</a>
</g>
<text text-anchor="middle" x="229.33" y="-239.5" font-family="Helvetica,sans-Serif" font-size="10.00" fill="grey"> elements</text>
</g>
<!-- Node10 -->
<g id="Node000010" class="node">
<title>Node10</title>
<g id="a_Node000010"><a xlink:href="class_payload.html" target="_top" xlink:title="Abstract class that defines different types of payloads in a message.">
<polygon fill="white" stroke="#666666" points="234.03,-364 182.78,-364 182.78,-344.75 234.03,-344.75 234.03,-364"/>
<text text-anchor="middle" x="208.4" y="-350.5" font-family="Helvetica,sans-Serif" font-size="10.00">Payload</text>
</a>
</g>
</g>
<!-- Node10&#45;&gt;Node9 -->
<g id="edge10_Node000009_Node000010" class="edge">
<title>Node10&#45;&gt;Node9</title>
<g id="a_edge10_Node000009_Node000010"><a xlink:title=" ">
<path fill="none" stroke="#9a32cd" stroke-dasharray="5,2" d="M208.4,-332.99C208.4,-319.52 208.4,-302.51 208.4,-292.28"/>
<polygon fill="#9a32cd" stroke="#9a32cd" points="204.9,-332.98 208.4,-342.98 211.9,-332.98 204.9,-332.98"/>
</a>
</g>
<text text-anchor="middle" x="215.53" y="-317.25" font-family="Helvetica,sans-Serif" font-size="10.00" fill="grey"> ptr</text>
</g>
<!-- Node11 -->
<g id="Node000011" class="node">
<title>Node11</title>
<g id="a_Node000011"><a xlink:title=" ">
<polygon fill="white" stroke="#666666" points="314.65,-142 252.15,-142 252.15,-122.75 314.65,-122.75 314.65,-142"/>
<text text-anchor="middle" x="283.4" y="-128.5" font-family="Helvetica,sans-Serif" font-size="10.00">std::mutex</text>
</a>
</g>
</g>
<!-- Node11&#45;&gt;Node2 -->
<g id="edge11_Node000002_Node000011" class="edge">
<title>Node11&#45;&gt;Node2</title>
<g id="a_edge11_Node000002_Node000011"><a xlink:title=" ">
<path fill="none" stroke="#9a32cd" stroke-dasharray="5,2" d="M276.18,-112.33C272.68,-105.46 267.83,-98.24 261.4,-93.5 235.95,-74.75 199.49,-68.9 174.26,-67.23"/>
<polygon fill="#9a32cd" stroke="#9a32cd" points="272.77,-113.27 279.97,-121.05 279.19,-110.48 272.77,-113.27"/>
</a>
</g>
<text text-anchor="middle" x="305.99" y="-95.25" font-family="Helvetica,sans-Serif" font-size="10.00" fill="grey"> m_write_mutex</text>
</g>
</g>
</svg>
