<?xml version="1.0" encoding="UTF-8" standalone="no"?>
<!DOCTYPE svg PUBLIC "-//W3C//DTD SVG 1.1//EN"
 "http://www.w3.org/Graphics/SVG/1.1/DTD/svg11.dtd">
<!-- Generated by graphviz version 12.2.1 (20241206.2353)
 -->
<!-- Title: Payload Pages: 1 -->
<svg width="495pt" height="83pt"
 viewBox="0.00 0.00 494.88 82.50" xmlns="http://www.w3.org/2000/svg" xmlns:xlink="http://www.w3.org/1999/xlink">
<g id="graph0" class="graph" transform="scale(1 1) rotate(0) translate(4 78.5)">
<title>Payload</title>
<!-- Node1 -->
<g id="Node000001" class="node">
<title>Node1</title>
<g id="a_Node000001"><a xlink:title="Abstract class that defines different types of payloads in a message.">
<polygon fill="#999999" stroke="#666666" points="281,-74.5 229.75,-74.5 229.75,-55.25 281,-55.25 281,-74.5"/>
<text text-anchor="middle" x="255.38" y="-61" font-family="Helvetica,sans-Serif" font-size="10.00">Payload</text>
</a>
</g>
</g>
<!-- Node2 -->
<g id="Node000002" class="node">
<title>Node2</title>
<g id="a_Node000002"><a xlink:href="class_delivered_measure.html" target="_top" xlink:title="Class that defines the measures sent by the PubBroker to the SubBroker.">
<polygon fill="white" stroke="#666666" points="94.75,-19.25 0,-19.25 0,0 94.75,0 94.75,-19.25"/>
<text text-anchor="middle" x="47.38" y="-5.75" font-family="Helvetica,sans-Serif" font-size="10.00">DeliveredMeasure</text>
</a>
</g>
</g>
<!-- Node1&#45;&gt;Node2 -->
<g id="edge1_Node000001_Node000002" class="edge">
<title>Node1&#45;&gt;Node2</title>
<g id="a_edge1_Node000001_Node000002"><a xlink:title=" ">
<path fill="none" stroke="#63b8ff" d="M218.76,-54.5C180.4,-44.68 120.54,-29.36 82.68,-19.66"/>
<polygon fill="#63b8ff" stroke="#63b8ff" points="217.43,-57.77 227.99,-56.86 219.17,-50.99 217.43,-57.77"/>
</a>
</g>
</g>
<!-- Node3 -->
<g id="Node000003" class="node">
<title>Node3</title>
<g id="a_Node000003"><a xlink:href="class_published_measure.html" target="_top" xlink:title="Class that defines the measures sent by the publishers to the PubBroker.">
<polygon fill="white" stroke="#666666" points="209.5,-19.25 113.25,-19.25 113.25,0 209.5,0 209.5,-19.25"/>
<text text-anchor="middle" x="161.38" y="-5.75" font-family="Helvetica,sans-Serif" font-size="10.00">PublishedMeasure</text>
</a>
</g>
</g>
<!-- Node1&#45;&gt;Node3 -->
<g id="edge2_Node000001_Node000003" class="edge">
<title>Node1&#45;&gt;Node3</title>
<g id="a_edge2_Node000001_Node000003"><a xlink:title=" ">
<path fill="none" stroke="#63b8ff" d="M229.72,-49.34C213.01,-39.88 191.74,-27.83 177.4,-19.7"/>
<polygon fill="#63b8ff" stroke="#63b8ff" points="227.69,-52.21 238.11,-54.1 231.14,-46.12 227.69,-52.21"/>
</a>
</g>
</g>
<!-- Node4 -->
<g id="Node000004" class="node">
<title>Node4</title>
<g id="a_Node000004"><a xlink:href="class_schedule.html" target="_top" xlink:title="Class that defines the schedule for delivering messages from the PubBroker to the SubBroker.">
<polygon fill="white" stroke="#666666" points="283.62,-19.25 227.12,-19.25 227.12,0 283.62,0 283.62,-19.25"/>
<text text-anchor="middle" x="255.38" y="-5.75" font-family="Helvetica,sans-Serif" font-size="10.00">Schedule</text>
</a>
</g>
</g>
<!-- Node1&#45;&gt;Node4 -->
<g id="edge3_Node000001_Node000004" class="edge">
<title>Node1&#45;&gt;Node4</title>
<g id="a_edge3_Node000001_Node000004"><a xlink:title=" ">
<path fill="none" stroke="#63b8ff" d="M255.38,-43.63C255.38,-35.34 255.38,-26.17 255.38,-19.61"/>
<polygon fill="#63b8ff" stroke="#63b8ff" points="251.88,-43.57 255.38,-53.57 258.88,-43.57 251.88,-43.57"/>
</a>
</g>
</g>
<!-- Node5 -->
<g id="Node000005" class="node">
<title>Node5</title>
<g id="a_Node000005"><a xlink:href="class_subscription.html" target="_top" xlink:title="Class that defines a subscription request sent by subscribers to the SubBroker.">
<polygon fill="white" stroke="#666666" points="371.38,-19.25 301.38,-19.25 301.38,0 371.38,0 371.38,-19.25"/>
<text text-anchor="middle" x="336.38" y="-5.75" font-family="Helvetica,sans-Serif" font-size="10.00">Subscription</text>
</a>
</g>
</g>
<!-- Node1&#45;&gt;Node5 -->
<g id="edge4_Node000001_Node000005" class="edge">
<title>Node1&#45;&gt;Node5</title>
<g id="a_edge4_Node000001_Node000005"><a xlink:title=" ">
<path fill="none" stroke="#63b8ff" d="M278.71,-48.53C292.91,-39.2 310.56,-27.6 322.57,-19.7"/>
<polygon fill="#63b8ff" stroke="#63b8ff" points="276.81,-45.59 270.38,-54.01 280.66,-51.44 276.81,-45.59"/>
</a>
</g>
</g>
<!-- Node6 -->
<g id="Node000006" class="node">
<title>Node6</title>
<g id="a_Node000006"><a xlink:href="class_topic_configuration.html" target="_top" xlink:title="Class that defines the configuration for topics.">
<polygon fill="white" stroke="#666666" points="486.88,-19.25 389.88,-19.25 389.88,0 486.88,0 486.88,-19.25"/>
<text text-anchor="middle" x="438.38" y="-5.75" font-family="Helvetica,sans-Serif" font-size="10.00">TopicConfiguration</text>
</a>
</g>
</g>
<!-- Node1&#45;&gt;Node6 -->
<g id="edge5_Node000001_Node000006" class="edge">
<title>Node1&#45;&gt;Node6</title>
<g id="a_edge5_Node000001_Node000006"><a xlink:title=" ">
<path fill="none" stroke="#63b8ff" d="M291.99,-53.22C325.73,-43.4 375.26,-28.99 407.16,-19.71"/>
<polygon fill="#63b8ff" stroke="#63b8ff" points="291.28,-49.78 282.66,-55.94 293.24,-56.5 291.28,-49.78"/>
</a>
</g>
</g>
</g>
</svg>
