<?xml version="1.0" encoding="UTF-8" standalone="no"?>
<!DOCTYPE svg PUBLIC "-//W3C//DTD SVG 1.1//EN"
 "http://www.w3.org/Graphics/SVG/1.1/DTD/svg11.dtd">
<!-- Generated by graphviz version 12.2.1 (20241206.2353)
 -->
<!-- Title: TcpIpId Pages: 1 -->
<svg width="131pt" height="161pt"
 viewBox="0.00 0.00 131.40 161.25" xmlns="http://www.w3.org/2000/svg" xmlns:xlink="http://www.w3.org/1999/xlink">
<g id="graph0" class="graph" transform="scale(1 1) rotate(0) translate(4 157.25)">
<title>TcpIpId</title>
<!-- Node1 -->
<g id="Node000001" class="node">
<title>Node1</title>
<g id="a_Node000001"><a xlink:title="Class to handle TCP/IP endpoints.">
<polygon fill="#999999" stroke="#666666" points="61.52,-19.25 13.27,-19.25 13.27,0 61.52,0 61.52,-19.25"/>
<text text-anchor="middle" x="37.4" y="-5.75" font-family="Helvetica,sans-Serif" font-size="10.00">TcpIpId</text>
</a>
</g>
</g>
<!-- Node2 -->
<g id="Node000002" class="node">
<title>Node2</title>
<g id="a_Node000002"><a xlink:href="class_id.html" target="_top" xlink:title="Abstract class of an ID.">
<polygon fill="white" stroke="#666666" points="28.8,-85.75 0,-85.75 0,-66.5 28.8,-66.5 28.8,-85.75"/>
<text text-anchor="middle" x="14.4" y="-72.25" font-family="Helvetica,sans-Serif" font-size="10.00">Id</text>
</a>
</g>
</g>
<!-- Node2&#45;&gt;Node1 -->
<g id="edge1_Node000001_Node000002" class="edge">
<title>Node2&#45;&gt;Node1</title>
<g id="a_edge1_Node000001_Node000002"><a xlink:title=" ">
<path fill="none" stroke="#63b8ff" d="M21.43,-55.4C25.7,-43.43 30.94,-28.73 34.23,-19.52"/>
<polygon fill="#63b8ff" stroke="#63b8ff" points="18.17,-54.14 18.11,-64.73 24.76,-56.49 18.17,-54.14"/>
</a>
</g>
</g>
<!-- Node3 -->
<g id="Node000003" class="node">
<title>Node3</title>
<g id="a_Node000003"><a xlink:title=" ">
<polygon fill="white" stroke="#666666" points="106.15,-85.75 46.65,-85.75 46.65,-66.5 106.15,-66.5 106.15,-85.75"/>
<text text-anchor="middle" x="76.4" y="-72.25" font-family="Helvetica,sans-Serif" font-size="10.00">std::string</text>
</a>
</g>
</g>
<!-- Node3&#45;&gt;Node1 -->
<g id="edge2_Node000001_Node000003" class="edge">
<title>Node3&#45;&gt;Node1</title>
<g id="a_edge2_Node000001_Node000003"><a xlink:title=" ">
<path fill="none" stroke="#9a32cd" stroke-dasharray="5,2" d="M65.15,-56.51C57.79,-44.35 48.52,-29.02 42.78,-19.52"/>
<polygon fill="#9a32cd" stroke="#9a32cd" points="62.02,-58.12 70.19,-64.86 68.01,-54.49 62.02,-58.12"/>
</a>
</g>
<text text-anchor="middle" x="91.11" y="-39" font-family="Helvetica,sans-Serif" font-size="10.00" fill="grey"> m_ip_address</text>
</g>
<!-- Node4 -->
<g id="Node000004" class="node">
<title>Node4</title>
<g id="a_Node000004"><a xlink:title=" ">
<polygon fill="white" stroke="#666666" points="123.4,-153.25 29.4,-153.25 29.4,-122.75 123.4,-122.75 123.4,-153.25"/>
<text text-anchor="start" x="37.4" y="-139.75" font-family="Helvetica,sans-Serif" font-size="10.00">std::basic_string&lt;</text>
<text text-anchor="middle" x="76.4" y="-128.5" font-family="Helvetica,sans-Serif" font-size="10.00"> Char &gt;</text>
</a>
</g>
</g>
<!-- Node4&#45;&gt;Node3 -->
<g id="edge3_Node000003_Node000004" class="edge">
<title>Node4&#45;&gt;Node3</title>
<g id="a_edge3_Node000003_Node000004"><a xlink:title=" ">
<path fill="none" stroke="#63b8ff" d="M76.4,-111.27C76.4,-102.29 76.4,-92.79 76.4,-86.1"/>
<polygon fill="#63b8ff" stroke="#63b8ff" points="72.9,-110.99 76.4,-120.99 79.9,-110.99 72.9,-110.99"/>
</a>
</g>
</g>
</g>
</svg>
