<?xml version="1.0" encoding="UTF-8" standalone="no"?>
<!DOCTYPE svg PUBLIC "-//W3C//DTD SVG 1.1//EN"
 "http://www.w3.org/Graphics/SVG/1.1/DTD/svg11.dtd">
<!-- Generated by graphviz version 12.2.1 (20241206.2353)
 -->
<!-- Title: Buffer&lt; T &gt; Pages: 1 -->
<svg width="216pt" height="83pt"
 viewBox="0.00 0.00 216.12 82.50" xmlns="http://www.w3.org/2000/svg" xmlns:xlink="http://www.w3.org/1999/xlink">
<g id="graph0" class="graph" transform="scale(1 1) rotate(0) translate(4 78.5)">
<title>Buffer&lt; T &gt;</title>
<!-- Node1 -->
<g id="Node000001" class="node">
<title>Node1</title>
<g id="a_Node000001"><a xlink:title="Class that defines a buffer to store a collection of elements.">
<polygon fill="#999999" stroke="#666666" points="136.12,-74.5 71.38,-74.5 71.38,-55.25 136.12,-55.25 136.12,-74.5"/>
<text text-anchor="middle" x="103.75" y="-61" font-family="Helvetica,sans-Serif" font-size="10.00">Buffer&lt; T &gt;</text>
</a>
</g>
</g>
<!-- Node2 -->
<g id="Node000002" class="node">
<title>Node2</title>
<g id="a_Node000002"><a xlink:href="class_double_buffer.html" target="_top" xlink:title="Class that defines a thread&#45;safe double buffering mechanism to handle concurrent reads and writes....">
<polygon fill="white" stroke="#666666" points="95.5,-19.25 0,-19.25 0,0 95.5,0 95.5,-19.25"/>
<text text-anchor="middle" x="47.75" y="-5.75" font-family="Helvetica,sans-Serif" font-size="10.00">DoubleBuffer&lt; T &gt;</text>
</a>
</g>
</g>
<!-- Node1&#45;&gt;Node2 -->
<g id="edge1_Node000001_Node000002" class="edge">
<title>Node1&#45;&gt;Node2</title>
<g id="a_edge1_Node000001_Node000002"><a xlink:title=" ">
<path fill="none" stroke="#63b8ff" d="M86.12,-47.11C76.51,-37.97 65,-27.03 57.11,-19.52"/>
<polygon fill="#63b8ff" stroke="#63b8ff" points="83.49,-49.44 93.15,-53.8 88.32,-44.37 83.49,-49.44"/>
</a>
</g>
</g>
<!-- Node3 -->
<g id="Node000003" class="node">
<title>Node3</title>
<g id="a_Node000003"><a xlink:href="class_simple_buffer.html" target="_top" xlink:title=" ">
<polygon fill="white" stroke="#bfbfbf" points="208.12,-19.25 113.38,-19.25 113.38,0 208.12,0 208.12,-19.25"/>
<text text-anchor="middle" x="160.75" y="-5.75" font-family="Helvetica,sans-Serif" font-size="10.00">SimpleBuffer&lt; T &gt;</text>
</a>
</g>
</g>
<!-- Node1&#45;&gt;Node3 -->
<g id="edge2_Node000001_Node000003" class="edge">
<title>Node1&#45;&gt;Node3</title>
<g id="a_edge2_Node000001_Node000003"><a xlink:title=" ">
<path fill="none" stroke="#63b8ff" d="M121.7,-47.11C131.48,-37.97 143.19,-27.03 151.22,-19.52"/>
<polygon fill="#63b8ff" stroke="#63b8ff" points="119.44,-44.42 114.53,-53.81 124.22,-49.54 119.44,-44.42"/>
</a>
</g>
</g>
</g>
</svg>
