<?xml version="1.0" encoding="UTF-8" standalone="no"?>
<!DOCTYPE svg PUBLIC "-//W3C//DTD SVG 1.1//EN"
 "http://www.w3.org/Graphics/SVG/1.1/DTD/svg11.dtd">
<!-- Generated by graphviz version 12.2.1 (20241206.2353)
 -->
<!-- Title: TopicSubBroker Pages: 1 -->
<svg width="1353pt" height="334pt"
 viewBox="0.00 0.00 1353.25 333.50" xmlns="http://www.w3.org/2000/svg" xmlns:xlink="http://www.w3.org/1999/xlink">
<g id="graph0" class="graph" transform="scale(1 1) rotate(0) translate(4 329.5)">
<title>TopicSubBroker</title>
<!-- Node1 -->
<g id="Node000001" class="node">
<title>Node1</title>
<g id="a_Node000001"><a xlink:title="Class that handles messages and subscriptions for a specific topic at the SubBroker level.">
<polygon fill="#999999" stroke="#666666" points="1345.25,-135.88 1260.25,-135.88 1260.25,-116.62 1345.25,-116.62 1345.25,-135.88"/>
<text text-anchor="middle" x="1302.75" y="-122.38" font-family="Helvetica,sans-Serif" font-size="10.00">TopicSubBroker</text>
</a>
</g>
</g>
<!-- Node2 -->
<g id="Node000002" class="node">
<title>Node2</title>
<g id="a_Node000002"><a xlink:href="class_topic.html" target="_top" xlink:title="Class that defines a topic.">
<polygon fill="white" stroke="#666666" points="961.88,-154.88 922.62,-154.88 922.62,-135.62 961.88,-135.62 961.88,-154.88"/>
<text text-anchor="middle" x="942.25" y="-141.38" font-family="Helvetica,sans-Serif" font-size="10.00">Topic</text>
</a>
</g>
</g>
<!-- Node2&#45;&gt;Node1 -->
<g id="edge1_Node000001_Node000002" class="edge">
<title>Node2&#45;&gt;Node1</title>
<g id="a_edge1_Node000001_Node000002"><a xlink:title=" ">
<path fill="none" stroke="#63b8ff" d="M973.61,-144.2C1027.66,-142.25 1144.11,-137.67 1242.25,-131.25 1247.94,-130.88 1253.93,-130.43 1259.83,-129.97"/>
<polygon fill="#63b8ff" stroke="#63b8ff" points="973.54,-140.7 963.67,-144.55 973.78,-147.7 973.54,-140.7"/>
</a>
</g>
</g>
<!-- Node3 -->
<g id="Node000003" class="node">
<title>Node3</title>
<g id="a_Node000003"><a xlink:title=" ">
<polygon fill="white" stroke="#666666" points="629.12,-200.88 569.62,-200.88 569.62,-181.62 629.12,-181.62 629.12,-200.88"/>
<text text-anchor="middle" x="599.38" y="-187.38" font-family="Helvetica,sans-Serif" font-size="10.00">std::string</text>
</a>
</g>
</g>
<!-- Node3&#45;&gt;Node2 -->
<g id="edge2_Node000002_Node000003" class="edge">
<title>Node3&#45;&gt;Node2</title>
<g id="a_edge2_Node000002_Node000003"><a xlink:title=" ">
<path fill="none" stroke="#9a32cd" stroke-dasharray="5,2" d="M629.62,-176.5C641.41,-171.23 655.31,-165.84 668.5,-162.75 761.82,-140.88 877.69,-142.63 922.42,-144.34"/>
<polygon fill="#9a32cd" stroke="#9a32cd" points="628.43,-173.2 620.85,-180.6 631.39,-179.54 628.43,-173.2"/>
</a>
</g>
<text text-anchor="middle" x="696.25" y="-175.75" font-family="Helvetica,sans-Serif" font-size="10.00" fill="grey"> m_code</text>
<text text-anchor="middle" x="696.25" y="-164.5" font-family="Helvetica,sans-Serif" font-size="10.00" fill="grey">m_logs_path</text>
</g>
<!-- Node6 -->
<g id="Node000006" class="node">
<title>Node6</title>
<g id="a_Node000006"><a xlink:title=" ">
<polygon fill="white" stroke="#666666" points="1004.25,-200.88 880.25,-200.88 880.25,-181.62 1004.25,-181.62 1004.25,-200.88"/>
<text text-anchor="middle" x="942.25" y="-187.38" font-family="Helvetica,sans-Serif" font-size="10.00">std::vector&lt; std::string &gt;</text>
</a>
</g>
</g>
<!-- Node3&#45;&gt;Node6 -->
<g id="edge6_Node000006_Node000003" class="edge">
<title>Node3&#45;&gt;Node6</title>
<g id="a_edge6_Node000006_Node000003"><a xlink:title=" ">
<path fill="none" stroke="#9a32cd" stroke-dasharray="5,2" d="M641.05,-190.38C650.08,-190.22 659.62,-190.08 668.5,-190 741.07,-189.33 824.49,-189.91 879.77,-190.49"/>
<polygon fill="#9a32cd" stroke="#9a32cd" points="640.99,-186.88 631.06,-190.57 641.12,-193.88 640.99,-186.88"/>
</a>
</g>
<text text-anchor="middle" x="696.25" y="-191.75" font-family="Helvetica,sans-Serif" font-size="10.00" fill="grey"> elements</text>
</g>
<!-- Node10 -->
<g id="Node000010" class="node">
<title>Node10</title>
<g id="a_Node000010"><a xlink:href="class_buffer.html" target="_top" xlink:title=" ">
<polygon fill="white" stroke="#666666" points="851.75,-238.88 752.5,-238.88 752.5,-219.62 851.75,-219.62 851.75,-238.88"/>
<text text-anchor="middle" x="802.12" y="-225.38" font-family="Helvetica,sans-Serif" font-size="10.00">Buffer&lt; Message &gt;</text>
</a>
</g>
</g>
<!-- Node3&#45;&gt;Node10 -->
<g id="edge11_Node000010_Node000003" class="edge">
<title>Node3&#45;&gt;Node10</title>
<g id="a_edge11_Node000010_Node000003"><a xlink:title=" ">
<path fill="none" stroke="#9a32cd" stroke-dasharray="5,2" d="M640.71,-199.7C649.84,-201.57 659.5,-203.51 668.5,-205.25 696.18,-210.6 727.19,-216.23 752.26,-220.69"/>
<polygon fill="#9a32cd" stroke="#9a32cd" points="641.5,-196.29 631,-197.7 640.09,-203.15 641.5,-196.29"/>
</a>
</g>
<text text-anchor="middle" x="696.25" y="-217.2" font-family="Helvetica,sans-Serif" font-size="10.00" fill="grey"> m_file_path</text>
</g>
<!-- Node4 -->
<g id="Node000004" class="node">
<title>Node4</title>
<g id="a_Node000004"><a xlink:title=" ">
<polygon fill="white" stroke="#666666" points="444,-206.5 350,-206.5 350,-176 444,-176 444,-206.5"/>
<text text-anchor="start" x="358" y="-193" font-family="Helvetica,sans-Serif" font-size="10.00">std::basic_string&lt;</text>
<text text-anchor="middle" x="397" y="-181.75" font-family="Helvetica,sans-Serif" font-size="10.00"> Char &gt;</text>
</a>
</g>
</g>
<!-- Node4&#45;&gt;Node3 -->
<g id="edge3_Node000003_Node000004" class="edge">
<title>Node4&#45;&gt;Node3</title>
<g id="a_edge3_Node000003_Node000004"><a xlink:title=" ">
<path fill="none" stroke="#63b8ff" d="M455.67,-191.25C492.82,-191.25 539.56,-191.25 569.21,-191.25"/>
<polygon fill="#63b8ff" stroke="#63b8ff" points="455.99,-187.75 445.99,-191.25 455.99,-194.75 455.99,-187.75"/>
</a>
</g>
</g>
<!-- Node5 -->
<g id="Node000005" class="node">
<title>Node5</title>
<g id="a_Node000005"><a xlink:title=" ">
<polygon fill="white" stroke="#666666" points="1152.25,-116.88 1022.25,-116.88 1022.25,-97.62 1152.25,-97.62 1152.25,-116.88"/>
<text text-anchor="middle" x="1087.25" y="-103.38" font-family="Helvetica,sans-Serif" font-size="10.00">std::set&lt; p_tcp_session &gt;</text>
</a>
</g>
</g>
<!-- Node5&#45;&gt;Node1 -->
<g id="edge4_Node000001_Node000005" class="edge">
<title>Node5&#45;&gt;Node1</title>
<g id="a_edge4_Node000001_Node000005"><a xlink:title=" ">
<path fill="none" stroke="#9a32cd" stroke-dasharray="5,2" d="M1163.95,-113.18C1188.9,-115.23 1216.77,-117.61 1242.25,-120 1247.94,-120.53 1253.93,-121.13 1259.83,-121.73"/>
<polygon fill="#9a32cd" stroke="#9a32cd" points="1164.48,-109.71 1154.22,-112.39 1163.91,-116.69 1164.48,-109.71"/>
</a>
</g>
<text text-anchor="middle" x="1206.25" y="-121.75" font-family="Helvetica,sans-Serif" font-size="10.00" fill="grey"> m_subscribers</text>
</g>
<!-- Node6&#45;&gt;Node1 -->
<g id="edge5_Node000001_Node000006" class="edge">
<title>Node6&#45;&gt;Node1</title>
<g id="a_edge5_Node000001_Node000006"><a xlink:title=" ">
<path fill="none" stroke="#9a32cd" stroke-dasharray="5,2" d="M1016.06,-184.51C1077.08,-177.92 1166.17,-166.09 1242.25,-147.25 1253.73,-144.41 1266.12,-140.22 1276.6,-136.34"/>
<polygon fill="#9a32cd" stroke="#9a32cd" points="1015.7,-181.03 1006.13,-185.56 1016.44,-187.99 1015.7,-181.03"/>
</a>
</g>
<text text-anchor="middle" x="1087.25" y="-185.34" font-family="Helvetica,sans-Serif" font-size="10.00" fill="grey"> m_identities</text>
</g>
<!-- Node7 -->
<g id="Node000007" class="node">
<title>Node7</title>
<g id="a_Node000007"><a xlink:title=" ">
<polygon fill="white" stroke="#666666" points="1142.5,-79.5 1032,-79.5 1032,-49 1142.5,-49 1142.5,-79.5"/>
<text text-anchor="start" x="1040" y="-66" font-family="Helvetica,sans-Serif" font-size="10.00">std::vector&lt; unsigned</text>
<text text-anchor="middle" x="1087.25" y="-54.75" font-family="Helvetica,sans-Serif" font-size="10.00"> long long &gt;</text>
</a>
</g>
</g>
<!-- Node7&#45;&gt;Node1 -->
<g id="edge7_Node000001_Node000007" class="edge">
<title>Node7&#45;&gt;Node1</title>
<g id="a_edge7_Node000001_Node000007"><a xlink:title=" ">
<path fill="none" stroke="#9a32cd" stroke-dasharray="5,2" d="M1154.02,-75.24C1181.66,-80.74 1213.91,-88.31 1242.25,-98 1256.53,-102.88 1271.91,-110.24 1283.45,-116.22"/>
<polygon fill="#9a32cd" stroke="#9a32cd" points="1154.85,-71.84 1144.37,-73.38 1153.52,-78.71 1154.85,-71.84"/>
</a>
</g>
<text text-anchor="middle" x="1206.25" y="-99.75" font-family="Helvetica,sans-Serif" font-size="10.00" fill="grey"> m_intervals</text>
</g>
<!-- Node8 -->
<g id="Node000008" class="node">
<title>Node8</title>
<g id="a_Node000008"><a xlink:title=" ">
<polygon fill="white" stroke="#666666" points="1148.5,-30.5 1026,-30.5 1026,0 1148.5,0 1148.5,-30.5"/>
<text text-anchor="start" x="1034" y="-17" font-family="Helvetica,sans-Serif" font-size="10.00">std::vector&lt; Aggregation</text>
<text text-anchor="middle" x="1087.25" y="-5.75" font-family="Helvetica,sans-Serif" font-size="10.00">Type &gt;</text>
</a>
</g>
</g>
<!-- Node8&#45;&gt;Node1 -->
<g id="edge8_Node000001_Node000008" class="edge">
<title>Node8&#45;&gt;Node1</title>
<g id="a_edge8_Node000001_Node000008"><a xlink:title=" ">
<path fill="none" stroke="#9a32cd" stroke-dasharray="5,2" d="M1159.67,-29.86C1186.84,-37.42 1217.25,-48.42 1242.25,-64 1264.83,-78.07 1284.78,-102.67 1294.83,-116.35"/>
<polygon fill="#9a32cd" stroke="#9a32cd" points="1160.68,-26.51 1150.11,-27.32 1158.88,-33.27 1160.68,-26.51"/>
</a>
</g>
<text text-anchor="middle" x="1206.25" y="-65.75" font-family="Helvetica,sans-Serif" font-size="10.00" fill="grey"> m_aggregations</text>
</g>
<!-- Node9 -->
<g id="Node000009" class="node">
<title>Node9</title>
<g id="a_Node000009"><a xlink:href="class_simple_buffer.html" target="_top" xlink:title=" ">
<polygon fill="white" stroke="#bfbfbf" points="1151.88,-263.88 1022.62,-263.88 1022.62,-244.62 1151.88,-244.62 1151.88,-263.88"/>
<text text-anchor="middle" x="1087.25" y="-250.38" font-family="Helvetica,sans-Serif" font-size="10.00">SimpleBuffer&lt; Message &gt;</text>
</a>
</g>
</g>
<!-- Node9&#45;&gt;Node1 -->
<g id="edge9_Node000001_Node000009" class="edge">
<title>Node9&#45;&gt;Node1</title>
<g id="a_edge9_Node000001_Node000009"><a xlink:title=" ">
<path fill="none" stroke="#9a32cd" stroke-dasharray="5,2" d="M1158.94,-241.47C1186.69,-234.08 1217.7,-222.65 1242.25,-205.25 1268.44,-186.68 1288.12,-153.09 1296.82,-136.33"/>
<polygon fill="#9a32cd" stroke="#9a32cd" points="1158.39,-238 1149.55,-243.84 1160.1,-244.79 1158.39,-238"/>
</a>
</g>
<text text-anchor="middle" x="1206.25" y="-239.85" font-family="Helvetica,sans-Serif" font-size="10.00" fill="grey"> m_buffer</text>
</g>
<!-- Node10&#45;&gt;Node9 -->
<g id="edge10_Node000009_Node000010" class="edge">
<title>Node10&#45;&gt;Node9</title>
<g id="a_edge10_Node000009_Node000010"><a xlink:title=" ">
<path fill="none" stroke="#63b8ff" d="M863.58,-234.59C910.24,-238.71 974.65,-244.4 1022.19,-248.59"/>
<polygon fill="#63b8ff" stroke="#63b8ff" points="863.9,-231.1 853.63,-233.71 863.28,-238.08 863.9,-231.1"/>
</a>
</g>
</g>
<!-- Node11 -->
<g id="Node000011" class="node">
<title>Node11</title>
<g id="a_Node000011"><a xlink:title=" ">
<polygon fill="white" stroke="#666666" points="862.25,-275.88 742,-275.88 742,-256.62 862.25,-256.62 862.25,-275.88"/>
<text text-anchor="middle" x="802.12" y="-262.38" font-family="Helvetica,sans-Serif" font-size="10.00">std::vector&lt; Message &gt;</text>
</a>
</g>
</g>
<!-- Node11&#45;&gt;Node9 -->
<g id="edge12_Node000009_Node000011" class="edge">
<title>Node11&#45;&gt;Node9</title>
<g id="a_edge12_Node000009_Node000011"><a xlink:title=" ">
<path fill="none" stroke="#9a32cd" stroke-dasharray="5,2" d="M873.78,-263.26C919.43,-261.32 978.34,-258.82 1022.55,-256.95"/>
<polygon fill="#9a32cd" stroke="#9a32cd" points="873.83,-259.75 863.99,-263.67 874.13,-266.74 873.83,-259.75"/>
</a>
</g>
<text text-anchor="middle" x="942.25" y="-264.45" font-family="Helvetica,sans-Serif" font-size="10.00" fill="grey"> m_buffer</text>
</g>
<!-- Node12 -->
<g id="Node000012" class="node">
<title>Node12</title>
<g id="a_Node000012"><a xlink:href="class_message.html" target="_top" xlink:title="Class that defines a message.">
<polygon fill="white" stroke="#666666" points="627.25,-272.88 571.5,-272.88 571.5,-253.62 627.25,-253.62 627.25,-272.88"/>
<text text-anchor="middle" x="599.38" y="-259.38" font-family="Helvetica,sans-Serif" font-size="10.00">Message</text>
</a>
</g>
</g>
<!-- Node12&#45;&gt;Node11 -->
<g id="edge13_Node000011_Node000012" class="edge">
<title>Node12&#45;&gt;Node11</title>
<g id="a_edge13_Node000011_Node000012"><a xlink:title=" ">
<path fill="none" stroke="#9a32cd" stroke-dasharray="5,2" d="M638.77,-263.82C667.85,-264.26 708.34,-264.86 741.61,-265.36"/>
<polygon fill="#9a32cd" stroke="#9a32cd" points="639.01,-260.33 628.96,-263.68 638.91,-267.33 639.01,-260.33"/>
</a>
</g>
<text text-anchor="middle" x="696.25" y="-266.77" font-family="Helvetica,sans-Serif" font-size="10.00" fill="grey"> elements</text>
</g>
<!-- Node13 -->
<g id="Node000013" class="node">
<title>Node13</title>
<g id="a_Node000013"><a xlink:title=" ">
<polygon fill="white" stroke="#666666" points="456.75,-276.5 337.25,-276.5 337.25,-246 456.75,-246 456.75,-276.5"/>
<text text-anchor="start" x="345.25" y="-263" font-family="Helvetica,sans-Serif" font-size="10.00">std::vector&lt; std::unique</text>
<text text-anchor="middle" x="397" y="-251.75" font-family="Helvetica,sans-Serif" font-size="10.00">_ptr&lt; Payload &gt; &gt;</text>
</a>
</g>
</g>
<!-- Node13&#45;&gt;Node12 -->
<g id="edge14_Node000012_Node000013" class="edge">
<title>Node13&#45;&gt;Node12</title>
<g id="a_edge14_Node000012_Node000013"><a xlink:title=" ">
<path fill="none" stroke="#9a32cd" stroke-dasharray="5,2" d="M468.34,-261.95C503.83,-262.31 544.82,-262.72 571.14,-262.98"/>
<polygon fill="#9a32cd" stroke="#9a32cd" points="468.58,-258.45 458.55,-261.85 468.51,-265.45 468.58,-258.45"/>
</a>
</g>
<text text-anchor="middle" x="502.5" y="-264.3" font-family="Helvetica,sans-Serif" font-size="10.00" fill="grey"> m_payloads</text>
</g>
<!-- Node14 -->
<g id="Node000014" class="node">
<title>Node14</title>
<g id="a_Node000014"><a xlink:title=" ">
<polygon fill="white" stroke="#666666" points="258.5,-270.88 124.75,-270.88 124.75,-251.62 258.5,-251.62 258.5,-270.88"/>
<text text-anchor="middle" x="191.62" y="-257.38" font-family="Helvetica,sans-Serif" font-size="10.00">std::unique_ptr&lt; Payload &gt;</text>
</a>
</g>
</g>
<!-- Node14&#45;&gt;Node13 -->
<g id="edge15_Node000013_Node000014" class="edge">
<title>Node14&#45;&gt;Node13</title>
<g id="a_edge15_Node000013_Node000014"><a xlink:title=" ">
<path fill="none" stroke="#9a32cd" stroke-dasharray="5,2" d="M270.33,-261.25C292.45,-261.25 316.17,-261.25 336.98,-261.25"/>
<polygon fill="#9a32cd" stroke="#9a32cd" points="270.45,-257.75 260.45,-261.25 270.45,-264.75 270.45,-257.75"/>
</a>
</g>
<text text-anchor="middle" x="297.88" y="-263" font-family="Helvetica,sans-Serif" font-size="10.00" fill="grey"> elements</text>
</g>
<!-- Node15 -->
<g id="Node000015" class="node">
<title>Node15</title>
<g id="a_Node000015"><a xlink:href="class_payload.html" target="_top" xlink:title="Abstract class that defines different types of payloads in a message.">
<polygon fill="white" stroke="#666666" points="62.88,-270.88 11.62,-270.88 11.62,-251.62 62.88,-251.62 62.88,-270.88"/>
<text text-anchor="middle" x="37.25" y="-257.38" font-family="Helvetica,sans-Serif" font-size="10.00">Payload</text>
</a>
</g>
</g>
<!-- Node15&#45;&gt;Node14 -->
<g id="edge16_Node000014_Node000015" class="edge">
<title>Node15&#45;&gt;Node14</title>
<g id="a_edge16_Node000014_Node000015"><a xlink:title=" ">
<path fill="none" stroke="#9a32cd" stroke-dasharray="5,2" d="M74.39,-261.25C89.36,-261.25 107.22,-261.25 124.38,-261.25"/>
<polygon fill="#9a32cd" stroke="#9a32cd" points="74.58,-257.75 64.58,-261.25 74.58,-264.75 74.58,-257.75"/>
</a>
</g>
<text text-anchor="middle" x="99.62" y="-263" font-family="Helvetica,sans-Serif" font-size="10.00" fill="grey"> ptr</text>
</g>
<!-- Node16 -->
<g id="Node000016" class="node">
<title>Node16</title>
<g id="a_Node000016"><a xlink:title=" ">
<polygon fill="white" stroke="#666666" points="839,-315.88 765.25,-315.88 765.25,-296.62 839,-296.62 839,-315.88"/>
<text text-anchor="middle" x="802.12" y="-302.38" font-family="Helvetica,sans-Serif" font-size="10.00">std::ofstream</text>
</a>
</g>
</g>
<!-- Node16&#45;&gt;Node9 -->
<g id="edge17_Node000009_Node000016" class="edge">
<title>Node16&#45;&gt;Node9</title>
<g id="a_edge17_Node000009_Node000016"><a xlink:title=" ">
<path fill="none" stroke="#9a32cd" stroke-dasharray="5,2" d="M850.64,-301.62C891.62,-297.16 952.22,-289.42 1004.25,-278.25 1021.51,-274.54 1040.44,-269.1 1055.76,-264.33"/>
<polygon fill="#9a32cd" stroke="#9a32cd" points="850.45,-298.12 840.88,-302.66 851.19,-305.08 850.45,-298.12"/>
</a>
</g>
<text text-anchor="middle" x="942.25" y="-299.34" font-family="Helvetica,sans-Serif" font-size="10.00" fill="grey"> m_file_stream</text>
</g>
<!-- Node17 -->
<g id="Node000017" class="node">
<title>Node17</title>
<g id="a_Node000017"><a xlink:title=" ">
<polygon fill="white" stroke="#666666" points="650.5,-324.5 548.25,-324.5 548.25,-294 650.5,-294 650.5,-324.5"/>
<text text-anchor="start" x="556.25" y="-311" font-family="Helvetica,sans-Serif" font-size="10.00">std::basic_ofstream</text>
<text text-anchor="middle" x="599.38" y="-299.75" font-family="Helvetica,sans-Serif" font-size="10.00">&lt; Char &gt;</text>
</a>
</g>
</g>
<!-- Node17&#45;&gt;Node16 -->
<g id="edge18_Node000016_Node000017" class="edge">
<title>Node17&#45;&gt;Node16</title>
<g id="a_edge18_Node000016_Node000017"><a xlink:title=" ">
<path fill="none" stroke="#63b8ff" d="M661.92,-308.33C695.66,-307.83 736.31,-307.22 764.95,-306.79"/>
<polygon fill="#63b8ff" stroke="#63b8ff" points="662.23,-304.83 652.29,-308.47 662.34,-311.82 662.23,-304.83"/>
</a>
</g>
</g>
<!-- Node18 -->
<g id="Node000018" class="node">
<title>Node18</title>
<g id="a_Node000018"><a xlink:title=" ">
<polygon fill="white" stroke="#666666" points="446.62,-325.5 347.38,-325.5 347.38,-295 446.62,-295 446.62,-325.5"/>
<text text-anchor="start" x="355.38" y="-312" font-family="Helvetica,sans-Serif" font-size="10.00">std::basic_ostream</text>
<text text-anchor="middle" x="397" y="-300.75" font-family="Helvetica,sans-Serif" font-size="10.00">&lt; Char &gt;</text>
</a>
</g>
</g>
<!-- Node18&#45;&gt;Node17 -->
<g id="edge19_Node000017_Node000018" class="edge">
<title>Node18&#45;&gt;Node17</title>
<g id="a_edge19_Node000017_Node000018"><a xlink:title=" ">
<path fill="none" stroke="#63b8ff" d="M458.48,-309.95C487,-309.81 520.63,-309.64 547.77,-309.5"/>
<polygon fill="#63b8ff" stroke="#63b8ff" points="458.51,-306.45 448.53,-310 458.55,-313.45 458.51,-306.45"/>
</a>
</g>
</g>
<!-- Node19 -->
<g id="Node000019" class="node">
<title>Node19</title>
<g id="a_Node000019"><a xlink:title=" ">
<polygon fill="white" stroke="#666666" points="249.5,-319.88 133.75,-319.88 133.75,-300.62 249.5,-300.62 249.5,-319.88"/>
<text text-anchor="middle" x="191.62" y="-306.38" font-family="Helvetica,sans-Serif" font-size="10.00">std::basic_ios&lt; Char &gt;</text>
</a>
</g>
</g>
<!-- Node19&#45;&gt;Node18 -->
<g id="edge20_Node000018_Node000019" class="edge">
<title>Node19&#45;&gt;Node18</title>
<g id="a_edge20_Node000018_Node000019"><a xlink:title=" ">
<path fill="none" stroke="#63b8ff" d="M261.23,-310.25C289.42,-310.25 321.42,-310.25 347.16,-310.25"/>
<polygon fill="#63b8ff" stroke="#63b8ff" points="261.33,-306.75 251.33,-310.25 261.33,-313.75 261.33,-306.75"/>
</a>
</g>
</g>
<!-- Node20 -->
<g id="Node000020" class="node">
<title>Node20</title>
<g id="a_Node000020"><a xlink:title=" ">
<polygon fill="white" stroke="#666666" points="74.5,-319.88 0,-319.88 0,-300.62 74.5,-300.62 74.5,-319.88"/>
<text text-anchor="middle" x="37.25" y="-306.38" font-family="Helvetica,sans-Serif" font-size="10.00">std::ios_base</text>
</a>
</g>
</g>
<!-- Node20&#45;&gt;Node19 -->
<g id="edge21_Node000019_Node000020" class="edge">
<title>Node20&#45;&gt;Node19</title>
<g id="a_edge21_Node000019_Node000020"><a xlink:title=" ">
<path fill="none" stroke="#63b8ff" d="M85.86,-310.25C100.89,-310.25 117.66,-310.25 133.3,-310.25"/>
<polygon fill="#63b8ff" stroke="#63b8ff" points="86.26,-306.75 76.26,-310.25 86.26,-313.75 86.26,-306.75"/>
</a>
</g>
</g>
</g>
</svg>
