<?xml version="1.0" encoding="UTF-8" standalone="no"?>
<!DOCTYPE svg PUBLIC "-//W3C//DTD SVG 1.1//EN"
 "http://www.w3.org/Graphics/SVG/1.1/DTD/svg11.dtd">
<!-- Generated by graphviz version 12.2.1 (20241206.2353)
 -->
<!-- Title: PeerTcpServer Pages: 1 -->
<svg width="225pt" height="284pt"
 viewBox="0.00 0.00 224.56 284.00" xmlns="http://www.w3.org/2000/svg" xmlns:xlink="http://www.w3.org/1999/xlink">
<g id="graph0" class="graph" transform="scale(1 1) rotate(0) translate(4 280)">
<title>PeerTcpServer</title>
<!-- Node1 -->
<g id="Node000001" class="node">
<title>Node1</title>
<g id="a_Node000001"><a xlink:title="Class that defines a peer TCP server.">
<polygon fill="#999999" stroke="#666666" points="82.65,-19.25 2.15,-19.25 2.15,0 82.65,0 82.65,-19.25"/>
<text text-anchor="middle" x="42.4" y="-5.75" font-family="Helvetica,sans-Serif" font-size="10.00">PeerTcpServer</text>
</a>
</g>
</g>
<!-- Node2 -->
<g id="Node000002" class="node">
<title>Node2</title>
<g id="a_Node000002"><a xlink:href="class_tcp_server.html" target="_top" xlink:title="Class that defines a TCP server.">
<polygon fill="white" stroke="#666666" points="156.53,-75.5 96.28,-75.5 96.28,-56.25 156.53,-56.25 156.53,-75.5"/>
<text text-anchor="middle" x="126.4" y="-62" font-family="Helvetica,sans-Serif" font-size="10.00">TcpServer</text>
</a>
</g>
</g>
<!-- Node2&#45;&gt;Node1 -->
<g id="edge1_Node000001_Node000002" class="edge">
<title>Node2&#45;&gt;Node1</title>
<g id="a_edge1_Node000001_Node000002"><a xlink:title=" ">
<path fill="none" stroke="#63b8ff" d="M102.89,-49.69C87.89,-40 68.94,-27.77 56.29,-19.6"/>
<polygon fill="#63b8ff" stroke="#63b8ff" points="100.96,-52.61 111.26,-55.1 104.76,-46.73 100.96,-52.61"/>
</a>
</g>
</g>
<!-- Node3 -->
<g id="Node000003" class="node">
<title>Node3</title>
<g id="a_Node000003"><a xlink:href="class_tcp_ip_id.html" target="_top" xlink:title="Class to handle TCP/IP endpoints.">
<polygon fill="white" stroke="#666666" points="54.52,-142 6.27,-142 6.27,-122.75 54.52,-122.75 54.52,-142"/>
<text text-anchor="middle" x="30.4" y="-128.5" font-family="Helvetica,sans-Serif" font-size="10.00">TcpIpId</text>
</a>
</g>
</g>
<!-- Node3&#45;&gt;Node1 -->
<g id="edge7_Node000001_Node000003" class="edge">
<title>Node3&#45;&gt;Node1</title>
<g id="a_edge7_Node000001_Node000003"><a xlink:title=" ">
<path fill="none" stroke="#9a32cd" stroke-dasharray="5,2" d="M32.43,-110.9C35.09,-84.18 39.62,-38.6 41.52,-19.48"/>
<polygon fill="#9a32cd" stroke="#9a32cd" points="28.96,-110.5 31.45,-120.79 35.92,-111.19 28.96,-110.5"/>
</a>
</g>
<text text-anchor="middle" x="61.79" y="-62" font-family="Helvetica,sans-Serif" font-size="10.00" fill="grey"> m_peer_id</text>
</g>
<!-- Node3&#45;&gt;Node2 -->
<g id="edge2_Node000002_Node000003" class="edge">
<title>Node3&#45;&gt;Node2</title>
<g id="a_edge2_Node000002_Node000003"><a xlink:title=" ">
<path fill="none" stroke="#9a32cd" stroke-dasharray="5,2" d="M53.24,-116.03C71.81,-103.56 97.38,-86.37 112.86,-75.98"/>
<polygon fill="#9a32cd" stroke="#9a32cd" points="51.35,-113.08 45,-121.56 55.26,-118.89 51.35,-113.08"/>
</a>
</g>
<text text-anchor="middle" x="96.15" y="-95.25" font-family="Helvetica,sans-Serif" font-size="10.00" fill="grey"> m_id</text>
</g>
<!-- Node4 -->
<g id="Node000004" class="node">
<title>Node4</title>
<g id="a_Node000004"><a xlink:href="class_id.html" target="_top" xlink:title="Abstract class of an ID.">
<polygon fill="white" stroke="#666666" points="28.8,-208.5 0,-208.5 0,-189.25 28.8,-189.25 28.8,-208.5"/>
<text text-anchor="middle" x="14.4" y="-195" font-family="Helvetica,sans-Serif" font-size="10.00">Id</text>
</a>
</g>
</g>
<!-- Node4&#45;&gt;Node3 -->
<g id="edge3_Node000003_Node000004" class="edge">
<title>Node4&#45;&gt;Node3</title>
<g id="a_edge3_Node000003_Node000004"><a xlink:title=" ">
<path fill="none" stroke="#63b8ff" d="M19.39,-177.77C22.34,-165.87 25.93,-151.38 28.19,-142.27"/>
<polygon fill="#63b8ff" stroke="#63b8ff" points="16,-176.89 16.99,-187.44 22.79,-178.57 16,-176.89"/>
</a>
</g>
</g>
<!-- Node5 -->
<g id="Node000005" class="node">
<title>Node5</title>
<g id="a_Node000005"><a xlink:title=" ">
<polygon fill="white" stroke="#666666" points="106.15,-208.5 46.65,-208.5 46.65,-189.25 106.15,-189.25 106.15,-208.5"/>
<text text-anchor="middle" x="76.4" y="-195" font-family="Helvetica,sans-Serif" font-size="10.00">std::string</text>
</a>
</g>
</g>
<!-- Node5&#45;&gt;Node3 -->
<g id="edge4_Node000003_Node000005" class="edge">
<title>Node5&#45;&gt;Node3</title>
<g id="a_edge4_Node000003_Node000005"><a xlink:title=" ">
<path fill="none" stroke="#9a32cd" stroke-dasharray="5,2" d="M63.39,-179.63C54.67,-167.41 43.59,-151.86 36.74,-142.27"/>
<polygon fill="#9a32cd" stroke="#9a32cd" points="60.47,-181.56 69.13,-187.67 66.17,-177.5 60.47,-181.56"/>
</a>
</g>
<text text-anchor="middle" x="88.03" y="-161.75" font-family="Helvetica,sans-Serif" font-size="10.00" fill="grey"> m_ip_address</text>
</g>
<!-- Node6 -->
<g id="Node000006" class="node">
<title>Node6</title>
<g id="a_Node000006"><a xlink:title=" ">
<polygon fill="white" stroke="#666666" points="123.4,-276 29.4,-276 29.4,-245.5 123.4,-245.5 123.4,-276"/>
<text text-anchor="start" x="37.4" y="-262.5" font-family="Helvetica,sans-Serif" font-size="10.00">std::basic_string&lt;</text>
<text text-anchor="middle" x="76.4" y="-251.25" font-family="Helvetica,sans-Serif" font-size="10.00"> Char &gt;</text>
</a>
</g>
</g>
<!-- Node6&#45;&gt;Node5 -->
<g id="edge5_Node000005_Node000006" class="edge">
<title>Node6&#45;&gt;Node5</title>
<g id="a_edge5_Node000005_Node000006"><a xlink:title=" ">
<path fill="none" stroke="#63b8ff" d="M76.4,-234.02C76.4,-225.04 76.4,-215.54 76.4,-208.85"/>
<polygon fill="#63b8ff" stroke="#63b8ff" points="72.9,-233.74 76.4,-243.74 79.9,-233.74 72.9,-233.74"/>
</a>
</g>
</g>
<!-- Node7 -->
<g id="Node000007" class="node">
<title>Node7</title>
<g id="a_Node000007"><a xlink:title=" ">
<polygon fill="white" stroke="#666666" points="202.4,-142 72.4,-142 72.4,-122.75 202.4,-122.75 202.4,-142"/>
<text text-anchor="middle" x="137.4" y="-128.5" font-family="Helvetica,sans-Serif" font-size="10.00">std::set&lt; p_tcp_session &gt;</text>
</a>
</g>
</g>
<!-- Node7&#45;&gt;Node2 -->
<g id="edge6_Node000002_Node000007" class="edge">
<title>Node7&#45;&gt;Node2</title>
<g id="a_edge6_Node000002_Node000007"><a xlink:title=" ">
<path fill="none" stroke="#9a32cd" stroke-dasharray="5,2" d="M133.97,-111.27C131.94,-99.37 129.47,-84.88 127.92,-75.77"/>
<polygon fill="#9a32cd" stroke="#9a32cd" points="130.48,-111.65 135.62,-120.91 137.38,-110.47 130.48,-111.65"/>
</a>
</g>
<text text-anchor="middle" x="174.56" y="-95.25" font-family="Helvetica,sans-Serif" font-size="10.00" fill="grey"> m_client_sessions</text>
</g>
</g>
</svg>
