<?xml version="1.0" encoding="UTF-8" standalone="no"?>
<!DOCTYPE svg PUBLIC "-//W3C//DTD SVG 1.1//EN"
 "http://www.w3.org/Graphics/SVG/1.1/DTD/svg11.dtd">
<!-- Generated by graphviz version 12.2.1 (20241206.2353)
 -->
<!-- Title: PubBroker Pages: 1 -->
<svg width="89pt" height="138pt"
 viewBox="0.00 0.00 88.50 137.75" xmlns="http://www.w3.org/2000/svg" xmlns:xlink="http://www.w3.org/1999/xlink">
<g id="graph0" class="graph" transform="scale(1 1) rotate(0) translate(4 133.75)">
<title>PubBroker</title>
<!-- Node1 -->
<g id="Node000001" class="node">
<title>Node1</title>
<g id="a_Node000001"><a xlink:title="Class that defines the PubBroker. It manages the publication process and acts as an intermediary betw...">
<polygon fill="#999999" stroke="#666666" points="71.12,-19.25 9.38,-19.25 9.38,0 71.12,0 71.12,-19.25"/>
<text text-anchor="middle" x="40.25" y="-5.75" font-family="Helvetica,sans-Serif" font-size="10.00">PubBroker</text>
</a>
</g>
</g>
<!-- Node2 -->
<g id="Node000002" class="node">
<title>Node2</title>
<g id="a_Node000002"><a xlink:href="class_peer_tcp_server.html" target="_top" xlink:title="Class that defines a peer TCP server.">
<polygon fill="white" stroke="#666666" points="80.5,-74.5 0,-74.5 0,-55.25 80.5,-55.25 80.5,-74.5"/>
<text text-anchor="middle" x="40.25" y="-61" font-family="Helvetica,sans-Serif" font-size="10.00">PeerTcpServer</text>
</a>
</g>
</g>
<!-- Node2&#45;&gt;Node1 -->
<g id="edge1_Node000001_Node000002" class="edge">
<title>Node2&#45;&gt;Node1</title>
<g id="a_edge1_Node000001_Node000002"><a xlink:title=" ">
<path fill="none" stroke="#63b8ff" d="M40.25,-43.63C40.25,-35.34 40.25,-26.17 40.25,-19.61"/>
<polygon fill="#63b8ff" stroke="#63b8ff" points="36.75,-43.57 40.25,-53.57 43.75,-43.57 36.75,-43.57"/>
</a>
</g>
</g>
<!-- Node3 -->
<g id="Node000003" class="node">
<title>Node3</title>
<g id="a_Node000003"><a xlink:href="class_tcp_server.html" target="_top" xlink:title="Class that defines a TCP server.">
<polygon fill="white" stroke="#666666" points="70.38,-129.75 10.12,-129.75 10.12,-110.5 70.38,-110.5 70.38,-129.75"/>
<text text-anchor="middle" x="40.25" y="-116.25" font-family="Helvetica,sans-Serif" font-size="10.00">TcpServer</text>
</a>
</g>
</g>
<!-- Node3&#45;&gt;Node2 -->
<g id="edge2_Node000002_Node000003" class="edge">
<title>Node3&#45;&gt;Node2</title>
<g id="a_edge2_Node000002_Node000003"><a xlink:title=" ">
<path fill="none" stroke="#63b8ff" d="M40.25,-98.88C40.25,-90.59 40.25,-81.42 40.25,-74.86"/>
<polygon fill="#63b8ff" stroke="#63b8ff" points="36.75,-98.82 40.25,-108.82 43.75,-98.82 36.75,-98.82"/>
</a>
</g>
</g>
</g>
</svg>
