<?xml version="1.0" encoding="UTF-8" standalone="no"?>
<!DOCTYPE svg PUBLIC "-//W3C//DTD SVG 1.1//EN"
 "http://www.w3.org/Graphics/SVG/1.1/DTD/svg11.dtd">
<!-- Generated by graphviz version 12.2.1 (20241206.2353)
 -->
<!-- Title: DeliveredMeasure Pages: 1 -->
<svg width="273pt" height="172pt"
 viewBox="0.00 0.00 272.62 171.50" xmlns="http://www.w3.org/2000/svg" xmlns:xlink="http://www.w3.org/1999/xlink">
<g id="graph0" class="graph" transform="scale(1 1) rotate(0) translate(4 167.5)">
<title>DeliveredMeasure</title>
<!-- Node1 -->
<g id="Node000001" class="node">
<title>Node1</title>
<g id="a_Node000001"><a xlink:title="Class that defines the measures sent by the PubBroker to the SubBroker.">
<polygon fill="#999999" stroke="#666666" points="146,-19.25 51.25,-19.25 51.25,0 146,0 146,-19.25"/>
<text text-anchor="middle" x="98.62" y="-5.75" font-family="Helvetica,sans-Serif" font-size="10.00">DeliveredMeasure</text>
</a>
</g>
</g>
<!-- Node2 -->
<g id="Node000002" class="node">
<title>Node2</title>
<g id="a_Node000002"><a xlink:href="class_payload.html" target="_top" xlink:title="Abstract class that defines different types of payloads in a message.">
<polygon fill="white" stroke="#666666" points="51.25,-85.75 0,-85.75 0,-66.5 51.25,-66.5 51.25,-85.75"/>
<text text-anchor="middle" x="25.62" y="-72.25" font-family="Helvetica,sans-Serif" font-size="10.00">Payload</text>
</a>
</g>
</g>
<!-- Node2&#45;&gt;Node1 -->
<g id="edge1_Node000001_Node000002" class="edge">
<title>Node2&#45;&gt;Node1</title>
<g id="a_edge1_Node000001_Node000002"><a xlink:title=" ">
<path fill="none" stroke="#63b8ff" d="M44.23,-58.69C58.33,-46.23 77.16,-29.59 88.56,-19.52"/>
<polygon fill="#63b8ff" stroke="#63b8ff" points="42.09,-55.91 36.91,-65.15 46.72,-61.16 42.09,-55.91"/>
</a>
</g>
</g>
<!-- Node3 -->
<g id="Node000003" class="node">
<title>Node3</title>
<g id="a_Node000003"><a xlink:title=" ">
<polygon fill="white" stroke="#666666" points="128.38,-85.75 68.88,-85.75 68.88,-66.5 128.38,-66.5 128.38,-85.75"/>
<text text-anchor="middle" x="98.62" y="-72.25" font-family="Helvetica,sans-Serif" font-size="10.00">std::string</text>
</a>
</g>
</g>
<!-- Node3&#45;&gt;Node1 -->
<g id="edge2_Node000001_Node000003" class="edge">
<title>Node3&#45;&gt;Node1</title>
<g id="a_edge2_Node000001_Node000003"><a xlink:title=" ">
<path fill="none" stroke="#9a32cd" stroke-dasharray="5,2" d="M98.62,-54.65C98.62,-42.82 98.62,-28.54 98.62,-19.52"/>
<polygon fill="#9a32cd" stroke="#9a32cd" points="95.13,-54.64 98.63,-64.64 102.13,-54.64 95.13,-54.64"/>
</a>
</g>
<text text-anchor="middle" x="117.38" y="-39" font-family="Helvetica,sans-Serif" font-size="10.00" fill="grey"> m_code</text>
</g>
<!-- Node4 -->
<g id="Node000004" class="node">
<title>Node4</title>
<g id="a_Node000004"><a xlink:title=" ">
<polygon fill="white" stroke="#666666" points="145.62,-163.5 51.62,-163.5 51.62,-133 145.62,-133 145.62,-163.5"/>
<text text-anchor="start" x="59.62" y="-150" font-family="Helvetica,sans-Serif" font-size="10.00">std::basic_string&lt;</text>
<text text-anchor="middle" x="98.62" y="-138.75" font-family="Helvetica,sans-Serif" font-size="10.00"> Char &gt;</text>
</a>
</g>
</g>
<!-- Node4&#45;&gt;Node3 -->
<g id="edge3_Node000003_Node000004" class="edge">
<title>Node4&#45;&gt;Node3</title>
<g id="a_edge3_Node000003_Node000004"><a xlink:title=" ">
<path fill="none" stroke="#63b8ff" d="M98.62,-121.48C98.62,-108.98 98.62,-94.77 98.62,-85.88"/>
<polygon fill="#63b8ff" stroke="#63b8ff" points="95.13,-121.21 98.63,-131.21 102.13,-121.21 95.13,-121.21"/>
</a>
</g>
</g>
<!-- Node5 -->
<g id="Node000005" class="node">
<title>Node5</title>
<g id="a_Node000005"><a xlink:title=" ">
<polygon fill="white" stroke="#666666" points="264.62,-85.75 146.62,-85.75 146.62,-66.5 264.62,-66.5 264.62,-85.75"/>
<text text-anchor="middle" x="205.62" y="-72.25" font-family="Helvetica,sans-Serif" font-size="10.00">std::vector&lt; Measure &gt;</text>
</a>
</g>
</g>
<!-- Node5&#45;&gt;Node1 -->
<g id="edge4_Node000001_Node000005" class="edge">
<title>Node5&#45;&gt;Node1</title>
<g id="a_edge4_Node000001_Node000005"><a xlink:title=" ">
<path fill="none" stroke="#9a32cd" stroke-dasharray="5,2" d="M181.03,-60.3C160.27,-47.78 131.21,-30.27 113.72,-19.73"/>
<polygon fill="#9a32cd" stroke="#9a32cd" points="179.08,-63.21 189.45,-65.38 182.69,-57.22 179.08,-63.21"/>
</a>
</g>
<text text-anchor="middle" x="188.16" y="-39" font-family="Helvetica,sans-Serif" font-size="10.00" fill="grey"> m_measures</text>
</g>
<!-- Node6 -->
<g id="Node000006" class="node">
<title>Node6</title>
<g id="a_Node000006"><a xlink:href="struct_measure.html" target="_top" xlink:title="Structure that defines a measure.">
<polygon fill="white" stroke="#666666" points="232.38,-157.88 178.88,-157.88 178.88,-138.62 232.38,-138.62 232.38,-157.88"/>
<text text-anchor="middle" x="205.62" y="-144.38" font-family="Helvetica,sans-Serif" font-size="10.00">Measure</text>
</a>
</g>
</g>
<!-- Node6&#45;&gt;Node5 -->
<g id="edge5_Node000005_Node000006" class="edge">
<title>Node6&#45;&gt;Node5</title>
<g id="a_edge5_Node000005_Node000006"><a xlink:title=" ">
<path fill="none" stroke="#9a32cd" stroke-dasharray="5,2" d="M205.62,-126.87C205.62,-113.39 205.62,-96.39 205.62,-86.16"/>
<polygon fill="#9a32cd" stroke="#9a32cd" points="202.13,-126.86 205.63,-136.86 209.13,-126.86 202.13,-126.86"/>
</a>
</g>
<text text-anchor="middle" x="227" y="-105.5" font-family="Helvetica,sans-Serif" font-size="10.00" fill="grey"> elements</text>
</g>
</g>
</svg>
