<?xml version="1.0" encoding="UTF-8" standalone="no"?>
<!DOCTYPE svg PUBLIC "-//W3C//DTD SVG 1.1//EN"
 "http://www.w3.org/Graphics/SVG/1.1/DTD/svg11.dtd">
<!-- Generated by graphviz version 12.2.1 (20241206.2353)
 -->
<!-- Title: Message Pages: 1 -->
<svg width="142pt" height="238pt"
 viewBox="0.00 0.00 141.75 238.00" xmlns="http://www.w3.org/2000/svg" xmlns:xlink="http://www.w3.org/1999/xlink">
<g id="graph0" class="graph" transform="scale(1 1) rotate(0) translate(4 234)">
<title>Message</title>
<!-- Node1 -->
<g id="Node000001" class="node">
<title>Node1</title>
<g id="a_Node000001"><a xlink:title="Class that defines a message.">
<polygon fill="#999999" stroke="#666666" points="94.75,-19.25 39,-19.25 39,0 94.75,0 94.75,-19.25"/>
<text text-anchor="middle" x="66.88" y="-5.75" font-family="Helvetica,sans-Serif" font-size="10.00">Message</text>
</a>
</g>
</g>
<!-- Node2 -->
<g id="Node000002" class="node">
<title>Node2</title>
<g id="a_Node000002"><a xlink:title=" ">
<polygon fill="white" stroke="#666666" points="126.62,-97 7.13,-97 7.13,-66.5 126.62,-66.5 126.62,-97"/>
<text text-anchor="start" x="15.12" y="-83.5" font-family="Helvetica,sans-Serif" font-size="10.00">std::vector&lt; std::unique</text>
<text text-anchor="middle" x="66.88" y="-72.25" font-family="Helvetica,sans-Serif" font-size="10.00">_ptr&lt; Payload &gt; &gt;</text>
</a>
</g>
</g>
<!-- Node2&#45;&gt;Node1 -->
<g id="edge1_Node000001_Node000002" class="edge">
<title>Node2&#45;&gt;Node1</title>
<g id="a_edge1_Node000001_Node000002"><a xlink:title=" ">
<path fill="none" stroke="#9a32cd" stroke-dasharray="5,2" d="M66.88,-54.98C66.88,-42.48 66.88,-28.27 66.88,-19.38"/>
<polygon fill="#9a32cd" stroke="#9a32cd" points="63.38,-54.71 66.88,-64.71 70.38,-54.71 63.38,-54.71"/>
</a>
</g>
<text text-anchor="middle" x="94.62" y="-39" font-family="Helvetica,sans-Serif" font-size="10.00" fill="grey"> m_payloads</text>
</g>
<!-- Node3 -->
<g id="Node000003" class="node">
<title>Node3</title>
<g id="a_Node000003"><a xlink:title=" ">
<polygon fill="white" stroke="#666666" points="133.75,-163.5 0,-163.5 0,-144.25 133.75,-144.25 133.75,-163.5"/>
<text text-anchor="middle" x="66.88" y="-150" font-family="Helvetica,sans-Serif" font-size="10.00">std::unique_ptr&lt; Payload &gt;</text>
</a>
</g>
</g>
<!-- Node3&#45;&gt;Node2 -->
<g id="edge2_Node000002_Node000003" class="edge">
<title>Node3&#45;&gt;Node2</title>
<g id="a_edge2_Node000002_Node000003"><a xlink:title=" ">
<path fill="none" stroke="#9a32cd" stroke-dasharray="5,2" d="M66.88,-132.67C66.88,-121.41 66.88,-107.64 66.88,-97.42"/>
<polygon fill="#9a32cd" stroke="#9a32cd" points="63.38,-132.48 66.88,-142.48 70.38,-132.48 63.38,-132.48"/>
</a>
</g>
<text text-anchor="middle" x="88.25" y="-116.75" font-family="Helvetica,sans-Serif" font-size="10.00" fill="grey"> elements</text>
</g>
<!-- Node4 -->
<g id="Node000004" class="node">
<title>Node4</title>
<g id="a_Node000004"><a xlink:href="class_payload.html" target="_top" xlink:title="Abstract class that defines different types of payloads in a message.">
<polygon fill="white" stroke="#666666" points="92.5,-230 41.25,-230 41.25,-210.75 92.5,-210.75 92.5,-230"/>
<text text-anchor="middle" x="66.88" y="-216.5" font-family="Helvetica,sans-Serif" font-size="10.00">Payload</text>
</a>
</g>
</g>
<!-- Node4&#45;&gt;Node3 -->
<g id="edge3_Node000003_Node000004" class="edge">
<title>Node4&#45;&gt;Node3</title>
<g id="a_edge3_Node000003_Node000004"><a xlink:title=" ">
<path fill="none" stroke="#9a32cd" stroke-dasharray="5,2" d="M66.88,-198.9C66.88,-187.07 66.88,-172.79 66.88,-163.77"/>
<polygon fill="#9a32cd" stroke="#9a32cd" points="63.38,-198.89 66.88,-208.89 70.38,-198.89 63.38,-198.89"/>
</a>
</g>
<text text-anchor="middle" x="74" y="-183.25" font-family="Helvetica,sans-Serif" font-size="10.00" fill="grey"> ptr</text>
</g>
</g>
</svg>
