<?xml version="1.0" encoding="UTF-8" standalone="no"?>
<!DOCTYPE svg PUBLIC "-//W3C//DTD SVG 1.1//EN"
 "http://www.w3.org/Graphics/SVG/1.1/DTD/svg11.dtd">
<!-- Generated by graphviz version 12.2.1 (20241206.2353)
 -->
<!-- Title: Topic Pages: 1 -->
<svg width="196pt" height="83pt"
 viewBox="0.00 0.00 196.00 82.50" xmlns="http://www.w3.org/2000/svg" xmlns:xlink="http://www.w3.org/1999/xlink">
<g id="graph0" class="graph" transform="scale(1 1) rotate(0) translate(4 78.5)">
<title>Topic</title>
<!-- Node1 -->
<g id="Node000001" class="node">
<title>Node1</title>
<g id="a_Node000001"><a xlink:title="Class that defines a topic.">
<polygon fill="#999999" stroke="#666666" points="113.12,-74.5 73.88,-74.5 73.88,-55.25 113.12,-55.25 113.12,-74.5"/>
<text text-anchor="middle" x="93.5" y="-61" font-family="Helvetica,sans-Serif" font-size="10.00">Topic</text>
</a>
</g>
</g>
<!-- Node2 -->
<g id="Node000002" class="node">
<title>Node2</title>
<g id="a_Node000002"><a xlink:href="class_topic_pub_broker.html" target="_top" xlink:title="Class that handles messages for a specific topic at the PubBroker level.">
<polygon fill="white" stroke="#666666" points="85,-19.25 0,-19.25 0,0 85,0 85,-19.25"/>
<text text-anchor="middle" x="42.5" y="-5.75" font-family="Helvetica,sans-Serif" font-size="10.00">TopicPubBroker</text>
</a>
</g>
</g>
<!-- Node1&#45;&gt;Node2 -->
<g id="edge1_Node000001_Node000002" class="edge">
<title>Node1&#45;&gt;Node2</title>
<g id="a_edge1_Node000001_Node000002"><a xlink:title=" ">
<path fill="none" stroke="#63b8ff" d="M77.14,-46.79C68.48,-37.75 58.2,-27.02 51.1,-19.61"/>
<polygon fill="#63b8ff" stroke="#63b8ff" points="74.59,-49.19 84.03,-53.99 79.64,-44.35 74.59,-49.19"/>
</a>
</g>
</g>
<!-- Node3 -->
<g id="Node000003" class="node">
<title>Node3</title>
<g id="a_Node000003"><a xlink:href="class_topic_sub_broker.html" target="_top" xlink:title="Class that handles messages and subscriptions for a specific topic at the SubBroker level.">
<polygon fill="white" stroke="#666666" points="188,-19.25 103,-19.25 103,0 188,0 188,-19.25"/>
<text text-anchor="middle" x="145.5" y="-5.75" font-family="Helvetica,sans-Serif" font-size="10.00">TopicSubBroker</text>
</a>
</g>
</g>
<!-- Node1&#45;&gt;Node3 -->
<g id="edge2_Node000001_Node000003" class="edge">
<title>Node1&#45;&gt;Node3</title>
<g id="a_edge2_Node000001_Node000003"><a xlink:title=" ">
<path fill="none" stroke="#63b8ff" d="M109.91,-47.07C118.79,-37.98 129.41,-27.1 136.73,-19.61"/>
<polygon fill="#63b8ff" stroke="#63b8ff" points="107.63,-44.4 103.14,-54 112.63,-49.29 107.63,-44.4"/>
</a>
</g>
</g>
</g>
</svg>
