<?xml version="1.0" encoding="UTF-8" standalone="no"?>
<!DOCTYPE svg PUBLIC "-//W3C//DTD SVG 1.1//EN"
 "http://www.w3.org/Graphics/SVG/1.1/DTD/svg11.dtd">
<!-- Generated by graphviz version 12.2.1 (20241206.2353)
 -->
<!-- Title: SubscriberCore Pages: 1 -->
<svg width="396pt" height="372pt"
 viewBox="0.00 0.00 396.25 372.00" xmlns="http://www.w3.org/2000/svg" xmlns:xlink="http://www.w3.org/1999/xlink">
<g id="graph0" class="graph" transform="scale(1 1) rotate(0) translate(4 368)">
<title>SubscriberCore</title>
<!-- Node1 -->
<g id="Node000001" class="node">
<title>Node1</title>
<g id="a_Node000001"><a xlink:title="Class that defines the core logic of a subscriber.">
<polygon fill="#999999" stroke="#666666" points="83.5,-19.25 0,-19.25 0,0 83.5,0 83.5,-19.25"/>
<text text-anchor="middle" x="41.75" y="-5.75" font-family="Helvetica,sans-Serif" font-size="10.00">SubscriberCore</text>
</a>
</g>
</g>
<!-- Node2 -->
<g id="Node000002" class="node">
<title>Node2</title>
<g id="a_Node000002"><a xlink:href="class_tcp_client.html" target="_top" xlink:title="Class that defines a TCP client.">
<polygon fill="white" stroke="#666666" points="161.38,-75.5 104.12,-75.5 104.12,-56.25 161.38,-56.25 161.38,-75.5"/>
<text text-anchor="middle" x="132.75" y="-62" font-family="Helvetica,sans-Serif" font-size="10.00">TcpClient</text>
</a>
</g>
</g>
<!-- Node2&#45;&gt;Node1 -->
<g id="edge1_Node000001_Node000002" class="edge">
<title>Node2&#45;&gt;Node1</title>
<g id="a_edge1_Node000001_Node000002"><a xlink:title=" ">
<path fill="none" stroke="#63b8ff" d="M108.22,-50.25C91.82,-40.47 70.77,-27.93 56.8,-19.6"/>
<polygon fill="#63b8ff" stroke="#63b8ff" points="106.04,-53.03 116.42,-55.14 109.63,-47.01 106.04,-53.03"/>
</a>
</g>
</g>
<!-- Node3 -->
<g id="Node000003" class="node">
<title>Node3</title>
<g id="a_Node000003"><a xlink:title=" ">
<polygon fill="white" stroke="#666666" points="112.5,-214.12 53,-214.12 53,-194.88 112.5,-194.88 112.5,-214.12"/>
<text text-anchor="middle" x="82.75" y="-200.62" font-family="Helvetica,sans-Serif" font-size="10.00">std::string</text>
</a>
</g>
</g>
<!-- Node3&#45;&gt;Node1 -->
<g id="edge12_Node000001_Node000003" class="edge">
<title>Node3&#45;&gt;Node1</title>
<g id="a_edge12_Node000001_Node000003"><a xlink:title=" ">
<path fill="none" stroke="#9a32cd" stroke-dasharray="5,2" d="M78.01,-183.52C73.33,-163.6 66.05,-132.11 60.25,-104.75 53.65,-73.63 46.6,-36.55 43.45,-19.73"/>
<polygon fill="#9a32cd" stroke="#9a32cd" points="74.56,-184.13 80.26,-193.06 81.37,-182.52 74.56,-184.13"/>
</a>
</g>
<text text-anchor="middle" x="79" y="-95.25" font-family="Helvetica,sans-Serif" font-size="10.00" fill="grey"> m_topic</text>
</g>
<!-- Node3&#45;&gt;Node2 -->
<g id="edge2_Node000002_Node000003" class="edge">
<title>Node3&#45;&gt;Node2</title>
<g id="a_edge2_Node000002_Node000003"><a xlink:title=" ">
<path fill="none" stroke="#9a32cd" stroke-dasharray="5,2" d="M82.15,-183.51C82.3,-166.74 84.07,-142.44 91.75,-122.75 99.01,-104.14 114.09,-86.17 123.8,-75.84"/>
<polygon fill="#9a32cd" stroke="#9a32cd" points="78.64,-183.19 82.26,-193.15 85.64,-183.11 78.64,-183.19"/>
</a>
</g>
<text text-anchor="middle" x="103.75" y="-128.5" font-family="Helvetica,sans-Serif" font-size="10.00" fill="grey"> m_id</text>
</g>
<!-- Node5 -->
<g id="Node000005" class="node">
<title>Node5</title>
<g id="a_Node000005"><a xlink:href="class_tcp_ip_id.html" target="_top" xlink:title="Class to handle TCP/IP endpoints.">
<polygon fill="white" stroke="#666666" points="172.88,-142 124.62,-142 124.62,-122.75 172.88,-122.75 172.88,-142"/>
<text text-anchor="middle" x="148.75" y="-128.5" font-family="Helvetica,sans-Serif" font-size="10.00">TcpIpId</text>
</a>
</g>
</g>
<!-- Node3&#45;&gt;Node5 -->
<g id="edge6_Node000005_Node000003" class="edge">
<title>Node3&#45;&gt;Node5</title>
<g id="a_edge6_Node000005_Node000003"><a xlink:title=" ">
<path fill="none" stroke="#9a32cd" stroke-dasharray="5,2" d="M93.8,-184.86C99.07,-176.76 105.79,-167.44 113,-160 119.46,-153.33 127.72,-147.06 134.67,-142.28"/>
<polygon fill="#9a32cd" stroke="#9a32cd" points="90.89,-182.91 88.6,-193.26 96.84,-186.6 90.89,-182.91"/>
</a>
</g>
<text text-anchor="middle" x="144.88" y="-161.75" font-family="Helvetica,sans-Serif" font-size="10.00" fill="grey"> m_ip_address</text>
</g>
<!-- Node4 -->
<g id="Node000004" class="node">
<title>Node4</title>
<g id="a_Node000004"><a xlink:title=" ">
<polygon fill="white" stroke="#666666" points="129.75,-297.5 35.75,-297.5 35.75,-267 129.75,-267 129.75,-297.5"/>
<text text-anchor="start" x="43.75" y="-284" font-family="Helvetica,sans-Serif" font-size="10.00">std::basic_string&lt;</text>
<text text-anchor="middle" x="82.75" y="-272.75" font-family="Helvetica,sans-Serif" font-size="10.00"> Char &gt;</text>
</a>
</g>
</g>
<!-- Node4&#45;&gt;Node3 -->
<g id="edge3_Node000003_Node000004" class="edge">
<title>Node4&#45;&gt;Node3</title>
<g id="a_edge3_Node000003_Node000004"><a xlink:title=" ">
<path fill="none" stroke="#63b8ff" d="M82.75,-255.48C82.75,-241.22 82.75,-224.41 82.75,-214.37"/>
<polygon fill="#63b8ff" stroke="#63b8ff" points="79.25,-255.13 82.75,-265.13 86.25,-255.13 79.25,-255.13"/>
</a>
</g>
</g>
<!-- Node5&#45;&gt;Node2 -->
<g id="edge4_Node000002_Node000005" class="edge">
<title>Node5&#45;&gt;Node2</title>
<g id="a_edge4_Node000002_Node000005"><a xlink:title=" ">
<path fill="none" stroke="#9a32cd" stroke-dasharray="5,2" d="M136.56,-112.73C135.32,-110.14 134.24,-107.44 133.5,-104.75 130.83,-95.12 131.07,-83.57 131.7,-75.78"/>
<polygon fill="#9a32cd" stroke="#9a32cd" points="133.41,-114.27 141.42,-121.2 139.48,-110.79 133.41,-114.27"/>
</a>
</g>
<text text-anchor="middle" x="161.62" y="-95.25" font-family="Helvetica,sans-Serif" font-size="10.00" fill="grey"> m_server_id</text>
</g>
<!-- Node6 -->
<g id="Node000006" class="node">
<title>Node6</title>
<g id="a_Node000006"><a xlink:href="class_id.html" target="_top" xlink:title="Abstract class of an ID.">
<polygon fill="white" stroke="#666666" points="209.15,-214.12 180.35,-214.12 180.35,-194.88 209.15,-194.88 209.15,-214.12"/>
<text text-anchor="middle" x="194.75" y="-200.62" font-family="Helvetica,sans-Serif" font-size="10.00">Id</text>
</a>
</g>
</g>
<!-- Node6&#45;&gt;Node5 -->
<g id="edge5_Node000005_Node000006" class="edge">
<title>Node6&#45;&gt;Node5</title>
<g id="a_edge5_Node000005_Node000006"><a xlink:title=" ">
<path fill="none" stroke="#63b8ff" d="M190.83,-183.44C188.69,-175.68 185.47,-166.99 180.75,-160 176.06,-153.05 169.05,-146.94 162.78,-142.32"/>
<polygon fill="#63b8ff" stroke="#63b8ff" points="187.39,-184.09 193.04,-193.05 194.21,-182.51 187.39,-184.09"/>
</a>
</g>
</g>
<!-- Node7 -->
<g id="Node000007" class="node">
<title>Node7</title>
<g id="a_Node000007"><a xlink:href="class_message.html" target="_top" xlink:title="Class that defines a message.">
<polygon fill="white" stroke="#666666" points="265.62,-142 209.88,-142 209.88,-122.75 265.62,-122.75 265.62,-142"/>
<text text-anchor="middle" x="237.75" y="-128.5" font-family="Helvetica,sans-Serif" font-size="10.00">Message</text>
</a>
</g>
</g>
<!-- Node7&#45;&gt;Node2 -->
<g id="edge7_Node000002_Node000007" class="edge">
<title>Node7&#45;&gt;Node2</title>
<g id="a_edge7_Node000002_Node000007"><a xlink:title=" ">
<path fill="none" stroke="#9a32cd" stroke-dasharray="5,2" d="M219.19,-115.08C210.57,-107.96 199.99,-99.81 189.75,-93.5 178.87,-86.79 166.03,-80.66 155.29,-75.97"/>
<polygon fill="#9a32cd" stroke="#9a32cd" points="216.91,-117.74 226.8,-121.55 221.45,-112.41 216.91,-117.74"/>
</a>
</g>
<text text-anchor="middle" x="254.11" y="-95.25" font-family="Helvetica,sans-Serif" font-size="10.00" fill="grey"> m_message_received</text>
</g>
<!-- Node8 -->
<g id="Node000008" class="node">
<title>Node8</title>
<g id="a_Node000008"><a xlink:title=" ">
<polygon fill="white" stroke="#666666" points="346.5,-219.75 227,-219.75 227,-189.25 346.5,-189.25 346.5,-219.75"/>
<text text-anchor="start" x="235" y="-206.25" font-family="Helvetica,sans-Serif" font-size="10.00">std::vector&lt; std::unique</text>
<text text-anchor="middle" x="286.75" y="-195" font-family="Helvetica,sans-Serif" font-size="10.00">_ptr&lt; Payload &gt; &gt;</text>
</a>
</g>
</g>
<!-- Node8&#45;&gt;Node7 -->
<g id="edge8_Node000007_Node000008" class="edge">
<title>Node8&#45;&gt;Node7</title>
<g id="a_edge8_Node000007_Node000008"><a xlink:title=" ">
<path fill="none" stroke="#9a32cd" stroke-dasharray="5,2" d="M270.09,-179.65C261.04,-166.71 250.4,-151.48 243.87,-142.13"/>
<polygon fill="#9a32cd" stroke="#9a32cd" points="267.13,-181.54 275.73,-187.73 272.87,-177.53 267.13,-181.54"/>
</a>
</g>
<text text-anchor="middle" x="291.47" y="-161.75" font-family="Helvetica,sans-Serif" font-size="10.00" fill="grey"> m_payloads</text>
</g>
<!-- Node9 -->
<g id="Node000009" class="node">
<title>Node9</title>
<g id="a_Node000009"><a xlink:title=" ">
<polygon fill="white" stroke="#666666" points="353.62,-291.88 219.88,-291.88 219.88,-272.62 353.62,-272.62 353.62,-291.88"/>
<text text-anchor="middle" x="286.75" y="-278.38" font-family="Helvetica,sans-Serif" font-size="10.00">std::unique_ptr&lt; Payload &gt;</text>
</a>
</g>
</g>
<!-- Node9&#45;&gt;Node8 -->
<g id="edge9_Node000008_Node000009" class="edge">
<title>Node9&#45;&gt;Node8</title>
<g id="a_edge9_Node000008_Node000009"><a xlink:title=" ">
<path fill="none" stroke="#9a32cd" stroke-dasharray="5,2" d="M286.75,-260.87C286.75,-248.04 286.75,-231.77 286.75,-220.19"/>
<polygon fill="#9a32cd" stroke="#9a32cd" points="283.25,-260.75 286.75,-270.75 290.25,-260.75 283.25,-260.75"/>
</a>
</g>
<text text-anchor="middle" x="308.12" y="-239.5" font-family="Helvetica,sans-Serif" font-size="10.00" fill="grey"> elements</text>
</g>
<!-- Node10 -->
<g id="Node000010" class="node">
<title>Node10</title>
<g id="a_Node000010"><a xlink:href="class_payload.html" target="_top" xlink:title="Abstract class that defines different types of payloads in a message.">
<polygon fill="white" stroke="#666666" points="312.38,-364 261.12,-364 261.12,-344.75 312.38,-344.75 312.38,-364"/>
<text text-anchor="middle" x="286.75" y="-350.5" font-family="Helvetica,sans-Serif" font-size="10.00">Payload</text>
</a>
</g>
</g>
<!-- Node10&#45;&gt;Node9 -->
<g id="edge10_Node000009_Node000010" class="edge">
<title>Node10&#45;&gt;Node9</title>
<g id="a_edge10_Node000009_Node000010"><a xlink:title=" ">
<path fill="none" stroke="#9a32cd" stroke-dasharray="5,2" d="M286.75,-332.99C286.75,-319.52 286.75,-302.51 286.75,-292.28"/>
<polygon fill="#9a32cd" stroke="#9a32cd" points="283.25,-332.98 286.75,-342.98 290.25,-332.98 283.25,-332.98"/>
</a>
</g>
<text text-anchor="middle" x="293.88" y="-317.25" font-family="Helvetica,sans-Serif" font-size="10.00" fill="grey"> ptr</text>
</g>
<!-- Node11 -->
<g id="Node000011" class="node">
<title>Node11</title>
<g id="a_Node000011"><a xlink:title=" ">
<polygon fill="white" stroke="#666666" points="364,-142 301.5,-142 301.5,-122.75 364,-122.75 364,-142"/>
<text text-anchor="middle" x="332.75" y="-128.5" font-family="Helvetica,sans-Serif" font-size="10.00">std::mutex</text>
</a>
</g>
</g>
<!-- Node11&#45;&gt;Node2 -->
<g id="edge11_Node000002_Node000011" class="edge">
<title>Node11&#45;&gt;Node2</title>
<g id="a_edge11_Node000002_Node000011"><a xlink:title=" ">
<path fill="none" stroke="#9a32cd" stroke-dasharray="5,2" d="M323.98,-112.53C319.76,-105.47 314.01,-98.06 306.75,-93.5 283.13,-78.67 204.76,-71.46 161.7,-68.53"/>
<polygon fill="#9a32cd" stroke="#9a32cd" points="320.64,-113.68 328.38,-120.91 326.84,-110.43 320.64,-113.68"/>
</a>
</g>
<text text-anchor="middle" x="353.37" y="-95.25" font-family="Helvetica,sans-Serif" font-size="10.00" fill="grey"> m_write_mutex</text>
</g>
</g>
</svg>
