<?xml version="1.0" encoding="UTF-8" standalone="no"?>
<!DOCTYPE svg PUBLIC "-//W3C//DTD SVG 1.1//EN"
 "http://www.w3.org/Graphics/SVG/1.1/DTD/svg11.dtd">
<!-- Generated by graphviz version 12.2.1 (20241206.2353)
 -->
<!-- Title: DoubleBuffer&lt; T &gt; Pages: 1 -->
<svg width="308pt" height="363pt"
 viewBox="0.00 0.00 307.87 362.75" xmlns="http://www.w3.org/2000/svg" xmlns:xlink="http://www.w3.org/1999/xlink">
<g id="graph0" class="graph" transform="scale(1 1) rotate(0) translate(4 358.75)">
<title>DoubleBuffer&lt; T &gt;</title>
<!-- Node1 -->
<g id="Node000001" class="node">
<title>Node1</title>
<g id="a_Node000001"><a xlink:title="Class that defines a thread&#45;safe double buffering mechanism to handle concurrent reads and writes....">
<polygon fill="#999999" stroke="#666666" points="200.75,-19.25 105.25,-19.25 105.25,0 200.75,0 200.75,-19.25"/>
<text text-anchor="middle" x="153" y="-5.75" font-family="Helvetica,sans-Serif" font-size="10.00">DoubleBuffer&lt; T &gt;</text>
</a>
</g>
</g>
<!-- Node2 -->
<g id="Node000002" class="node">
<title>Node2</title>
<g id="a_Node000002"><a xlink:href="class_buffer.html" target="_top" xlink:title="Class that defines a buffer to store a collection of elements.">
<polygon fill="white" stroke="#666666" points="96.38,-97 31.62,-97 31.62,-77.75 96.38,-77.75 96.38,-97"/>
<text text-anchor="middle" x="64" y="-83.5" font-family="Helvetica,sans-Serif" font-size="10.00">Buffer&lt; T &gt;</text>
</a>
</g>
</g>
<!-- Node2&#45;&gt;Node1 -->
<g id="edge1_Node000001_Node000002" class="edge">
<title>Node2&#45;&gt;Node1</title>
<g id="a_edge1_Node000001_Node000002"><a xlink:title=" ">
<path fill="none" stroke="#63b8ff" d="M83.17,-70.06C101.31,-54.62 127.88,-32.01 142.45,-19.6"/>
<polygon fill="#63b8ff" stroke="#63b8ff" points="81.06,-67.26 75.71,-76.41 85.6,-72.59 81.06,-67.26"/>
</a>
</g>
</g>
<!-- Node3 -->
<g id="Node000003" class="node">
<title>Node3</title>
<g id="a_Node000003"><a xlink:title=" ">
<polygon fill="white" stroke="#666666" points="84.75,-169.12 25.25,-169.12 25.25,-149.88 84.75,-149.88 84.75,-169.12"/>
<text text-anchor="middle" x="55" y="-155.62" font-family="Helvetica,sans-Serif" font-size="10.00">std::string</text>
</a>
</g>
</g>
<!-- Node3&#45;&gt;Node2 -->
<g id="edge2_Node000002_Node000003" class="edge">
<title>Node3&#45;&gt;Node2</title>
<g id="a_edge2_Node000002_Node000003"><a xlink:title=" ">
<path fill="none" stroke="#9a32cd" stroke-dasharray="5,2" d="M57.56,-138.53C59.3,-124.99 61.51,-107.74 62.84,-97.41"/>
<polygon fill="#9a32cd" stroke="#9a32cd" points="54.13,-137.75 56.33,-148.12 61.08,-138.64 54.13,-137.75"/>
</a>
</g>
<text text-anchor="middle" x="87.2" y="-116.75" font-family="Helvetica,sans-Serif" font-size="10.00" fill="grey"> m_file_path</text>
</g>
<!-- Node4 -->
<g id="Node000004" class="node">
<title>Node4</title>
<g id="a_Node000004"><a xlink:title=" ">
<polygon fill="white" stroke="#666666" points="94,-242.25 0,-242.25 0,-211.75 94,-211.75 94,-242.25"/>
<text text-anchor="start" x="8" y="-228.75" font-family="Helvetica,sans-Serif" font-size="10.00">std::basic_string&lt;</text>
<text text-anchor="middle" x="47" y="-217.5" font-family="Helvetica,sans-Serif" font-size="10.00"> Char &gt;</text>
</a>
</g>
</g>
<!-- Node4&#45;&gt;Node3 -->
<g id="edge3_Node000003_Node000004" class="edge">
<title>Node4&#45;&gt;Node3</title>
<g id="a_edge3_Node000003_Node000004"><a xlink:title=" ">
<path fill="none" stroke="#63b8ff" d="M50.13,-200.34C51.46,-189.47 52.92,-177.5 53.89,-169.55"/>
<polygon fill="#63b8ff" stroke="#63b8ff" points="46.7,-199.61 48.96,-209.96 53.65,-200.46 46.7,-199.61"/>
</a>
</g>
</g>
<!-- Node5 -->
<g id="Node000005" class="node">
<title>Node5</title>
<g id="a_Node000005"><a xlink:title=" ">
<polygon fill="white" stroke="#666666" points="190.88,-97 117.12,-97 117.12,-77.75 190.88,-77.75 190.88,-97"/>
<text text-anchor="middle" x="154" y="-83.5" font-family="Helvetica,sans-Serif" font-size="10.00">std::ofstream</text>
</a>
</g>
</g>
<!-- Node5&#45;&gt;Node1 -->
<g id="edge4_Node000001_Node000005" class="edge">
<title>Node5&#45;&gt;Node1</title>
<g id="a_edge4_Node000001_Node000005"><a xlink:title=" ">
<path fill="none" stroke="#9a32cd" stroke-dasharray="5,2" d="M153.73,-66.1C153.53,-50.95 153.27,-30.98 153.12,-19.6"/>
<polygon fill="#9a32cd" stroke="#9a32cd" points="150.23,-65.92 153.86,-75.87 157.23,-65.83 150.23,-65.92"/>
</a>
</g>
<text text-anchor="middle" x="185.9" y="-44.62" font-family="Helvetica,sans-Serif" font-size="10.00" fill="grey"> m_file_stream</text>
</g>
<!-- Node6 -->
<g id="Node000006" class="node">
<title>Node6</title>
<g id="a_Node000006"><a xlink:title=" ">
<polygon fill="white" stroke="#666666" points="209.12,-174.75 106.88,-174.75 106.88,-144.25 209.12,-144.25 209.12,-174.75"/>
<text text-anchor="start" x="114.88" y="-161.25" font-family="Helvetica,sans-Serif" font-size="10.00">std::basic_ofstream</text>
<text text-anchor="middle" x="158" y="-150" font-family="Helvetica,sans-Serif" font-size="10.00">&lt; Char &gt;</text>
</a>
</g>
</g>
<!-- Node6&#45;&gt;Node5 -->
<g id="edge5_Node000005_Node000006" class="edge">
<title>Node6&#45;&gt;Node5</title>
<g id="a_edge5_Node000005_Node000006"><a xlink:title=" ">
<path fill="none" stroke="#63b8ff" d="M156.53,-132.73C155.82,-120.23 155.01,-106.02 154.5,-97.13"/>
<polygon fill="#63b8ff" stroke="#63b8ff" points="153.02,-132.67 157.08,-142.46 160.01,-132.28 153.02,-132.67"/>
</a>
</g>
</g>
<!-- Node7 -->
<g id="Node000007" class="node">
<title>Node7</title>
<g id="a_Node000007"><a xlink:title=" ">
<polygon fill="white" stroke="#666666" points="211.62,-242.25 112.38,-242.25 112.38,-211.75 211.62,-211.75 211.62,-242.25"/>
<text text-anchor="start" x="120.38" y="-228.75" font-family="Helvetica,sans-Serif" font-size="10.00">std::basic_ostream</text>
<text text-anchor="middle" x="162" y="-217.5" font-family="Helvetica,sans-Serif" font-size="10.00">&lt; Char &gt;</text>
</a>
</g>
</g>
<!-- Node7&#45;&gt;Node6 -->
<g id="edge6_Node000006_Node000007" class="edge">
<title>Node7&#45;&gt;Node6</title>
<g id="a_edge6_Node000006_Node000007"><a xlink:title=" ">
<path fill="none" stroke="#63b8ff" d="M160.42,-200.09C159.9,-191.55 159.34,-182.37 158.89,-175"/>
<polygon fill="#63b8ff" stroke="#63b8ff" points="156.92,-200.18 161.02,-209.95 163.9,-199.76 156.92,-200.18"/>
</a>
</g>
</g>
<!-- Node8 -->
<g id="Node000008" class="node">
<title>Node8</title>
<g id="a_Node000008"><a xlink:title=" ">
<polygon fill="white" stroke="#666666" points="219.88,-298.5 104.12,-298.5 104.12,-279.25 219.88,-279.25 219.88,-298.5"/>
<text text-anchor="middle" x="162" y="-285" font-family="Helvetica,sans-Serif" font-size="10.00">std::basic_ios&lt; Char &gt;</text>
</a>
</g>
</g>
<!-- Node8&#45;&gt;Node7 -->
<g id="edge7_Node000007_Node000008" class="edge">
<title>Node8&#45;&gt;Node7</title>
<g id="a_edge7_Node000007_Node000008"><a xlink:title=" ">
<path fill="none" stroke="#63b8ff" d="M162,-267.44C162,-259.18 162,-249.84 162,-242.32"/>
<polygon fill="#63b8ff" stroke="#63b8ff" points="158.5,-267.27 162,-277.27 165.5,-267.27 158.5,-267.27"/>
</a>
</g>
</g>
<!-- Node9 -->
<g id="Node000009" class="node">
<title>Node9</title>
<g id="a_Node000009"><a xlink:title=" ">
<polygon fill="white" stroke="#666666" points="199.25,-354.75 124.75,-354.75 124.75,-335.5 199.25,-335.5 199.25,-354.75"/>
<text text-anchor="middle" x="162" y="-341.25" font-family="Helvetica,sans-Serif" font-size="10.00">std::ios_base</text>
</a>
</g>
</g>
<!-- Node9&#45;&gt;Node8 -->
<g id="edge8_Node000008_Node000009" class="edge">
<title>Node9&#45;&gt;Node8</title>
<g id="a_edge8_Node000008_Node000009"><a xlink:title=" ">
<path fill="none" stroke="#63b8ff" d="M162,-323.94C162,-315.23 162,-305.49 162,-298.67"/>
<polygon fill="#63b8ff" stroke="#63b8ff" points="158.5,-323.65 162,-333.65 165.5,-323.65 158.5,-323.65"/>
</a>
</g>
</g>
<!-- Node10 -->
<g id="Node000010" class="node">
<title>Node10</title>
<g id="a_Node000010"><a xlink:title=" ">
<polygon fill="white" stroke="#666666" points="272.25,-97 209.75,-97 209.75,-77.75 272.25,-77.75 272.25,-97"/>
<text text-anchor="middle" x="241" y="-83.5" font-family="Helvetica,sans-Serif" font-size="10.00">std::mutex</text>
</a>
</g>
</g>
<!-- Node10&#45;&gt;Node1 -->
<g id="edge9_Node000001_Node000010" class="edge">
<title>Node10&#45;&gt;Node1</title>
<g id="a_edge9_Node000001_Node000010"><a xlink:title=" ">
<path fill="none" stroke="#9a32cd" stroke-dasharray="5,2" d="M236,-66.66C232.62,-56.74 227.23,-45.18 219,-37.25 210.81,-29.36 199.99,-23.71 189.47,-19.7"/>
<polygon fill="#9a32cd" stroke="#9a32cd" points="232.6,-67.51 238.76,-76.13 239.32,-65.55 232.6,-67.51"/>
</a>
</g>
<text text-anchor="middle" x="266.5" y="-50.25" font-family="Helvetica,sans-Serif" font-size="10.00" fill="grey"> m_full_mutex</text>
<text text-anchor="middle" x="266.5" y="-39" font-family="Helvetica,sans-Serif" font-size="10.00" fill="grey">m_write_mutex</text>
</g>
</g>
</svg>
