<?xml version="1.0" encoding="UTF-8" standalone="no"?>
<!DOCTYPE svg PUBLIC "-//W3C//DTD SVG 1.1//EN"
 "http://www.w3.org/Graphics/SVG/1.1/DTD/svg11.dtd">
<!-- Generated by graphviz version 12.2.1 (20241206.2353)
 -->
<!-- Title: BufferOptimizer Pages: 1 -->
<svg width="559pt" height="186pt"
 viewBox="0.00 0.00 558.50 186.19" xmlns="http://www.w3.org/2000/svg" xmlns:xlink="http://www.w3.org/1999/xlink">
<g id="graph0" class="graph" transform="scale(1 1) rotate(0) translate(4 182.19)">
<title>BufferOptimizer</title>
<!-- Node1 -->
<g id="Node000001" class="node">
<title>Node1</title>
<g id="a_Node000001"><a xlink:title="Class that defines the double buffer size of each topic in the PubBroker. This is formulated as a MIL...">
<polygon fill="#999999" stroke="#666666" points="550.5,-109.5 467,-109.5 467,-90.25 550.5,-90.25 550.5,-109.5"/>
<text text-anchor="middle" x="508.75" y="-96" font-family="Helvetica,sans-Serif" font-size="10.00">BufferOptimizer</text>
</a>
</g>
</g>
<!-- Node2 -->
<g id="Node000002" class="node">
<title>Node2</title>
<g id="a_Node000002"><a xlink:title=" ">
<polygon fill="white" stroke="#666666" points="322.62,-175.5 213.62,-175.5 213.62,-156.25 322.62,-156.25 322.62,-175.5"/>
<text text-anchor="middle" x="268.12" y="-162" font-family="Helvetica,sans-Serif" font-size="10.00">std::vector&lt; double &gt;</text>
</a>
</g>
</g>
<!-- Node2&#45;&gt;Node1 -->
<g id="edge1_Node000001_Node000002" class="edge">
<title>Node2&#45;&gt;Node1</title>
<g id="a_edge1_Node000001_Node000002"><a xlink:title=" ">
<path fill="none" stroke="#9a32cd" stroke-dasharray="5,2" d="M333.92,-157.96C368.69,-152.56 411.91,-143.95 449,-130.88 464.23,-125.51 480.37,-116.74 491.87,-109.9"/>
<polygon fill="#9a32cd" stroke="#9a32cd" points="333.81,-154.44 324.44,-159.38 334.85,-161.36 333.81,-154.44"/>
</a>
</g>
<text text-anchor="middle" x="397.25" y="-168.69" font-family="Helvetica,sans-Serif" font-size="10.00" fill="grey"> m_subscribers_periods</text>
<text text-anchor="middle" x="397.25" y="-157.44" font-family="Helvetica,sans-Serif" font-size="10.00" fill="grey">m_topics_periods</text>
</g>
<!-- Node3 -->
<g id="Node000003" class="node">
<title>Node3</title>
<g id="a_Node000003"><a xlink:title=" ">
<polygon fill="white" stroke="#666666" points="327.12,-138.12 209.12,-138.12 209.12,-107.62 327.12,-107.62 327.12,-138.12"/>
<text text-anchor="start" x="217.12" y="-124.62" font-family="Helvetica,sans-Serif" font-size="10.00">std::vector&lt; std::vector</text>
<text text-anchor="middle" x="268.12" y="-113.38" font-family="Helvetica,sans-Serif" font-size="10.00">&lt; int &gt; &gt;</text>
</a>
</g>
</g>
<!-- Node3&#45;&gt;Node1 -->
<g id="edge2_Node000001_Node000003" class="edge">
<title>Node3&#45;&gt;Node1</title>
<g id="a_edge2_Node000001_Node000003"><a xlink:title=" ">
<path fill="none" stroke="#9a32cd" stroke-dasharray="5,2" d="M338.93,-116.15C380.47,-112.14 431.73,-107.2 466.8,-103.82"/>
<polygon fill="#9a32cd" stroke="#9a32cd" points="338.62,-112.66 329.01,-117.1 339.3,-119.63 338.62,-112.66"/>
</a>
</g>
<text text-anchor="middle" x="397.25" y="-117.19" font-family="Helvetica,sans-Serif" font-size="10.00" fill="grey"> m_associations</text>
</g>
<!-- Node4 -->
<g id="Node000004" class="node">
<title>Node4</title>
<g id="a_Node000004"><a xlink:title=" ">
<polygon fill="white" stroke="#666666" points="130,-65.12 0,-65.12 0,-34.62 130,-34.62 130,-65.12"/>
<text text-anchor="start" x="8" y="-51.62" font-family="Helvetica,sans-Serif" font-size="10.00">std::vector&lt; operations</text>
<text text-anchor="middle" x="65" y="-40.38" font-family="Helvetica,sans-Serif" font-size="10.00">_research::MPVariable * &gt;</text>
</a>
</g>
</g>
<!-- Node4&#45;&gt;Node1 -->
<g id="edge3_Node000001_Node000004" class="edge">
<title>Node4&#45;&gt;Node1</title>
<g id="a_edge3_Node000001_Node000004"><a xlink:title=" ">
<path fill="none" stroke="#9a32cd" stroke-dasharray="5,2" d="M141.65,-58.44C235.59,-69.07 392.49,-86.83 466.6,-95.22"/>
<polygon fill="#9a32cd" stroke="#9a32cd" points="142.07,-54.96 131.74,-57.32 141.28,-61.92 142.07,-54.96"/>
</a>
</g>
<text text-anchor="middle" x="268.12" y="-80.77" font-family="Helvetica,sans-Serif" font-size="10.00" fill="grey"> m_buffer_sizes</text>
</g>
<!-- Node5 -->
<g id="Node000005" class="node">
<title>Node5</title>
<g id="a_Node000005"><a xlink:title=" ">
<polygon fill="white" stroke="#666666" points="327.5,-41.75 208.75,-41.75 208.75,0 327.5,0 327.5,-41.75"/>
<text text-anchor="start" x="216.75" y="-28.25" font-family="Helvetica,sans-Serif" font-size="10.00">std::vector&lt; std::vector</text>
<text text-anchor="start" x="216.75" y="-17" font-family="Helvetica,sans-Serif" font-size="10.00">&lt; operations_research::</text>
<text text-anchor="middle" x="268.12" y="-5.75" font-family="Helvetica,sans-Serif" font-size="10.00">MPVariable * &gt; &gt;</text>
</a>
</g>
</g>
<!-- Node4&#45;&gt;Node5 -->
<g id="edge5_Node000005_Node000004" class="edge">
<title>Node4&#45;&gt;Node5</title>
<g id="a_edge5_Node000005_Node000004"><a xlink:title=" ">
<path fill="none" stroke="#9a32cd" stroke-dasharray="5,2" d="M141.82,-38.94C163.89,-35.76 187.64,-32.34 208.47,-29.33"/>
<polygon fill="#9a32cd" stroke="#9a32cd" points="141.36,-35.47 131.97,-40.36 142.36,-42.4 141.36,-35.47"/>
</a>
</g>
<text text-anchor="middle" x="169.38" y="-39.72" font-family="Helvetica,sans-Serif" font-size="10.00" fill="grey"> elements</text>
</g>
<!-- Node5&#45;&gt;Node1 -->
<g id="edge4_Node000001_Node000005" class="edge">
<title>Node5&#45;&gt;Node1</title>
<g id="a_edge4_Node000001_Node000005"><a xlink:title=" ">
<path fill="none" stroke="#9a32cd" stroke-dasharray="5,2" d="M338.97,-25.02C373.32,-29.07 414.62,-37.02 449,-52.62 468.79,-61.6 487.61,-78.81 498.41,-89.79"/>
<polygon fill="#9a32cd" stroke="#9a32cd" points="339.43,-21.55 329.11,-23.95 338.68,-28.51 339.43,-21.55"/>
</a>
</g>
<text text-anchor="middle" x="397.25" y="-54.38" font-family="Helvetica,sans-Serif" font-size="10.00" fill="grey"> m_delays</text>
</g>
</g>
</svg>
