<?xml version="1.0" encoding="UTF-8" standalone="no"?>
<!DOCTYPE svg PUBLIC "-//W3C//DTD SVG 1.1//EN"
 "http://www.w3.org/Graphics/SVG/1.1/DTD/svg11.dtd">
<!-- Generated by graphviz version 12.2.1 (20241206.2353)
 -->
<!-- Title: TcpClient Pages: 1 -->
<svg width="349pt" height="316pt"
 viewBox="0.00 0.00 348.86 315.75" xmlns="http://www.w3.org/2000/svg" xmlns:xlink="http://www.w3.org/1999/xlink">
<g id="graph0" class="graph" transform="scale(1 1) rotate(0) translate(4 311.75)">
<title>TcpClient</title>
<!-- Node1 -->
<g id="Node000001" class="node">
<title>Node1</title>
<g id="a_Node000001"><a xlink:title="Class that defines a TCP client.">
<polygon fill="#999999" stroke="#666666" points="174.03,-19.25 116.78,-19.25 116.78,0 174.03,0 174.03,-19.25"/>
<text text-anchor="middle" x="145.4" y="-5.75" font-family="Helvetica,sans-Serif" font-size="10.00">TcpClient</text>
</a>
</g>
</g>
<!-- Node2 -->
<g id="Node000002" class="node">
<title>Node2</title>
<g id="a_Node000002"><a xlink:title=" ">
<polygon fill="white" stroke="#666666" points="106.15,-157.88 46.65,-157.88 46.65,-138.62 106.15,-138.62 106.15,-157.88"/>
<text text-anchor="middle" x="76.4" y="-144.38" font-family="Helvetica,sans-Serif" font-size="10.00">std::string</text>
</a>
</g>
</g>
<!-- Node2&#45;&gt;Node1 -->
<g id="edge1_Node000001_Node000002" class="edge">
<title>Node2&#45;&gt;Node1</title>
<g id="a_edge1_Node000001_Node000002"><a xlink:title=" ">
<path fill="none" stroke="#9a32cd" stroke-dasharray="5,2" d="M100.08,-131.5C105.77,-126.77 111.36,-121.17 115.4,-115 135.85,-83.77 142.61,-38.41 144.63,-19.46"/>
<polygon fill="#9a32cd" stroke="#9a32cd" points="98.33,-128.43 92.48,-137.27 102.57,-134.01 98.33,-128.43"/>
</a>
</g>
<text text-anchor="middle" x="147.8" y="-72.25" font-family="Helvetica,sans-Serif" font-size="10.00" fill="grey"> m_id</text>
</g>
<!-- Node4 -->
<g id="Node000004" class="node">
<title>Node4</title>
<g id="a_Node000004"><a xlink:href="class_tcp_ip_id.html" target="_top" xlink:title="Class to handle TCP/IP endpoints.">
<polygon fill="white" stroke="#666666" points="74.53,-85.75 26.28,-85.75 26.28,-66.5 74.53,-66.5 74.53,-85.75"/>
<text text-anchor="middle" x="50.4" y="-72.25" font-family="Helvetica,sans-Serif" font-size="10.00">TcpIpId</text>
</a>
</g>
</g>
<!-- Node2&#45;&gt;Node4 -->
<g id="edge5_Node000004_Node000002" class="edge">
<title>Node2&#45;&gt;Node4</title>
<g id="a_edge5_Node000004_Node000002"><a xlink:title=" ">
<path fill="none" stroke="#9a32cd" stroke-dasharray="5,2" d="M59.77,-129.58C56.49,-125.13 53.49,-120.15 51.65,-115 48.28,-105.58 48.47,-94 49.18,-86.14"/>
<polygon fill="#9a32cd" stroke="#9a32cd" points="57,-131.73 66.1,-137.16 62.37,-127.24 57,-131.73"/>
</a>
</g>
<text text-anchor="middle" x="83.53" y="-105.5" font-family="Helvetica,sans-Serif" font-size="10.00" fill="grey"> m_ip_address</text>
</g>
<!-- Node3 -->
<g id="Node000003" class="node">
<title>Node3</title>
<g id="a_Node000003"><a xlink:title=" ">
<polygon fill="white" stroke="#666666" points="123.4,-241.25 29.4,-241.25 29.4,-210.75 123.4,-210.75 123.4,-241.25"/>
<text text-anchor="start" x="37.4" y="-227.75" font-family="Helvetica,sans-Serif" font-size="10.00">std::basic_string&lt;</text>
<text text-anchor="middle" x="76.4" y="-216.5" font-family="Helvetica,sans-Serif" font-size="10.00"> Char &gt;</text>
</a>
</g>
</g>
<!-- Node3&#45;&gt;Node2 -->
<g id="edge2_Node000002_Node000003" class="edge">
<title>Node3&#45;&gt;Node2</title>
<g id="a_edge2_Node000002_Node000003"><a xlink:title=" ">
<path fill="none" stroke="#63b8ff" d="M76.4,-199.23C76.4,-184.97 76.4,-168.16 76.4,-158.12"/>
<polygon fill="#63b8ff" stroke="#63b8ff" points="72.9,-198.88 76.4,-208.88 79.9,-198.88 72.9,-198.88"/>
</a>
</g>
</g>
<!-- Node4&#45;&gt;Node1 -->
<g id="edge3_Node000001_Node000004" class="edge">
<title>Node4&#45;&gt;Node1</title>
<g id="a_edge3_Node000001_Node000004"><a xlink:title=" ">
<path fill="none" stroke="#9a32cd" stroke-dasharray="5,2" d="M51.2,-54.85C52.39,-48.54 54.72,-42.01 59.15,-37.25 73.77,-21.53 97.45,-15.01 116.29,-12.35"/>
<polygon fill="#9a32cd" stroke="#9a32cd" points="47.73,-54.35 50.22,-64.65 54.7,-55.05 47.73,-54.35"/>
</a>
</g>
<text text-anchor="middle" x="87.28" y="-39" font-family="Helvetica,sans-Serif" font-size="10.00" fill="grey"> m_server_id</text>
</g>
<!-- Node5 -->
<g id="Node000005" class="node">
<title>Node5</title>
<g id="a_Node000005"><a xlink:href="class_id.html" target="_top" xlink:title="Abstract class of an ID.">
<polygon fill="white" stroke="#666666" points="28.8,-157.88 0,-157.88 0,-138.62 28.8,-138.62 28.8,-157.88"/>
<text text-anchor="middle" x="14.4" y="-144.38" font-family="Helvetica,sans-Serif" font-size="10.00">Id</text>
</a>
</g>
</g>
<!-- Node5&#45;&gt;Node4 -->
<g id="edge4_Node000004_Node000005" class="edge">
<title>Node5&#45;&gt;Node4</title>
<g id="a_edge4_Node000004_Node000005"><a xlink:title=" ">
<path fill="none" stroke="#63b8ff" d="M24.02,-128.52C31.06,-114.81 40.29,-96.81 45.76,-86.16"/>
<polygon fill="#63b8ff" stroke="#63b8ff" points="21.1,-126.53 19.65,-137.02 27.33,-129.72 21.1,-126.53"/>
</a>
</g>
</g>
<!-- Node6 -->
<g id="Node000006" class="node">
<title>Node6</title>
<g id="a_Node000006"><a xlink:href="class_message.html" target="_top" xlink:title="Class that defines a message.">
<polygon fill="white" stroke="#666666" points="228.28,-85.75 172.53,-85.75 172.53,-66.5 228.28,-66.5 228.28,-85.75"/>
<text text-anchor="middle" x="200.4" y="-72.25" font-family="Helvetica,sans-Serif" font-size="10.00">Message</text>
</a>
</g>
</g>
<!-- Node6&#45;&gt;Node1 -->
<g id="edge6_Node000001_Node000006" class="edge">
<title>Node6&#45;&gt;Node1</title>
<g id="a_edge6_Node000001_Node000006"><a xlink:title=" ">
<path fill="none" stroke="#9a32cd" stroke-dasharray="5,2" d="M174.83,-59.55C170.6,-56.24 166.5,-52.53 163.15,-48.5 155.9,-39.79 150.9,-27.63 148.09,-19.46"/>
<polygon fill="#9a32cd" stroke="#9a32cd" points="172.66,-62.29 182.85,-65.19 176.69,-56.57 172.66,-62.29"/>
</a>
</g>
<text text-anchor="middle" x="212.28" y="-39" font-family="Helvetica,sans-Serif" font-size="10.00" fill="grey"> m_message_received</text>
</g>
<!-- Node7 -->
<g id="Node000007" class="node">
<title>Node7</title>
<g id="a_Node000007"><a xlink:title=" ">
<polygon fill="white" stroke="#666666" points="267.15,-163.5 147.65,-163.5 147.65,-133 267.15,-133 267.15,-163.5"/>
<text text-anchor="start" x="155.65" y="-150" font-family="Helvetica,sans-Serif" font-size="10.00">std::vector&lt; std::unique</text>
<text text-anchor="middle" x="207.4" y="-138.75" font-family="Helvetica,sans-Serif" font-size="10.00">_ptr&lt; Payload &gt; &gt;</text>
</a>
</g>
</g>
<!-- Node7&#45;&gt;Node6 -->
<g id="edge7_Node000006_Node000007" class="edge">
<title>Node7&#45;&gt;Node6</title>
<g id="a_edge7_Node000006_Node000007"><a xlink:title=" ">
<path fill="none" stroke="#9a32cd" stroke-dasharray="5,2" d="M204.83,-121.48C203.58,-108.98 202.16,-94.77 201.27,-85.88"/>
<polygon fill="#9a32cd" stroke="#9a32cd" points="201.32,-121.61 205.8,-131.21 208.29,-120.92 201.32,-121.61"/>
</a>
</g>
<text text-anchor="middle" x="231.86" y="-105.5" font-family="Helvetica,sans-Serif" font-size="10.00" fill="grey"> m_payloads</text>
</g>
<!-- Node8 -->
<g id="Node000008" class="node">
<title>Node8</title>
<g id="a_Node000008"><a xlink:title=" ">
<polygon fill="white" stroke="#666666" points="275.27,-235.62 141.53,-235.62 141.53,-216.38 275.27,-216.38 275.27,-235.62"/>
<text text-anchor="middle" x="208.4" y="-222.12" font-family="Helvetica,sans-Serif" font-size="10.00">std::unique_ptr&lt; Payload &gt;</text>
</a>
</g>
</g>
<!-- Node8&#45;&gt;Node7 -->
<g id="edge8_Node000007_Node000008" class="edge">
<title>Node8&#45;&gt;Node7</title>
<g id="a_edge8_Node000007_Node000008"><a xlink:title=" ">
<path fill="none" stroke="#9a32cd" stroke-dasharray="5,2" d="M208.13,-204.62C207.96,-191.79 207.75,-175.52 207.59,-163.94"/>
<polygon fill="#9a32cd" stroke="#9a32cd" points="204.63,-204.55 208.26,-214.5 211.63,-204.45 204.63,-204.55"/>
</a>
</g>
<text text-anchor="middle" x="229.33" y="-183.25" font-family="Helvetica,sans-Serif" font-size="10.00" fill="grey"> elements</text>
</g>
<!-- Node9 -->
<g id="Node000009" class="node">
<title>Node9</title>
<g id="a_Node000009"><a xlink:href="class_payload.html" target="_top" xlink:title="Abstract class that defines different types of payloads in a message.">
<polygon fill="white" stroke="#666666" points="234.03,-307.75 182.78,-307.75 182.78,-288.5 234.03,-288.5 234.03,-307.75"/>
<text text-anchor="middle" x="208.4" y="-294.25" font-family="Helvetica,sans-Serif" font-size="10.00">Payload</text>
</a>
</g>
</g>
<!-- Node9&#45;&gt;Node8 -->
<g id="edge9_Node000008_Node000009" class="edge">
<title>Node9&#45;&gt;Node8</title>
<g id="a_edge9_Node000008_Node000009"><a xlink:title=" ">
<path fill="none" stroke="#9a32cd" stroke-dasharray="5,2" d="M208.4,-276.74C208.4,-263.27 208.4,-246.26 208.4,-236.03"/>
<polygon fill="#9a32cd" stroke="#9a32cd" points="204.9,-276.73 208.4,-286.73 211.9,-276.73 204.9,-276.73"/>
</a>
</g>
<text text-anchor="middle" x="215.53" y="-261" font-family="Helvetica,sans-Serif" font-size="10.00" fill="grey"> ptr</text>
</g>
<!-- Node10 -->
<g id="Node000010" class="node">
<title>Node10</title>
<g id="a_Node000010"><a xlink:title=" ">
<polygon fill="white" stroke="#666666" points="314.65,-85.75 252.15,-85.75 252.15,-66.5 314.65,-66.5 314.65,-85.75"/>
<text text-anchor="middle" x="283.4" y="-72.25" font-family="Helvetica,sans-Serif" font-size="10.00">std::mutex</text>
</a>
</g>
</g>
<!-- Node10&#45;&gt;Node1 -->
<g id="edge10_Node000001_Node000010" class="edge">
<title>Node10&#45;&gt;Node1</title>
<g id="a_edge10_Node000001_Node000010"><a xlink:title=" ">
<path fill="none" stroke="#9a32cd" stroke-dasharray="5,2" d="M276.18,-56.08C272.68,-49.21 267.83,-41.99 261.4,-37.25 235.95,-18.5 199.49,-12.65 174.26,-10.98"/>
<polygon fill="#9a32cd" stroke="#9a32cd" points="272.77,-57.02 279.97,-64.8 279.19,-54.23 272.77,-57.02"/>
</a>
</g>
<text text-anchor="middle" x="305.99" y="-39" font-family="Helvetica,sans-Serif" font-size="10.00" fill="grey"> m_write_mutex</text>
</g>
</g>
</svg>
