<?xml version="1.0" encoding="UTF-8" standalone="no"?>
<!DOCTYPE svg PUBLIC "-//W3C//DTD SVG 1.1//EN"
 "http://www.w3.org/Graphics/SVG/1.1/DTD/svg11.dtd">
<!-- Generated by graphviz version 12.2.1 (20241206.2353)
 -->
<!-- Title: TcpSession Pages: 1 -->
<svg width="396pt" height="327pt"
 viewBox="0.00 0.00 395.88 327.00" xmlns="http://www.w3.org/2000/svg" xmlns:xlink="http://www.w3.org/1999/xlink">
<g id="graph0" class="graph" transform="scale(1 1) rotate(0) translate(4 323)">
<title>TcpSession</title>
<!-- Node1 -->
<g id="Node000001" class="node">
<title>Node1</title>
<g id="a_Node000001"><a xlink:title="Class that defines a TCP session.">
<polygon fill="#999999" stroke="#666666" points="211.5,-19.25 144.5,-19.25 144.5,0 211.5,0 211.5,-19.25"/>
<text text-anchor="middle" x="178" y="-5.75" font-family="Helvetica,sans-Serif" font-size="10.00">TcpSession</text>
</a>
</g>
</g>
<!-- Node2 -->
<g id="Node000002" class="node">
<title>Node2</title>
<g id="a_Node000002"><a xlink:title=" ">
<polygon fill="white" stroke="#bfbfbf" points="130,-97 0,-97 0,-66.5 130,-66.5 130,-97"/>
<text text-anchor="start" x="8" y="-83.5" font-family="Helvetica,sans-Serif" font-size="10.00">boost::enable_shared</text>
<text text-anchor="middle" x="65" y="-72.25" font-family="Helvetica,sans-Serif" font-size="10.00">_from_this&lt; TcpSession &gt;</text>
</a>
</g>
</g>
<!-- Node2&#45;&gt;Node1 -->
<g id="edge1_Node000001_Node000002" class="edge">
<title>Node2&#45;&gt;Node1</title>
<g id="a_edge1_Node000001_Node000002"><a xlink:title=" ">
<path fill="none" stroke="#63b8ff" d="M98.46,-59.99C120.01,-46.61 146.97,-29.88 163.31,-19.74"/>
<polygon fill="#63b8ff" stroke="#63b8ff" points="96.63,-57 89.97,-65.25 100.32,-62.95 96.63,-57"/>
</a>
</g>
</g>
<!-- Node3 -->
<g id="Node000003" class="node">
<title>Node3</title>
<g id="a_Node000003"><a xlink:href="class_tcp_server.html" target="_top" xlink:title="Class that defines a TCP server.">
<polygon fill="white" stroke="#666666" points="208.12,-91.38 147.88,-91.38 147.88,-72.12 208.12,-72.12 208.12,-91.38"/>
<text text-anchor="middle" x="178" y="-77.88" font-family="Helvetica,sans-Serif" font-size="10.00">TcpServer</text>
</a>
</g>
</g>
<!-- Node3&#45;&gt;Node1 -->
<g id="edge2_Node000001_Node000003" class="edge">
<title>Node3&#45;&gt;Node1</title>
<g id="a_edge2_Node000001_Node000003"><a xlink:title=" ">
<path fill="none" stroke="#9a32cd" stroke-dasharray="5,2" d="M178,-60.37C178,-46.89 178,-29.89 178,-19.66"/>
<polygon fill="#9a32cd" stroke="#9a32cd" points="174.5,-60.36 178,-70.36 181.5,-60.36 174.5,-60.36"/>
</a>
</g>
<text text-anchor="middle" x="199.75" y="-39" font-family="Helvetica,sans-Serif" font-size="10.00" fill="grey"> m_server</text>
</g>
<!-- Node4 -->
<g id="Node000004" class="node">
<title>Node4</title>
<g id="a_Node000004"><a xlink:href="class_tcp_ip_id.html" target="_top" xlink:title="Class to handle TCP/IP endpoints.">
<polygon fill="white" stroke="#666666" points="95.12,-169.12 46.88,-169.12 46.88,-149.88 95.12,-149.88 95.12,-169.12"/>
<text text-anchor="middle" x="71" y="-155.62" font-family="Helvetica,sans-Serif" font-size="10.00">TcpIpId</text>
</a>
</g>
</g>
<!-- Node4&#45;&gt;Node3 -->
<g id="edge3_Node000003_Node000004" class="edge">
<title>Node4&#45;&gt;Node3</title>
<g id="a_edge3_Node000003_Node000004"><a xlink:title=" ">
<path fill="none" stroke="#9a32cd" stroke-dasharray="5,2" d="M92.86,-143.03C114.68,-127.58 147.47,-104.36 165.32,-91.73"/>
<polygon fill="#9a32cd" stroke="#9a32cd" points="91.07,-140 84.93,-148.64 95.11,-145.72 91.07,-140"/>
</a>
</g>
<text text-anchor="middle" x="142.91" y="-116.75" font-family="Helvetica,sans-Serif" font-size="10.00" fill="grey"> m_id</text>
</g>
<!-- Node5 -->
<g id="Node000005" class="node">
<title>Node5</title>
<g id="a_Node000005"><a xlink:href="class_id.html" target="_top" xlink:title="Abstract class of an ID.">
<polygon fill="white" stroke="#666666" points="54.4,-241.25 25.6,-241.25 25.6,-222 54.4,-222 54.4,-241.25"/>
<text text-anchor="middle" x="40" y="-227.75" font-family="Helvetica,sans-Serif" font-size="10.00">Id</text>
</a>
</g>
</g>
<!-- Node5&#45;&gt;Node4 -->
<g id="edge4_Node000004_Node000005" class="edge">
<title>Node5&#45;&gt;Node4</title>
<g id="a_edge4_Node000004_Node000005"><a xlink:title=" ">
<path fill="none" stroke="#63b8ff" d="M48.46,-211.48C54.5,-197.83 62.34,-180.08 67.01,-169.53"/>
<polygon fill="#63b8ff" stroke="#63b8ff" points="45.38,-209.8 44.54,-220.36 51.78,-212.63 45.38,-209.8"/>
</a>
</g>
</g>
<!-- Node6 -->
<g id="Node000006" class="node">
<title>Node6</title>
<g id="a_Node000006"><a xlink:title=" ">
<polygon fill="white" stroke="#666666" points="131.75,-241.25 72.25,-241.25 72.25,-222 131.75,-222 131.75,-241.25"/>
<text text-anchor="middle" x="102" y="-227.75" font-family="Helvetica,sans-Serif" font-size="10.00">std::string</text>
</a>
</g>
</g>
<!-- Node6&#45;&gt;Node4 -->
<g id="edge5_Node000004_Node000006" class="edge">
<title>Node6&#45;&gt;Node4</title>
<g id="a_edge5_Node000004_Node000006"><a xlink:title=" ">
<path fill="none" stroke="#9a32cd" stroke-dasharray="5,2" d="M93.54,-211.48C87.5,-197.83 79.66,-180.08 74.99,-169.53"/>
<polygon fill="#9a32cd" stroke="#9a32cd" points="90.22,-212.63 97.46,-220.36 96.62,-209.8 90.22,-212.63"/>
</a>
</g>
<text text-anchor="middle" x="122.06" y="-194.5" font-family="Helvetica,sans-Serif" font-size="10.00" fill="grey"> m_ip_address</text>
</g>
<!-- Node7 -->
<g id="Node000007" class="node">
<title>Node7</title>
<g id="a_Node000007"><a xlink:title=" ">
<polygon fill="white" stroke="#666666" points="149,-319 55,-319 55,-288.5 149,-288.5 149,-319"/>
<text text-anchor="start" x="63" y="-305.5" font-family="Helvetica,sans-Serif" font-size="10.00">std::basic_string&lt;</text>
<text text-anchor="middle" x="102" y="-294.25" font-family="Helvetica,sans-Serif" font-size="10.00"> Char &gt;</text>
</a>
</g>
</g>
<!-- Node7&#45;&gt;Node6 -->
<g id="edge6_Node000006_Node000007" class="edge">
<title>Node7&#45;&gt;Node6</title>
<g id="a_edge6_Node000006_Node000007"><a xlink:title=" ">
<path fill="none" stroke="#63b8ff" d="M102,-276.98C102,-264.48 102,-250.27 102,-241.38"/>
<polygon fill="#63b8ff" stroke="#63b8ff" points="98.5,-276.71 102,-286.71 105.5,-276.71 98.5,-276.71"/>
</a>
</g>
</g>
<!-- Node8 -->
<g id="Node000008" class="node">
<title>Node8</title>
<g id="a_Node000008"><a xlink:title=" ">
<polygon fill="white" stroke="#666666" points="243,-169.12 113,-169.12 113,-149.88 243,-149.88 243,-169.12"/>
<text text-anchor="middle" x="178" y="-155.62" font-family="Helvetica,sans-Serif" font-size="10.00">std::set&lt; p_tcp_session &gt;</text>
</a>
</g>
</g>
<!-- Node8&#45;&gt;Node3 -->
<g id="edge7_Node000003_Node000008" class="edge">
<title>Node8&#45;&gt;Node3</title>
<g id="a_edge7_Node000003_Node000008"><a xlink:title=" ">
<path fill="none" stroke="#9a32cd" stroke-dasharray="5,2" d="M178,-138.22C178,-123.08 178,-103.11 178,-91.73"/>
<polygon fill="#9a32cd" stroke="#9a32cd" points="174.5,-138 178,-148 181.5,-138 174.5,-138"/>
</a>
</g>
<text text-anchor="middle" x="220" y="-116.75" font-family="Helvetica,sans-Serif" font-size="10.00" fill="grey"> m_client_sessions</text>
</g>
<!-- Node9 -->
<g id="Node000009" class="node">
<title>Node9</title>
<g id="a_Node000009"><a xlink:href="class_message.html" target="_top" xlink:title="Class that defines a message.">
<polygon fill="white" stroke="#666666" points="311.88,-91.38 256.12,-91.38 256.12,-72.12 311.88,-72.12 311.88,-91.38"/>
<text text-anchor="middle" x="284" y="-77.88" font-family="Helvetica,sans-Serif" font-size="10.00">Message</text>
</a>
</g>
</g>
<!-- Node9&#45;&gt;Node1 -->
<g id="edge8_Node000001_Node000009" class="edge">
<title>Node9&#45;&gt;Node1</title>
<g id="a_edge8_Node000001_Node000009"><a xlink:title=" ">
<path fill="none" stroke="#9a32cd" stroke-dasharray="5,2" d="M264.43,-65.02C253.41,-56.43 239.24,-45.83 226,-37.25 216.24,-30.93 204.88,-24.58 195.67,-19.68"/>
<polygon fill="#9a32cd" stroke="#9a32cd" points="262,-67.56 272.02,-71.01 266.34,-62.06 262,-67.56"/>
</a>
</g>
<text text-anchor="middle" x="268.9" y="-39" font-family="Helvetica,sans-Serif" font-size="10.00" fill="grey"> m_message</text>
</g>
<!-- Node10 -->
<g id="Node000010" class="node">
<title>Node10</title>
<g id="a_Node000010"><a xlink:title=" ">
<polygon fill="white" stroke="#666666" points="380.75,-174.75 261.25,-174.75 261.25,-144.25 380.75,-144.25 380.75,-174.75"/>
<text text-anchor="start" x="269.25" y="-161.25" font-family="Helvetica,sans-Serif" font-size="10.00">std::vector&lt; std::unique</text>
<text text-anchor="middle" x="321" y="-150" font-family="Helvetica,sans-Serif" font-size="10.00">_ptr&lt; Payload &gt; &gt;</text>
</a>
</g>
</g>
<!-- Node10&#45;&gt;Node9 -->
<g id="edge9_Node000009_Node000010" class="edge">
<title>Node10&#45;&gt;Node9</title>
<g id="a_edge9_Node000009_Node000010"><a xlink:title=" ">
<path fill="none" stroke="#9a32cd" stroke-dasharray="5,2" d="M308.83,-133.58C301.78,-119.15 293.34,-101.87 288.33,-91.62"/>
<polygon fill="#9a32cd" stroke="#9a32cd" points="305.67,-135.09 313.2,-142.53 311.96,-132.01 305.67,-135.09"/>
</a>
</g>
<text text-anchor="middle" x="332.47" y="-116.75" font-family="Helvetica,sans-Serif" font-size="10.00" fill="grey"> m_payloads</text>
</g>
<!-- Node11 -->
<g id="Node000011" class="node">
<title>Node11</title>
<g id="a_Node000011"><a xlink:title=" ">
<polygon fill="white" stroke="#666666" points="387.88,-241.25 254.12,-241.25 254.12,-222 387.88,-222 387.88,-241.25"/>
<text text-anchor="middle" x="321" y="-227.75" font-family="Helvetica,sans-Serif" font-size="10.00">std::unique_ptr&lt; Payload &gt;</text>
</a>
</g>
</g>
<!-- Node11&#45;&gt;Node10 -->
<g id="edge10_Node000010_Node000011" class="edge">
<title>Node11&#45;&gt;Node10</title>
<g id="a_edge10_Node000010_Node000011"><a xlink:title=" ">
<path fill="none" stroke="#9a32cd" stroke-dasharray="5,2" d="M321,-210.42C321,-199.16 321,-185.39 321,-175.17"/>
<polygon fill="#9a32cd" stroke="#9a32cd" points="317.5,-210.23 321,-220.23 324.5,-210.23 317.5,-210.23"/>
</a>
</g>
<text text-anchor="middle" x="342.38" y="-194.5" font-family="Helvetica,sans-Serif" font-size="10.00" fill="grey"> elements</text>
</g>
<!-- Node12 -->
<g id="Node000012" class="node">
<title>Node12</title>
<g id="a_Node000012"><a xlink:href="class_payload.html" target="_top" xlink:title="Abstract class that defines different types of payloads in a message.">
<polygon fill="white" stroke="#666666" points="346.62,-313.38 295.38,-313.38 295.38,-294.12 346.62,-294.12 346.62,-313.38"/>
<text text-anchor="middle" x="321" y="-299.88" font-family="Helvetica,sans-Serif" font-size="10.00">Payload</text>
</a>
</g>
</g>
<!-- Node12&#45;&gt;Node11 -->
<g id="edge11_Node000011_Node000012" class="edge">
<title>Node12&#45;&gt;Node11</title>
<g id="a_edge11_Node000011_Node000012"><a xlink:title=" ">
<path fill="none" stroke="#9a32cd" stroke-dasharray="5,2" d="M321,-282.37C321,-268.89 321,-251.89 321,-241.66"/>
<polygon fill="#9a32cd" stroke="#9a32cd" points="317.5,-282.36 321,-292.36 324.5,-282.36 317.5,-282.36"/>
</a>
</g>
<text text-anchor="middle" x="328.12" y="-261" font-family="Helvetica,sans-Serif" font-size="10.00" fill="grey"> ptr</text>
</g>
</g>
</svg>
