<?xml version="1.0" encoding="UTF-8" standalone="no"?>
<!DOCTYPE svg PUBLIC "-//W3C//DTD SVG 1.1//EN"
 "http://www.w3.org/Graphics/SVG/1.1/DTD/svg11.dtd">
<!-- Generated by graphviz version 12.2.1 (20241206.2353)
 -->
<!-- Title: PeerTcpServer Pages: 1 -->
<svg width="150pt" height="138pt"
 viewBox="0.00 0.00 149.75 137.75" xmlns="http://www.w3.org/2000/svg" xmlns:xlink="http://www.w3.org/1999/xlink">
<g id="graph0" class="graph" transform="scale(1 1) rotate(0) translate(4 133.75)">
<title>PeerTcpServer</title>
<!-- Node1 -->
<g id="Node000001" class="node">
<title>Node1</title>
<g id="a_Node000001"><a xlink:title="Class that defines a peer TCP server.">
<polygon fill="#999999" stroke="#666666" points="111.12,-74.5 30.62,-74.5 30.62,-55.25 111.12,-55.25 111.12,-74.5"/>
<text text-anchor="middle" x="70.88" y="-61" font-family="Helvetica,sans-Serif" font-size="10.00">PeerTcpServer</text>
</a>
</g>
</g>
<!-- Node3 -->
<g id="Node000003" class="node">
<title>Node3</title>
<g id="a_Node000003"><a xlink:href="class_pub_broker.html" target="_top" xlink:title="Class that defines the PubBroker. It manages the publication process and acts as an intermediary betw...">
<polygon fill="white" stroke="#666666" points="61.75,-19.25 0,-19.25 0,0 61.75,0 61.75,-19.25"/>
<text text-anchor="middle" x="30.88" y="-5.75" font-family="Helvetica,sans-Serif" font-size="10.00">PubBroker</text>
</a>
</g>
</g>
<!-- Node1&#45;&gt;Node3 -->
<g id="edge2_Node000001_Node000003" class="edge">
<title>Node1&#45;&gt;Node3</title>
<g id="a_edge2_Node000001_Node000003"><a xlink:title=" ">
<path fill="none" stroke="#63b8ff" d="M57.4,-45.94C50.75,-37.09 43.02,-26.79 37.62,-19.61"/>
<polygon fill="#63b8ff" stroke="#63b8ff" points="54.56,-47.98 63.36,-53.87 60.15,-43.77 54.56,-47.98"/>
</a>
</g>
</g>
<!-- Node4 -->
<g id="Node000004" class="node">
<title>Node4</title>
<g id="a_Node000004"><a xlink:href="class_sub_broker.html" target="_top" xlink:title="Class that defines the SubBroker. It manages subscriptions and acts as an intermediary between the Pu...">
<polygon fill="white" stroke="#666666" points="141.75,-19.25 80,-19.25 80,0 141.75,0 141.75,-19.25"/>
<text text-anchor="middle" x="110.88" y="-5.75" font-family="Helvetica,sans-Serif" font-size="10.00">SubBroker</text>
</a>
</g>
</g>
<!-- Node1&#45;&gt;Node4 -->
<g id="edge3_Node000001_Node000004" class="edge">
<title>Node1&#45;&gt;Node4</title>
<g id="a_edge3_Node000001_Node000004"><a xlink:title=" ">
<path fill="none" stroke="#63b8ff" d="M84.35,-45.94C91,-37.09 98.73,-26.79 104.13,-19.61"/>
<polygon fill="#63b8ff" stroke="#63b8ff" points="81.6,-43.77 78.39,-53.87 87.19,-47.98 81.6,-43.77"/>
</a>
</g>
</g>
<!-- Node2 -->
<g id="Node000002" class="node">
<title>Node2</title>
<g id="a_Node000002"><a xlink:href="class_tcp_server.html" target="_top" xlink:title="Class that defines a TCP server.">
<polygon fill="white" stroke="#666666" points="101,-129.75 40.75,-129.75 40.75,-110.5 101,-110.5 101,-129.75"/>
<text text-anchor="middle" x="70.88" y="-116.25" font-family="Helvetica,sans-Serif" font-size="10.00">TcpServer</text>
</a>
</g>
</g>
<!-- Node2&#45;&gt;Node1 -->
<g id="edge1_Node000001_Node000002" class="edge">
<title>Node2&#45;&gt;Node1</title>
<g id="a_edge1_Node000001_Node000002"><a xlink:title=" ">
<path fill="none" stroke="#63b8ff" d="M70.88,-98.88C70.88,-90.59 70.88,-81.42 70.88,-74.86"/>
<polygon fill="#63b8ff" stroke="#63b8ff" points="67.38,-98.82 70.88,-108.82 74.38,-98.82 67.38,-98.82"/>
</a>
</g>
</g>
</g>
</svg>
