<?xml version="1.0" encoding="UTF-8" standalone="no"?>
<!DOCTYPE svg PUBLIC "-//W3C//DTD SVG 1.1//EN"
 "http://www.w3.org/Graphics/SVG/1.1/DTD/svg11.dtd">
<!-- Generated by graphviz version 12.2.1 (20241206.2353)
 -->
<!-- Title: Graphical Class Hierarchy Pages: 1 -->
<svg width="204pt" height="64pt"
 viewBox="0.00 0.00 204.25 64.25" xmlns="http://www.w3.org/2000/svg" xmlns:xlink="http://www.w3.org/1999/xlink">
<g id="graph0" class="graph" transform="scale(1 1) rotate(0) translate(4 60.25)">
<title>Graphical Class Hierarchy</title>
<!-- Node0 -->
<g id="Node000000" class="node">
<title>Node0</title>
<g id="a_Node000000"><a xlink:href="class_buffer.html" target="_top" xlink:title="Class that defines a buffer to store a collection of elements.">
<polygon fill="white" stroke="#666666" points="64.75,-37.25 0,-37.25 0,-18 64.75,-18 64.75,-37.25"/>
<text text-anchor="middle" x="32.38" y="-23.75" font-family="Helvetica,sans-Serif" font-size="10.00">Buffer&lt; T &gt;</text>
</a>
</g>
</g>
<!-- Node1 -->
<g id="Node000001" class="node">
<title>Node1</title>
<g id="a_Node000001"><a xlink:href="class_double_buffer.html" target="_top" xlink:title="Class that defines a thread&#45;safe double buffering mechanism to handle concurrent reads and writes....">
<polygon fill="white" stroke="#666666" points="196.25,-56.25 100.75,-56.25 100.75,-37 196.25,-37 196.25,-56.25"/>
<text text-anchor="middle" x="148.5" y="-42.75" font-family="Helvetica,sans-Serif" font-size="10.00">DoubleBuffer&lt; T &gt;</text>
</a>
</g>
</g>
<!-- Node0&#45;&gt;Node1 -->
<g id="edge4_Node000000_Node000001" class="edge">
<title>Node0&#45;&gt;Node1</title>
<g id="a_edge4_Node000000_Node000001"><a xlink:title=" ">
<path fill="none" stroke="#63b8ff" d="M76.37,-34.78C84.25,-36.1 92.52,-37.47 100.52,-38.8"/>
<polygon fill="#63b8ff" stroke="#63b8ff" points="77.1,-31.36 66.66,-33.17 75.95,-38.26 77.1,-31.36"/>
</a>
</g>
</g>
<!-- Node2 -->
<g id="Node000002" class="node">
<title>Node2</title>
<g id="a_Node000002"><a xlink:href="class_simple_buffer.html" target="_top" xlink:title=" ">
<polygon fill="white" stroke="#666666" points="195.88,-19.25 101.12,-19.25 101.12,0 195.88,0 195.88,-19.25"/>
<text text-anchor="middle" x="148.5" y="-5.75" font-family="Helvetica,sans-Serif" font-size="10.00">SimpleBuffer&lt; T &gt;</text>
</a>
</g>
</g>
<!-- Node0&#45;&gt;Node2 -->
<g id="edge5_Node000000_Node000002" class="edge">
<title>Node0&#45;&gt;Node2</title>
<g id="a_edge5_Node000000_Node000002"><a xlink:title=" ">
<path fill="none" stroke="#63b8ff" d="M76.51,-20.82C84.49,-19.56 92.87,-18.24 100.95,-16.97"/>
<polygon fill="#63b8ff" stroke="#63b8ff" points="75.99,-17.36 66.66,-22.38 77.08,-24.27 75.99,-17.36"/>
</a>
</g>
</g>
</g>
</svg>
