<?xml version="1.0" encoding="UTF-8" standalone="no"?>
<!DOCTYPE svg PUBLIC "-//W3C//DTD SVG 1.1//EN"
 "http://www.w3.org/Graphics/SVG/1.1/DTD/svg11.dtd">
<!-- Generated by graphviz version 12.2.1 (20241206.2353)
 -->
<!-- Title: Graphical Class Hierarchy Pages: 1 -->
<svg width="273pt" height="64pt"
 viewBox="0.00 0.00 273.25 64.25" xmlns="http://www.w3.org/2000/svg" xmlns:xlink="http://www.w3.org/1999/xlink">
<g id="graph0" class="graph" transform="scale(1 1) rotate(0) translate(4 60.25)">
<title>Graphical Class Hierarchy</title>
<!-- Node0 -->
<g id="Node000000" class="node">
<title>Node0</title>
<g id="a_Node000000"><a xlink:href="class_buffer.html" target="_top" xlink:title=" ">
<polygon fill="white" stroke="#666666" points="99.25,-37.25 0,-37.25 0,-18 99.25,-18 99.25,-37.25"/>
<text text-anchor="middle" x="49.62" y="-23.75" font-family="Helvetica,sans-Serif" font-size="10.00">Buffer&lt; Message &gt;</text>
</a>
</g>
</g>
<!-- Node1 -->
<g id="Node000001" class="node">
<title>Node1</title>
<g id="a_Node000001"><a xlink:href="class_double_buffer.html" target="_top" xlink:title=" ">
<polygon fill="white" stroke="#666666" points="265.25,-56.25 135.25,-56.25 135.25,-37 265.25,-37 265.25,-56.25"/>
<text text-anchor="middle" x="200.25" y="-42.75" font-family="Helvetica,sans-Serif" font-size="10.00">DoubleBuffer&lt; Message &gt;</text>
</a>
</g>
</g>
<!-- Node0&#45;&gt;Node1 -->
<g id="edge2_Node000000_Node000001" class="edge">
<title>Node0&#45;&gt;Node1</title>
<g id="a_edge2_Node000000_Node000001"><a xlink:title=" ">
<path fill="none" stroke="#63b8ff" d="M111.01,-35.34C118.87,-36.35 126.93,-37.38 134.85,-38.39"/>
<polygon fill="#63b8ff" stroke="#63b8ff" points="111.57,-31.89 101.2,-34.09 110.68,-38.83 111.57,-31.89"/>
</a>
</g>
</g>
<!-- Node2 -->
<g id="Node000002" class="node">
<title>Node2</title>
<g id="a_Node000002"><a xlink:href="class_simple_buffer.html" target="_top" xlink:title=" ">
<polygon fill="white" stroke="#666666" points="264.88,-19.25 135.62,-19.25 135.62,0 264.88,0 264.88,-19.25"/>
<text text-anchor="middle" x="200.25" y="-5.75" font-family="Helvetica,sans-Serif" font-size="10.00">SimpleBuffer&lt; Message &gt;</text>
</a>
</g>
</g>
<!-- Node0&#45;&gt;Node2 -->
<g id="edge3_Node000000_Node000002" class="edge">
<title>Node0&#45;&gt;Node2</title>
<g id="a_edge3_Node000000_Node000002"><a xlink:title=" ">
<path fill="none" stroke="#63b8ff" d="M110.91,-20.32C118.97,-19.35 127.26,-18.34 135.38,-17.36"/>
<polygon fill="#63b8ff" stroke="#63b8ff" points="110.71,-16.82 101.2,-21.5 111.55,-23.77 110.71,-16.82"/>
</a>
</g>
</g>
</g>
</svg>
