<?xml version="1.0" encoding="UTF-8" standalone="no"?>
<!DOCTYPE svg PUBLIC "-//W3C//DTD SVG 1.1//EN"
 "http://www.w3.org/Graphics/SVG/1.1/DTD/svg11.dtd">
<!-- Generated by graphviz version 12.2.1 (20241206.2353)
 -->
<!-- Title: Graphical Class Hierarchy Pages: 1 -->
<svg width="168pt" height="64pt"
 viewBox="0.00 0.00 168.25 64.25" xmlns="http://www.w3.org/2000/svg" xmlns:xlink="http://www.w3.org/1999/xlink">
<g id="graph0" class="graph" transform="scale(1 1) rotate(0) translate(4 60.25)">
<title>Graphical Class Hierarchy</title>
<!-- Node0 -->
<g id="Node000000" class="node">
<title>Node0</title>
<g id="a_Node000000"><a xlink:href="class_topic.html" target="_top" xlink:title="Class that defines a topic.">
<polygon fill="white" stroke="#666666" points="39.25,-37.25 0,-37.25 0,-18 39.25,-18 39.25,-37.25"/>
<text text-anchor="middle" x="19.62" y="-23.75" font-family="Helvetica,sans-Serif" font-size="10.00">Topic</text>
</a>
</g>
</g>
<!-- Node1 -->
<g id="Node000001" class="node">
<title>Node1</title>
<g id="a_Node000001"><a xlink:href="class_topic_pub_broker.html" target="_top" xlink:title="Class that handles messages for a specific topic at the PubBroker level.">
<polygon fill="white" stroke="#666666" points="160.25,-56.25 75.25,-56.25 75.25,-37 160.25,-37 160.25,-56.25"/>
<text text-anchor="middle" x="117.75" y="-42.75" font-family="Helvetica,sans-Serif" font-size="10.00">TopicPubBroker</text>
</a>
</g>
</g>
<!-- Node0&#45;&gt;Node1 -->
<g id="edge17_Node000000_Node000001" class="edge">
<title>Node0&#45;&gt;Node1</title>
<g id="a_edge17_Node000000_Node000001"><a xlink:title=" ">
<path fill="none" stroke="#63b8ff" d="M50.69,-33.57C58.44,-35.1 66.91,-36.77 75.14,-38.4"/>
<polygon fill="#63b8ff" stroke="#63b8ff" points="51.59,-30.18 41.1,-31.67 50.23,-37.05 51.59,-30.18"/>
</a>
</g>
</g>
<!-- Node2 -->
<g id="Node000002" class="node">
<title>Node2</title>
<g id="a_Node000002"><a xlink:href="class_topic_sub_broker.html" target="_top" xlink:title="Class that handles messages and subscriptions for a specific topic at the SubBroker level.">
<polygon fill="white" stroke="#666666" points="160.25,-19.25 75.25,-19.25 75.25,0 160.25,0 160.25,-19.25"/>
<text text-anchor="middle" x="117.75" y="-5.75" font-family="Helvetica,sans-Serif" font-size="10.00">TopicSubBroker</text>
</a>
</g>
</g>
<!-- Node0&#45;&gt;Node2 -->
<g id="edge18_Node000000_Node000002" class="edge">
<title>Node0&#45;&gt;Node2</title>
<g id="a_edge18_Node000000_Node000002"><a xlink:title=" ">
<path fill="none" stroke="#63b8ff" d="M50.69,-22C58.44,-20.54 66.91,-18.96 75.14,-17.42"/>
<polygon fill="#63b8ff" stroke="#63b8ff" points="50.29,-18.51 41.1,-23.79 51.58,-25.39 50.29,-18.51"/>
</a>
</g>
</g>
</g>
</svg>
