<?xml version="1.0" encoding="UTF-8" standalone="no"?>
<!DOCTYPE svg PUBLIC "-//W3C//DTD SVG 1.1//EN"
 "http://www.w3.org/Graphics/SVG/1.1/DTD/svg11.dtd">
<!-- Generated by graphviz version 12.2.1 (20241206.2353)
 -->
<!-- Title: Graphical Class Hierarchy Pages: 1 -->
<svg width="192pt" height="175pt"
 viewBox="0.00 0.00 192.25 175.25" xmlns="http://www.w3.org/2000/svg" xmlns:xlink="http://www.w3.org/1999/xlink">
<g id="graph0" class="graph" transform="scale(1 1) rotate(0) translate(4 171.25)">
<title>Graphical Class Hierarchy</title>
<!-- Node0 -->
<g id="Node000000" class="node">
<title>Node0</title>
<g id="a_Node000000"><a xlink:href="class_payload.html" target="_top" xlink:title="Abstract class that defines different types of payloads in a message.">
<polygon fill="white" stroke="#666666" points="51.25,-93.25 0,-93.25 0,-74 51.25,-74 51.25,-93.25"/>
<text text-anchor="middle" x="25.62" y="-79.75" font-family="Helvetica,sans-Serif" font-size="10.00">Payload</text>
</a>
</g>
</g>
<!-- Node1 -->
<g id="Node000001" class="node">
<title>Node1</title>
<g id="a_Node000001"><a xlink:href="class_delivered_measure.html" target="_top" xlink:title="Class that defines the measures sent by the PubBroker to the SubBroker.">
<polygon fill="white" stroke="#666666" points="183.12,-167.25 88.38,-167.25 88.38,-148 183.12,-148 183.12,-167.25"/>
<text text-anchor="middle" x="135.75" y="-153.75" font-family="Helvetica,sans-Serif" font-size="10.00">DeliveredMeasure</text>
</a>
</g>
</g>
<!-- Node0&#45;&gt;Node1 -->
<g id="edge7_Node000000_Node000001" class="edge">
<title>Node0&#45;&gt;Node1</title>
<g id="a_edge7_Node000000_Node000001"><a xlink:title=" ">
<path fill="none" stroke="#63b8ff" d="M42.91,-101.97C54.35,-113.97 70.55,-129.29 87.25,-139.62 92.12,-142.64 97.59,-145.29 103.02,-147.55"/>
<polygon fill="#63b8ff" stroke="#63b8ff" points="45.54,-99.65 36.18,-94.68 40.39,-104.4 45.54,-99.65"/>
</a>
</g>
</g>
<!-- Node2 -->
<g id="Node000002" class="node">
<title>Node2</title>
<g id="a_Node000002"><a xlink:href="class_published_measure.html" target="_top" xlink:title="Class that defines the measures sent by the publishers to the PubBroker.">
<polygon fill="white" stroke="#666666" points="183.88,-130.25 87.62,-130.25 87.62,-111 183.88,-111 183.88,-130.25"/>
<text text-anchor="middle" x="135.75" y="-116.75" font-family="Helvetica,sans-Serif" font-size="10.00">PublishedMeasure</text>
</a>
</g>
</g>
<!-- Node0&#45;&gt;Node2 -->
<g id="edge8_Node000000_Node000002" class="edge">
<title>Node0&#45;&gt;Node2</title>
<g id="a_edge8_Node000000_Node000002"><a xlink:title=" ">
<path fill="none" stroke="#63b8ff" d="M62.37,-95.86C76.25,-100.61 91.97,-105.99 105.2,-110.51"/>
<polygon fill="#63b8ff" stroke="#63b8ff" points="63.73,-92.62 53.13,-92.7 61.46,-99.25 63.73,-92.62"/>
</a>
</g>
</g>
<!-- Node3 -->
<g id="Node000003" class="node">
<title>Node3</title>
<g id="a_Node000003"><a xlink:href="class_schedule.html" target="_top" xlink:title="Class that defines the schedule for delivering messages from the PubBroker to the SubBroker.">
<polygon fill="white" stroke="#666666" points="164,-93.25 107.5,-93.25 107.5,-74 164,-74 164,-93.25"/>
<text text-anchor="middle" x="135.75" y="-79.75" font-family="Helvetica,sans-Serif" font-size="10.00">Schedule</text>
</a>
</g>
</g>
<!-- Node0&#45;&gt;Node3 -->
<g id="edge9_Node000000_Node000003" class="edge">
<title>Node0&#45;&gt;Node3</title>
<g id="a_edge9_Node000000_Node000003"><a xlink:title=" ">
<path fill="none" stroke="#63b8ff" d="M62.8,-83.62C77.27,-83.62 93.67,-83.62 107.15,-83.62"/>
<polygon fill="#63b8ff" stroke="#63b8ff" points="63.22,-80.13 53.22,-83.63 63.22,-87.13 63.22,-80.13"/>
</a>
</g>
</g>
<!-- Node4 -->
<g id="Node000004" class="node">
<title>Node4</title>
<g id="a_Node000004"><a xlink:href="class_subscription.html" target="_top" xlink:title="Class that defines a subscription request sent by subscribers to the SubBroker.">
<polygon fill="white" stroke="#666666" points="170.75,-56.25 100.75,-56.25 100.75,-37 170.75,-37 170.75,-56.25"/>
<text text-anchor="middle" x="135.75" y="-42.75" font-family="Helvetica,sans-Serif" font-size="10.00">Subscription</text>
</a>
</g>
</g>
<!-- Node0&#45;&gt;Node4 -->
<g id="edge10_Node000000_Node000004" class="edge">
<title>Node0&#45;&gt;Node4</title>
<g id="a_edge10_Node000000_Node000004"><a xlink:title=" ">
<path fill="none" stroke="#63b8ff" d="M62.37,-71.39C76.25,-66.64 91.97,-61.26 105.2,-56.74"/>
<polygon fill="#63b8ff" stroke="#63b8ff" points="61.46,-68 53.13,-74.55 63.73,-74.63 61.46,-68"/>
</a>
</g>
</g>
<!-- Node5 -->
<g id="Node000005" class="node">
<title>Node5</title>
<g id="a_Node000005"><a xlink:href="class_topic_configuration.html" target="_top" xlink:title="Class that defines the configuration for topics.">
<polygon fill="white" stroke="#666666" points="184.25,-19.25 87.25,-19.25 87.25,0 184.25,0 184.25,-19.25"/>
<text text-anchor="middle" x="135.75" y="-5.75" font-family="Helvetica,sans-Serif" font-size="10.00">TopicConfiguration</text>
</a>
</g>
</g>
<!-- Node0&#45;&gt;Node5 -->
<g id="edge11_Node000000_Node000005" class="edge">
<title>Node0&#45;&gt;Node5</title>
<g id="a_edge11_Node000000_Node000005"><a xlink:title=" ">
<path fill="none" stroke="#63b8ff" d="M42.91,-65.28C54.35,-53.28 70.55,-37.96 87.25,-27.62 92.12,-24.61 97.59,-21.96 103.02,-19.7"/>
<polygon fill="#63b8ff" stroke="#63b8ff" points="40.39,-62.85 36.18,-72.57 45.54,-67.6 40.39,-62.85"/>
</a>
</g>
</g>
</g>
</svg>
