<?xml version="1.0" encoding="UTF-8" standalone="no"?>
<!DOCTYPE svg PUBLIC "-//W3C//DTD SVG 1.1//EN"
 "http://www.w3.org/Graphics/SVG/1.1/DTD/svg11.dtd">
<!-- Generated by graphviz version 12.2.1 (20241206.2353)
 -->
<!-- Title: Graphical Class Hierarchy Pages: 1 -->
<svg width="185pt" height="64pt"
 viewBox="0.00 0.00 184.75 64.25" xmlns="http://www.w3.org/2000/svg" xmlns:xlink="http://www.w3.org/1999/xlink">
<g id="graph0" class="graph" transform="scale(1 1) rotate(0) translate(4 60.25)">
<title>Graphical Class Hierarchy</title>
<!-- Node0 -->
<g id="Node000000" class="node">
<title>Node0</title>
<g id="a_Node000000"><a xlink:href="class_tcp_client.html" target="_top" xlink:title="Class that defines a TCP client.">
<polygon fill="white" stroke="#666666" points="57.25,-37.25 0,-37.25 0,-18 57.25,-18 57.25,-37.25"/>
<text text-anchor="middle" x="28.62" y="-23.75" font-family="Helvetica,sans-Serif" font-size="10.00">TcpClient</text>
</a>
</g>
</g>
<!-- Node1 -->
<g id="Node000001" class="node">
<title>Node1</title>
<g id="a_Node000001"><a xlink:href="class_publisher_core.html" target="_top" xlink:title="Class that defines the core logic of a publisher.">
<polygon fill="white" stroke="#666666" points="173.75,-56.25 96.25,-56.25 96.25,-37 173.75,-37 173.75,-56.25"/>
<text text-anchor="middle" x="135" y="-42.75" font-family="Helvetica,sans-Serif" font-size="10.00">PublisherCore</text>
</a>
</g>
</g>
<!-- Node0&#45;&gt;Node1 -->
<g id="edge12_Node000000_Node000001" class="edge">
<title>Node0&#45;&gt;Node1</title>
<g id="a_edge12_Node000000_Node000001"><a xlink:title=" ">
<path fill="none" stroke="#63b8ff" d="M68.91,-34.78C77.83,-36.4 87.28,-38.12 96.14,-39.73"/>
<polygon fill="#63b8ff" stroke="#63b8ff" points="69.55,-31.34 59.08,-32.99 68.3,-38.22 69.55,-31.34"/>
</a>
</g>
</g>
<!-- Node2 -->
<g id="Node000002" class="node">
<title>Node2</title>
<g id="a_Node000002"><a xlink:href="class_subscriber_core.html" target="_top" xlink:title="Class that defines the core logic of a subscriber.">
<polygon fill="white" stroke="#666666" points="176.75,-19.25 93.25,-19.25 93.25,0 176.75,0 176.75,-19.25"/>
<text text-anchor="middle" x="135" y="-5.75" font-family="Helvetica,sans-Serif" font-size="10.00">SubscriberCore</text>
</a>
</g>
</g>
<!-- Node0&#45;&gt;Node2 -->
<g id="edge13_Node000000_Node000002" class="edge">
<title>Node0&#45;&gt;Node2</title>
<g id="a_edge13_Node000000_Node000002"><a xlink:title=" ">
<path fill="none" stroke="#63b8ff" d="M68.78,-20.87C76.69,-19.51 85.03,-18.07 93,-16.7"/>
<polygon fill="#63b8ff" stroke="#63b8ff" points="68.35,-17.4 59.09,-22.54 69.54,-24.29 68.35,-17.4"/>
</a>
</g>
</g>
</g>
</svg>
