<?xml version="1.0" encoding="UTF-8" standalone="no"?>
<!DOCTYPE svg PUBLIC "-//W3C//DTD SVG 1.1//EN"
 "http://www.w3.org/Graphics/SVG/1.1/DTD/svg11.dtd">
<!-- Generated by graphviz version 12.2.1 (20241206.2353)
 -->
<!-- Title: Graphical Class Hierarchy Pages: 1 -->
<svg width="283pt" height="64pt"
 viewBox="0.00 0.00 282.50 64.25" xmlns="http://www.w3.org/2000/svg" xmlns:xlink="http://www.w3.org/1999/xlink">
<g id="graph0" class="graph" transform="scale(1 1) rotate(0) translate(4 60.25)">
<title>Graphical Class Hierarchy</title>
<!-- Node0 -->
<g id="Node000000" class="node">
<title>Node0</title>
<g id="a_Node000000"><a xlink:href="class_tcp_server.html" target="_top" xlink:title="Class that defines a TCP server.">
<polygon fill="white" stroke="#666666" points="60.25,-37.25 0,-37.25 0,-18 60.25,-18 60.25,-37.25"/>
<text text-anchor="middle" x="30.12" y="-23.75" font-family="Helvetica,sans-Serif" font-size="10.00">TcpServer</text>
</a>
</g>
</g>
<!-- Node1 -->
<g id="Node000001" class="node">
<title>Node1</title>
<g id="a_Node000001"><a xlink:href="class_peer_tcp_server.html" target="_top" xlink:title="Class that defines a peer TCP server.">
<polygon fill="white" stroke="#666666" points="176.75,-37.25 96.25,-37.25 96.25,-18 176.75,-18 176.75,-37.25"/>
<text text-anchor="middle" x="136.5" y="-23.75" font-family="Helvetica,sans-Serif" font-size="10.00">PeerTcpServer</text>
</a>
</g>
</g>
<!-- Node0&#45;&gt;Node1 -->
<g id="edge14_Node000000_Node000001" class="edge">
<title>Node0&#45;&gt;Node1</title>
<g id="a_edge14_Node000000_Node000001"><a xlink:title=" ">
<path fill="none" stroke="#63b8ff" d="M71.73,-27.62C79.66,-27.62 87.96,-27.62 95.85,-27.62"/>
<polygon fill="#63b8ff" stroke="#63b8ff" points="71.99,-24.13 61.99,-27.63 71.99,-31.13 71.99,-24.13"/>
</a>
</g>
</g>
<!-- Node2 -->
<g id="Node000002" class="node">
<title>Node2</title>
<g id="a_Node000002"><a xlink:href="class_pub_broker.html" target="_top" xlink:title="Class that defines the PubBroker. It manages the publication process and acts as an intermediary betw...">
<polygon fill="white" stroke="#666666" points="274.5,-56.25 212.75,-56.25 212.75,-37 274.5,-37 274.5,-56.25"/>
<text text-anchor="middle" x="243.62" y="-42.75" font-family="Helvetica,sans-Serif" font-size="10.00">PubBroker</text>
</a>
</g>
</g>
<!-- Node1&#45;&gt;Node2 -->
<g id="edge15_Node000001_Node000002" class="edge">
<title>Node1&#45;&gt;Node2</title>
<g id="a_edge15_Node000001_Node000002"><a xlink:title=" ">
<path fill="none" stroke="#63b8ff" d="M188.33,-36.81C196.54,-38.3 204.81,-39.79 212.33,-41.15"/>
<polygon fill="#63b8ff" stroke="#63b8ff" points="189.2,-33.41 178.73,-35.08 187.95,-40.3 189.2,-33.41"/>
</a>
</g>
</g>
<!-- Node3 -->
<g id="Node000003" class="node">
<title>Node3</title>
<g id="a_Node000003"><a xlink:href="class_sub_broker.html" target="_top" xlink:title="Class that defines the SubBroker. It manages subscriptions and acts as an intermediary between the Pu...">
<polygon fill="white" stroke="#666666" points="274.5,-19.25 212.75,-19.25 212.75,0 274.5,0 274.5,-19.25"/>
<text text-anchor="middle" x="243.62" y="-5.75" font-family="Helvetica,sans-Serif" font-size="10.00">SubBroker</text>
</a>
</g>
</g>
<!-- Node1&#45;&gt;Node3 -->
<g id="edge16_Node000001_Node000003" class="edge">
<title>Node1&#45;&gt;Node3</title>
<g id="a_edge16_Node000001_Node000003"><a xlink:title=" ">
<path fill="none" stroke="#63b8ff" d="M188.33,-18.92C196.54,-17.52 204.81,-16.1 212.33,-14.81"/>
<polygon fill="#63b8ff" stroke="#63b8ff" points="188,-15.43 178.74,-20.56 189.18,-22.33 188,-15.43"/>
</a>
</g>
</g>
</g>
</svg>
